Cathisma-Regular.ufo
<glyph name="exclam" format="2">
  <advance width="129"/>
  <unicode hex="0021"/>
  <outline>
    <contour>
      <point x="95" y="67" type="curve" smooth="yes"/>
      <point x="95" y="30"/>
      <point x="82" y="0"/>
      <point x="62" y="0" type="curve" smooth="yes"/>
      <point x="43" y="0"/>
      <point x="29" y="30"/>
      <point x="29" y="67" type="curve" smooth="yes"/>
      <point x="29" y="105"/>
      <point x="43" y="135"/>
      <point x="62" y="135" type="curve" smooth="yes"/>
      <point x="82" y="135"/>
      <point x="95" y="105"/>
    </contour>
    <contour>
      <point x="53" y="198" type="line"/>
      <point x="30" y="800" type="line"/>
      <point x="37" y="807"/>
      <point x="49" y="812"/>
      <point x="62" y="812" type="curve" smooth="yes"/>
      <point x="75" y="812"/>
      <point x="90" y="807"/>
      <point x="94" y="800" type="curve"/>
      <point x="71" y="198" type="line"/>
    </contour>
  </outline>
</glyph>
<glyph name="quotedbl" format="2">
  <advance width="222"/>
  <unicode hex="0022"/>
  <outline>
    <contour>
      <point x="202" y="793" type="line"/>
      <point x="136" y="576" type="line"/>
      <point x="100" y="576" type="line"/>
      <point x="100" y="583" type="line"/>
      <point x="150" y="800" type="line"/>
      <point x="202" y="800" type="line"/>
    </contour>
    <contour>
      <point x="122" y="793" type="line"/>
      <point x="56" y="576" type="line"/>
      <point x="20" y="576" type="line"/>
      <point x="20" y="583" type="line"/>
      <point x="70" y="800" type="line"/>
      <point x="122" y="800" type="line"/>
    </contour>
  </outline>
</glyph>
<glyph name="parenleft" format="2">
  <advance width="175"/>
  <unicode hex="0028"/>
  <outline>
    <contour>
      <point x="132" y="832" type="line" smooth="yes"/>
      <point x="122" y="832"/>
      <point x="110" y="828"/>
      <point x="110" y="817" type="curve" smooth="yes"/>
      <point x="110" y="-17" type="line" smooth="yes"/>
      <point x="110" y="-28"/>
      <point x="122" y="-32"/>
      <point x="132" y="-32" type="curve" smooth="yes"/>
      <point x="169" y="-32" type="line"/>
      <point x="169" y="-42" type="line"/>
      <point x="132" y="-42" type="line" smooth="yes"/>
      <point x="85" y="-42"/>
      <point x="45" y="-4"/>
      <point x="45" y="43" type="curve" smooth="yes"/>
      <point x="45" y="757" type="line" smooth="yes"/>
      <point x="45" y="804"/>
      <point x="85" y="842"/>
      <point x="132" y="842" type="curve" smooth="yes"/>
      <point x="169" y="842" type="line"/>
      <point x="169" y="832" type="line"/>
    </contour>
  </outline>
</glyph>
<glyph name="parenright" format="2">
  <advance width="175"/>
  <unicode hex="0029"/>
  <outline>
    <contour>
      <point x="130" y="43" type="line" smooth="yes"/>
      <point x="130" y="-4"/>
      <point x="90" y="-42"/>
      <point x="43" y="-42" type="curve" smooth="yes"/>
      <point x="6" y="-42" type="line"/>
      <point x="6" y="-32" type="line"/>
      <point x="43" y="-32" type="line" smooth="yes"/>
      <point x="53" y="-32"/>
      <point x="65" y="-28"/>
      <point x="65" y="-17" type="curve" smooth="yes"/>
      <point x="65" y="817" type="line" smooth="yes"/>
      <point x="65" y="828"/>
      <point x="53" y="832"/>
      <point x="43" y="832" type="curve" smooth="yes"/>
      <point x="6" y="832" type="line"/>
      <point x="6" y="842" type="line"/>
      <point x="43" y="842" type="line" smooth="yes"/>
      <point x="90" y="842"/>
      <point x="130" y="805"/>
      <point x="130" y="757" type="curve" smooth="yes"/>
    </contour>
  </outline>
</glyph>
<glyph name="asterisk" format="2">
  <advance width="249"/>
  <unicode hex="002A"/>
  <outline>
    <contour>
      <point x="235" y="702" type="line"/>
      <point x="175" y="680" type="line"/>
      <point x="204" y="622" type="line"/>
      <point x="146" y="650" type="line"/>
      <point x="124" y="590" type="line"/>
      <point x="103" y="650" type="line"/>
      <point x="46" y="622" type="line"/>
      <point x="73" y="680" type="line"/>
      <point x="13" y="702" type="line"/>
      <point x="72" y="723" type="line"/>
      <point x="45" y="780" type="line"/>
      <point x="103" y="752" type="line"/>
      <point x="124" y="812" type="line"/>
      <point x="146" y="752" type="line"/>
      <point x="204" y="780" type="line"/>
      <point x="175" y="723" type="line"/>
    </contour>
    <contour>
      <point x="206" y="702" type="line"/>
      <point x="162" y="717" type="line"/>
      <point x="183" y="760" type="line"/>
      <point x="140" y="740" type="line"/>
      <point x="124" y="783" type="line"/>
      <point x="108" y="739" type="line"/>
      <point x="66" y="759" type="line"/>
      <point x="86" y="717" type="line"/>
      <point x="43" y="702" type="line"/>
      <point x="87" y="685" type="line"/>
      <point x="66" y="643" type="line"/>
      <point x="108" y="663" type="line"/>
      <point x="124" y="620" type="line"/>
      <point x="140" y="663" type="line"/>
      <point x="183" y="643" type="line"/>
      <point x="162" y="685" type="line"/>
    </contour>
  </outline>
</glyph>
<glyph name="comma" format="2">
  <advance width="129"/>
  <unicode hex="002C"/>
  <outline>
    <contour>
      <point x="8" y="69" type="curve" smooth="yes"/>
      <point x="8" y="91"/>
      <point x="20" y="119"/>
      <point x="42" y="119" type="curve" smooth="yes"/>
      <point x="84" y="119"/>
      <point x="96" y="80"/>
      <point x="96" y="45" type="curve" smooth="yes"/>
      <point x="96" y="-23"/>
      <point x="62" y="-78"/>
      <point x="17" y="-120" type="curve" smooth="yes"/>
      <point x="13" y="-120"/>
      <point x="11" y="-117"/>
      <point x="9" y="-114" type="curve" smooth="yes"/>
      <point x="45" y="-75"/>
      <point x="48" y="-55"/>
      <point x="51" y="-13" type="curve"/>
      <point x="36" y="21"/>
      <point x="8" y="36"/>
    </contour>
  </outline>
</glyph>
<glyph name="period" format="2">
  <advance width="129"/>
  <unicode hex="002E"/>
  <outline>
    <contour>
      <point x="18" y="77" type="curve" smooth="yes"/>
      <point x="18" y="126"/>
      <point x="36" y="166"/>
      <point x="62" y="166" type="curve" smooth="yes"/>
      <point x="88" y="166"/>
      <point x="106" y="126"/>
      <point x="106" y="77" type="curve" smooth="yes"/>
      <point x="106" y="28"/>
      <point x="88" y="-12"/>
      <point x="62" y="-12" type="curve" smooth="yes"/>
      <point x="36" y="-12"/>
      <point x="18" y="28"/>
    </contour>
  </outline>
</glyph>
<glyph name="colon" format="2">
  <advance width="129"/>
  <unicode hex="003A"/>
  <outline>
    <contour>
      <point x="18" y="177" type="curve" smooth="yes"/>
      <point x="18" y="226"/>
      <point x="36" y="266"/>
      <point x="62" y="266" type="curve" smooth="yes"/>
      <point x="88" y="266"/>
      <point x="106" y="226"/>
      <point x="106" y="177" type="curve" smooth="yes"/>
      <point x="106" y="128"/>
      <point x="88" y="88"/>
      <point x="62" y="88" type="curve" smooth="yes"/>
      <point x="36" y="88"/>
      <point x="18" y="128"/>
    </contour>
    <contour>
      <point x="18" y="557" type="curve" smooth="yes"/>
      <point x="18" y="606"/>
      <point x="36" y="646"/>
      <point x="62" y="646" type="curve" smooth="yes"/>
      <point x="88" y="646"/>
      <point x="106" y="606"/>
      <point x="106" y="557" type="curve" smooth="yes"/>
      <point x="106" y="508"/>
      <point x="88" y="468"/>
      <point x="62" y="468" type="curve" smooth="yes"/>
      <point x="36" y="468"/>
      <point x="18" y="508"/>
    </contour>
  </outline>
</glyph>
<glyph name="semicolon" format="2">
  <advance width="129"/>
  <unicode hex="003B"/>
  <outline>
    <contour>
      <point x="18" y="159" type="curve" smooth="yes"/>
      <point x="18" y="181"/>
      <point x="30" y="209"/>
      <point x="52" y="209" type="curve" smooth="yes"/>
      <point x="94" y="209"/>
      <point x="106" y="170"/>
      <point x="106" y="135" type="curve" smooth="yes"/>
      <point x="106" y="67"/>
      <point x="72" y="12"/>
      <point x="27" y="-30" type="curve" smooth="yes"/>
      <point x="23" y="-30"/>
      <point x="21" y="-27"/>
      <point x="19" y="-24" type="curve" smooth="yes"/>
      <point x="55" y="15"/>
      <point x="58" y="35"/>
      <point x="61" y="77" type="curve"/>
      <point x="46" y="111"/>
      <point x="18" y="126"/>
    </contour>
    <contour>
      <point x="18" y="507" type="curve" smooth="yes"/>
      <point x="18" y="556"/>
      <point x="36" y="596"/>
      <point x="62" y="596" type="curve" smooth="yes"/>
      <point x="88" y="596"/>
      <point x="106" y="556"/>
      <point x="106" y="507" type="curve" smooth="yes"/>
      <point x="106" y="458"/>
      <point x="88" y="418"/>
      <point x="62" y="418" type="curve" smooth="yes"/>
      <point x="36" y="418"/>
      <point x="18" y="458"/>
    </contour>
  </outline>
</glyph>
<glyph name="bracketleft" format="2">
  <advance width="175"/>
  <unicode hex="005B"/>
  <outline>
    <contour>
      <point x="45" y="842" type="line"/>
      <point x="169" y="842" type="line"/>
      <point x="169" y="832" type="line"/>
      <point x="110" y="832" type="line"/>
      <point x="110" y="-32" type="line"/>
      <point x="169" y="-32" type="line"/>
      <point x="169" y="-42" type="line"/>
      <point x="45" y="-42" type="line"/>
    </contour>
  </outline>
</glyph>
<glyph name="bracketright" format="2">
  <advance width="175"/>
  <unicode hex="005D"/>
  <outline>
    <contour>
      <point x="130" y="-42" type="line"/>
      <point x="6" y="-42" type="line"/>
      <point x="6" y="-32" type="line"/>
      <point x="65" y="-32" type="line"/>
      <point x="65" y="832" type="line"/>
      <point x="6" y="832" type="line"/>
      <point x="6" y="842" type="line"/>
      <point x="130" y="842" type="line"/>
    </contour>
  </outline>
</glyph>
<glyph name="guillemotleft" format="2">
  <advance width="230"/>
  <unicode hex="00AB"/>
  <outline>
    <contour>
      <point x="125" y="147" type="line"/>
      <point x="119" y="147" type="line"/>
      <point x="28" y="398" type="line"/>
      <point x="28" y="402" type="line"/>
      <point x="119" y="649" type="line"/>
      <point x="125" y="649" type="line"/>
      <point x="81" y="400" type="line"/>
    </contour>
    <contour>
      <point x="205" y="147" type="line"/>
      <point x="199" y="147" type="line"/>
      <point x="108" y="398" type="line"/>
      <point x="108" y="402" type="line"/>
      <point x="199" y="649" type="line"/>
      <point x="205" y="649" type="line"/>
      <point x="161" y="400" type="line"/>
    </contour>
  </outline>
</glyph>
<glyph name="sfthyphen" format="2">
  <advance width="215"/>
  <unicode hex="00AD"/>
  <outline>
    <contour>
      <point x="190" y="380" type="line"/>
      <point x="25" y="380" type="line"/>
      <point x="25" y="420" type="line"/>
      <point x="190" y="420" type="line"/>
    </contour>
  </outline>
</glyph>
<glyph name="paragraph" format="2">
  <advance width="265"/>
  <unicode hex="00B6"/>
  <outline>
    <contour>
      <point x="250" y="0" type="line"/>
      <point x="138" y="0" type="line"/>
      <point x="138" y="10" type="line"/>
      <point x="155" y="10" type="line"/>
      <point x="155" y="790" type="line"/>
      <point x="132" y="790" type="line" smooth="yes"/>
      <point x="121" y="790"/>
      <point x="110" y="786"/>
      <point x="110" y="775" type="curve" smooth="yes"/>
      <point x="110" y="10" type="line"/>
      <point x="127" y="10" type="line"/>
      <point x="127" y="0" type="line"/>
      <point x="80" y="0" type="line"/>
      <point x="80" y="10" type="line"/>
      <point x="100" y="10" type="line"/>
      <point x="100" y="130" type="line"/>
      <point x="60" y="135"/>
      <point x="45" y="171"/>
      <point x="45" y="215" type="curve" smooth="yes"/>
      <point x="45" y="715" type="line" smooth="yes"/>
      <point x="45" y="762"/>
      <point x="85" y="800"/>
      <point x="132" y="800" type="curve" smooth="yes"/>
      <point x="250" y="800" type="line"/>
      <point x="250" y="790" type="line"/>
      <point x="220" y="790" type="line"/>
      <point x="220" y="10" type="line"/>
      <point x="250" y="10" type="line"/>
    </contour>
  </outline>
</glyph>
<glyph name="guillemotright" format="2">
  <advance width="230"/>
  <unicode hex="00BB"/>
  <outline>
    <contour>
      <point x="202" y="398" type="line"/>
      <point x="111" y="147" type="line"/>
      <point x="105" y="147" type="line"/>
      <point x="149" y="400" type="line"/>
      <point x="105" y="649" type="line"/>
      <point x="111" y="649" type="line"/>
      <point x="202" y="402" type="line"/>
    </contour>
    <contour>
      <point x="122" y="398" type="line"/>
      <point x="31" y="147" type="line"/>
      <point x="25" y="147" type="line"/>
      <point x="69" y="400" type="line"/>
      <point x="25" y="649" type="line"/>
      <point x="31" y="649" type="line"/>
      <point x="122" y="402" type="line"/>
    </contour>
  </outline>
</glyph>
<glyph name="gravecomb" format="2">
  <advance width="1"/>
  <unicode hex="0300"/>
  <anchor x="-138" y="858" name="_Stack"/>
  <anchor x="-138" y="966" name="Stack"/>
  <anchor x="-138" y="858" name="_Diacritic"/>
  <outline>
    <contour>
      <point x="-194" y="930" type="line"/>
      <point x="-69" y="880" type="line"/>
      <point x="-69" y="859" type="line"/>
      <point x="-194" y="909" type="line"/>
    </contour>
  </outline>
</glyph>
<glyph name="acutecomb" format="2">
  <advance width="1"/>
  <unicode hex="0301"/>
  <anchor x="-130" y="998" name="Stack"/>
  <anchor x="-130" y="836" name="_Stack"/>
  <anchor x="-130" y="837" name="_Diacritic"/>
  <outline>
    <contour>
      <point x="-73" y="944" type="line"/>
      <point x="-131" y="838" type="line"/>
      <point x="-148" y="846" type="line"/>
      <point x="-90" y="952" type="line"/>
    </contour>
  </outline>
</glyph>
<glyph name="uni0306" format="2">
  <advance width="0"/>
  <unicode hex="0306"/>
  <anchor x="-137" y="916" name="Stack"/>
  <anchor x="-137" y="808" name="_Stack"/>
  <anchor x="-138" y="807" name="_Diacritic"/>
  <outline>
    <contour>
      <point x="-135" y="807" type="curve" smooth="yes"/>
      <point x="-168" y="807"/>
      <point x="-195" y="838"/>
      <point x="-195" y="864" type="curve" smooth="yes"/>
      <point x="-195" y="872" type="line"/>
      <point x="-152" y="872" type="line"/>
      <point x="-152" y="826" type="line" smooth="yes"/>
      <point x="-152" y="817"/>
      <point x="-143" y="815"/>
      <point x="-135" y="815" type="curve" smooth="yes"/>
      <point x="-127" y="815"/>
      <point x="-118" y="817"/>
      <point x="-118" y="826" type="curve" smooth="yes"/>
      <point x="-118" y="872" type="line"/>
      <point x="-75" y="872" type="line"/>
      <point x="-75" y="864" type="line" smooth="yes"/>
      <point x="-75" y="838"/>
      <point x="-102" y="807"/>
    </contour>
  </outline>
</glyph>
<glyph name="uni0308" format="2">
  <advance width="0"/>
  <unicode hex="0308"/>
  <anchor x="-146" y="997" name="Stack"/>
  <anchor x="-139" y="864" name="_Stack"/>
  <anchor x="-140" y="863" name="_Diacritic"/>
  <outline>
    <contour>
      <point x="-166" y="870" type="line"/>
      <point x="-166" y="864" type="line"/>
      <point x="-207" y="864" type="line"/>
      <point x="-253" y="941" type="line"/>
      <point x="-253" y="947" type="line"/>
      <point x="-212" y="947" type="line"/>
    </contour>
    <contour>
      <point x="-70" y="870" type="line"/>
      <point x="-70" y="864" type="line"/>
      <point x="-111" y="864" type="line"/>
      <point x="-157" y="941" type="line"/>
      <point x="-157" y="947" type="line"/>
      <point x="-116" y="947" type="line"/>
    </contour>
  </outline>
</glyph>
<glyph name="uni030F" format="2">
  <advance width="0"/>
  <unicode hex="030F"/>
  <anchor x="-133" y="968" name="Stack"/>
  <anchor x="-133" y="835" name="_Stack"/>
  <anchor x="-133" y="837" name="_Diacritic"/>
  <outline>
    <contour>
      <point x="-157" y="844" type="line"/>
      <point x="-157" y="838" type="line"/>
      <point x="-198" y="838" type="line"/>
      <point x="-244" y="915" type="line"/>
      <point x="-244" y="921" type="line"/>
      <point x="-203" y="921" type="line"/>
    </contour>
    <contour>
      <point x="-61" y="844" type="line"/>
      <point x="-61" y="838" type="line"/>
      <point x="-102" y="838" type="line"/>
      <point x="-148" y="915" type="line"/>
      <point x="-148" y="921" type="line"/>
      <point x="-107" y="921" type="line"/>
    </contour>
  </outline>
</glyph>
<glyph name="uni0311" format="2">
  <advance width="1"/>
  <unicode hex="0311"/>
  <anchor x="-138" y="974" name="Stack"/>
  <anchor x="-138" y="839" name="_Stack"/>
  <anchor x="-138" y="839" name="_Diacritic"/>
  <outline>
    <contour>
      <point x="-71" y="854" type="curve" smooth="yes"/>
      <point x="-71" y="839" type="line"/>
      <point x="-90" y="839" type="line"/>
      <point x="-90" y="854" type="line" smooth="yes"/>
      <point x="-90" y="879"/>
      <point x="-111" y="900"/>
      <point x="-136" y="900" type="curve" smooth="yes"/>
      <point x="-161" y="900"/>
      <point x="-182" y="879"/>
      <point x="-182" y="854" type="curve" smooth="yes"/>
      <point x="-182" y="839" type="line"/>
      <point x="-201" y="839" type="line"/>
      <point x="-201" y="854" type="line" smooth="yes"/>
      <point x="-201" y="890"/>
      <point x="-173" y="919"/>
      <point x="-136" y="919" type="curve" smooth="yes"/>
      <point x="-99" y="919"/>
      <point x="-71" y="890"/>
    </contour>
  </outline>
</glyph>
<glyph name="uni033E" format="2">
  <advance width="1"/>
  <unicode hex="033E"/>
  <anchor x="-120" y="839" name="_Yerik"/>
  <anchor x="-119" y="1018" name="Stack"/>
  <anchor x="-119" y="839" name="_Stack"/>
  <outline>
    <contour>
      <point x="-53" y="878" type="line"/>
      <point x="-120" y="843" type="line"/>
      <point x="-126" y="854" type="line"/>
      <point x="-93" y="870" type="line"/>
      <point x="-113" y="938" type="line"/>
      <point x="-49" y="971" type="line"/>
      <point x="-43" y="960" type="line"/>
      <point x="-72" y="944" type="line"/>
    </contour>
  </outline>
</glyph>
<glyph name="uni0400" format="2">
  <advance width="245"/>
  <unicode hex="0400"/>
  <anchor x="122" y="938" name="Yerik"/>
  <anchor x="122" y="938" name="Diacritic"/>
  <outline>
    <contour>
      <point x="107" y="491" type="line"/>
      <point x="122" y="512"/>
      <point x="141" y="519"/>
      <point x="160" y="519" type="curve" smooth="yes"/>
      <point x="181" y="519"/>
      <point x="212" y="505"/>
      <point x="212" y="458" type="curve" smooth="yes"/>
      <point x="212" y="435" type="line"/>
      <point x="145" y="435" type="line"/>
      <point x="145" y="474" type="line" smooth="yes"/>
      <point x="145" y="485"/>
      <point x="142" y="494"/>
      <point x="131" y="494" type="curve" smooth="yes"/>
      <point x="124" y="494"/>
      <point x="115" y="484"/>
      <point x="110" y="476" type="curve" smooth="yes"/>
      <point x="100" y="460" type="line"/>
      <point x="100" y="260" type="line" smooth="yes"/>
      <point x="100" y="198"/>
      <point x="115" y="154"/>
      <point x="136" y="115" type="curve" smooth="yes"/>
      <point x="140" y="107"/>
      <point x="143" y="100"/>
      <point x="145" y="93" type="curve"/>
      <point x="145" y="345" type="line"/>
      <point x="115" y="345" type="line"/>
      <point x="115" y="355" type="line"/>
      <point x="240" y="355" type="line"/>
      <point x="240" y="345" type="line"/>
      <point x="214" y="345" type="line"/>
      <point x="213" y="294"/>
      <point x="211" y="196"/>
      <point x="188" y="114" type="curve" smooth="yes"/>
      <point x="172" y="60"/>
      <point x="142" y="-12"/>
      <point x="96" y="-12" type="curve" smooth="yes"/>
      <point x="59" y="-12"/>
      <point x="30" y="39"/>
      <point x="30" y="76" type="curve" smooth="yes"/>
      <point x="30" y="102"/>
      <point x="44" y="138"/>
      <point x="78" y="138" type="curve" smooth="yes"/>
      <point x="97" y="138"/>
      <point x="103" y="121"/>
      <point x="103" y="106" type="curve" smooth="yes"/>
      <point x="103" y="91"/>
      <point x="99" y="79"/>
      <point x="88" y="61" type="curve" smooth="yes"/>
      <point x="80" y="47"/>
      <point x="73" y="34"/>
      <point x="73" y="18" type="curve" smooth="yes"/>
      <point x="73" y="12"/>
      <point x="74" y="9"/>
      <point x="78" y="3" type="curve" smooth="yes"/>
      <point x="84" y="0"/>
      <point x="90" y="-2"/>
      <point x="96" y="-2" type="curve" smooth="yes"/>
      <point x="105" y="-2"/>
      <point x="114" y="2"/>
      <point x="122" y="8" type="curve" smooth="yes"/>
      <point x="136" y="24"/>
      <point x="141" y="46"/>
      <point x="142" y="55" type="curve" smooth="yes"/>
      <point x="140" y="73"/>
      <point x="137" y="91"/>
      <point x="127" y="109" type="curve" smooth="yes"/>
      <point x="104" y="149"/>
      <point x="71" y="178"/>
      <point x="57" y="205" type="curve" smooth="yes"/>
      <point x="44" y="228"/>
      <point x="35" y="250"/>
      <point x="35" y="287" type="curve" smooth="yes"/>
      <point x="35" y="727" type="line" smooth="yes"/>
      <point x="35" y="774"/>
      <point x="74" y="812"/>
      <point x="122" y="812" type="curve" smooth="yes"/>
      <point x="169" y="812"/>
      <point x="210" y="774"/>
      <point x="210" y="727" type="curve" smooth="yes"/>
      <point x="210" y="595" type="line"/>
      <point x="240" y="595" type="line"/>
      <point x="240" y="585" type="line"/>
      <point x="115" y="585" type="line"/>
      <point x="115" y="595" type="line"/>
      <point x="145" y="595" type="line"/>
      <point x="145" y="787" type="line" smooth="yes"/>
      <point x="145" y="798"/>
      <point x="134" y="803"/>
      <point x="122" y="803" type="curve" smooth="yes"/>
      <point x="111" y="803"/>
      <point x="100" y="798"/>
      <point x="100" y="787" type="curve" smooth="yes"/>
      <point x="100" y="480" type="line"/>
    </contour>
    <contour>
      <point x="65" y="930" type="line"/>
      <point x="190" y="880" type="line"/>
      <point x="190" y="859" type="line"/>
      <point x="65" y="909" type="line"/>
    </contour>
  </outline>
</glyph>
<glyph name="uni0406" format="2">
  <advance width="135"/>
  <unicode hex="0406"/>
  <anchor x="66" y="858" name="Yerik"/>
  <anchor x="66" y="858" name="Diacritic"/>
  <outline>
    <contour>
      <point x="130" y="0" type="line"/>
      <point x="5" y="0" type="line"/>
      <point x="5" y="10" type="line"/>
      <point x="35" y="10" type="line"/>
      <point x="35" y="790" type="line"/>
      <point x="5" y="790" type="line"/>
      <point x="5" y="800" type="line"/>
      <point x="130" y="800" type="line"/>
      <point x="130" y="790" type="line"/>
      <point x="100" y="790" type="line"/>
      <point x="100" y="10" type="line"/>
      <point x="130" y="10" type="line"/>
    </contour>
  </outline>
</glyph>
<glyph name="uni0407" format="2">
  <advance width="135"/>
  <unicode hex="0407"/>
  <anchor x="63" y="998" name="Yerik"/>
  <anchor x="64" y="998" name="Diacritic"/>
  <outline>
    <contour>
      <point x="130" y="0" type="line"/>
      <point x="5" y="0" type="line"/>
      <point x="5" y="10" type="line"/>
      <point x="35" y="10" type="line"/>
      <point x="35" y="790" type="line"/>
      <point x="5" y="790" type="line"/>
      <point x="5" y="800" type="line"/>
      <point x="130" y="800" type="line"/>
      <point x="130" y="790" type="line"/>
      <point x="100" y="790" type="line"/>
      <point x="100" y="10" type="line"/>
      <point x="130" y="10" type="line"/>
    </contour>
    <contour>
      <point x="41" y="870" type="line"/>
      <point x="41" y="864" type="line"/>
      <point x="0" y="864" type="line"/>
      <point x="-46" y="941" type="line"/>
      <point x="-46" y="947" type="line"/>
      <point x="-5" y="947" type="line"/>
    </contour>
    <contour>
      <point x="137" y="870" type="line"/>
      <point x="137" y="864" type="line"/>
      <point x="96" y="864" type="line"/>
      <point x="50" y="941" type="line"/>
      <point x="50" y="947" type="line"/>
      <point x="91" y="947" type="line"/>
    </contour>
  </outline>
</glyph>
<glyph name="afii10017" format="2">
  <advance width="245"/>
  <unicode hex="0410"/>
  <anchor x="178" y="858" name="Yerik"/>
  <anchor x="140" y="858" name="Diacritic"/>
  <outline>
    <contour>
      <point x="104" y="793" type="curve" smooth="yes"/>
      <point x="91" y="793"/>
      <point x="84" y="783"/>
      <point x="84" y="773" type="curve" smooth="yes"/>
      <point x="84" y="761"/>
      <point x="88" y="751"/>
      <point x="93" y="741" type="curve" smooth="yes"/>
      <point x="107" y="711"/>
      <point x="126" y="680"/>
      <point x="126" y="639" type="curve" smooth="yes"/>
      <point x="126" y="575"/>
      <point x="88" y="526"/>
      <point x="63" y="490" type="curve" smooth="yes"/>
      <point x="59" y="484"/>
      <point x="51" y="490"/>
      <point x="55" y="496" type="curve" smooth="yes"/>
      <point x="70" y="516"/>
      <point x="84" y="532"/>
      <point x="84" y="571" type="curve" smooth="yes"/>
      <point x="84" y="591"/>
      <point x="82" y="598"/>
      <point x="74" y="616" type="curve" smooth="yes"/>
      <point x="61" y="647"/>
      <point x="43" y="686"/>
      <point x="43" y="730" type="curve" smooth="yes"/>
      <point x="43" y="767"/>
      <point x="71" y="803"/>
      <point x="101" y="803" type="curve" smooth="yes"/>
      <point x="122" y="803"/>
      <point x="135" y="785"/>
      <point x="143" y="765" type="curve" smooth="yes"/>
      <point x="143" y="763"/>
      <point x="144" y="761"/>
      <point x="145" y="759" type="curve"/>
      <point x="145" y="790" type="line"/>
      <point x="130" y="790" type="line"/>
      <point x="130" y="800" type="line"/>
      <point x="240" y="800" type="line"/>
      <point x="240" y="790" type="line"/>
      <point x="210" y="790" type="line"/>
      <point x="210" y="10" type="line"/>
      <point x="240" y="10" type="line"/>
      <point x="240" y="0" type="line"/>
      <point x="128" y="0" type="line"/>
      <point x="128" y="10" type="line"/>
      <point x="145" y="10" type="line"/>
      <point x="145" y="375" type="line"/>
      <point x="134" y="362"/>
      <point x="121" y="347"/>
      <point x="114" y="338" type="curve" smooth="yes"/>
      <point x="101" y="323"/>
      <point x="100" y="303"/>
      <point x="100" y="283" type="curve" smooth="yes"/>
      <point x="100" y="278"/>
      <point x="100" y="273"/>
      <point x="100" y="268" type="curve" smooth="yes"/>
      <point x="100" y="10" type="line"/>
      <point x="117" y="10" type="line"/>
      <point x="117" y="0" type="line"/>
      <point x="5" y="0" type="line"/>
      <point x="5" y="10" type="line"/>
      <point x="35" y="10" type="line"/>
      <point x="35" y="212" type="line" smooth="yes"/>
      <point x="35" y="265"/>
      <point x="71" y="306"/>
      <point x="104" y="342" type="curve"/>
      <point x="91" y="342" type="line" smooth="yes"/>
      <point x="59" y="342"/>
      <point x="47" y="363"/>
      <point x="46" y="383" type="curve" smooth="yes"/>
      <point x="46" y="385"/>
      <point x="46" y="387"/>
      <point x="46" y="389" type="curve" smooth="yes"/>
      <point x="46" y="420"/>
      <point x="53" y="435"/>
      <point x="71" y="459" type="curve" smooth="yes"/>
      <point x="89" y="484"/>
      <point x="100" y="496"/>
      <point x="117" y="525" type="curve" smooth="yes"/>
      <point x="130" y="547"/>
      <point x="139" y="572"/>
      <point x="145" y="595" type="curve"/>
      <point x="145" y="719" type="line"/>
      <point x="140" y="741"/>
      <point x="128" y="793"/>
    </contour>
    <contour>
      <point x="125" y="519" type="curve" smooth="yes"/>
      <point x="108" y="490"/>
      <point x="100" y="466"/>
      <point x="100" y="433" type="curve" smooth="yes"/>
      <point x="100" y="368" type="line" smooth="yes"/>
      <point x="100" y="360"/>
      <point x="102" y="352"/>
      <point x="109" y="352" type="curve" smooth="yes"/>
      <point x="113" y="352" type="line"/>
      <point x="125" y="365"/>
      <point x="136" y="379"/>
      <point x="145" y="390" type="curve"/>
      <point x="145" y="559" type="line"/>
      <point x="140" y="545"/>
      <point x="133" y="532"/>
    </contour>
  </outline>
</glyph>
<glyph name="afii10018" format="2">
  <advance width="245"/>
  <unicode hex="0411"/>
  <anchor x="182" y="858" name="Yerik"/>
  <anchor x="122" y="858" name="Diacritic"/>
  <outline>
    <contour>
      <point x="5" y="0" type="line"/>
      <point x="5" y="10" type="line"/>
      <point x="35" y="10" type="line"/>
      <point x="35" y="790" type="line"/>
      <point x="5" y="790" type="line"/>
      <point x="5" y="800" type="line"/>
      <point x="193" y="800" type="line"/>
      <point x="194" y="797"/>
      <point x="194" y="794"/>
      <point x="193" y="790" type="curve" smooth="yes"/>
      <point x="189" y="768"/>
      <point x="181" y="721"/>
      <point x="181" y="685" type="curve" smooth="yes"/>
      <point x="181" y="631"/>
      <point x="184" y="580"/>
      <point x="201" y="535" type="curve" smooth="yes"/>
      <point x="202" y="532"/>
      <point x="195" y="529"/>
      <point x="194" y="532" type="curve" smooth="yes"/>
      <point x="192" y="537"/>
      <point x="185" y="550"/>
      <point x="181" y="561" type="curve" smooth="yes"/>
      <point x="162" y="610"/>
      <point x="153" y="631"/>
      <point x="141" y="683" type="curve" smooth="yes"/>
      <point x="132" y="719"/>
      <point x="127" y="769"/>
      <point x="127" y="790" type="curve"/>
      <point x="100" y="790" type="line"/>
      <point x="100" y="510" type="line"/>
      <point x="102" y="479"/>
      <point x="112" y="457"/>
      <point x="136" y="433" type="curve" smooth="yes"/>
      <point x="158" y="410"/>
      <point x="184" y="399"/>
      <point x="210" y="394" type="curve"/>
      <point x="210" y="10" type="line"/>
      <point x="240" y="10" type="line"/>
      <point x="240" y="0" type="line"/>
    </contour>
    <contour>
      <point x="100" y="464" type="curve"/>
      <point x="100" y="10" type="line"/>
      <point x="145" y="10" type="line"/>
      <point x="145" y="410" type="line"/>
      <point x="127" y="425"/>
      <point x="109" y="444"/>
    </contour>
  </outline>
</glyph>
<glyph name="afii10020" format="2">
  <advance width="196"/>
  <unicode hex="0413"/>
  <anchor x="152" y="858" name="Yerik"/>
  <anchor x="102" y="858" name="Diacritic"/>
  <outline>
    <contour>
      <point x="179" y="530" type="curve" smooth="yes"/>
      <point x="180" y="527"/>
      <point x="174" y="523"/>
      <point x="172" y="527" type="curve" smooth="yes"/>
      <point x="168" y="534"/>
      <point x="162" y="547"/>
      <point x="159" y="557" type="curve" smooth="yes"/>
      <point x="139" y="615"/>
      <point x="114" y="716"/>
      <point x="114" y="790" type="curve"/>
      <point x="100" y="790" type="line"/>
      <point x="100" y="10" type="line"/>
      <point x="130" y="10" type="line"/>
      <point x="130" y="0" type="line"/>
      <point x="5" y="0" type="line"/>
      <point x="5" y="10" type="line"/>
      <point x="35" y="10" type="line"/>
      <point x="35" y="790" type="line"/>
      <point x="5" y="790" type="line"/>
      <point x="5" y="800" type="line"/>
      <point x="178" y="800" type="line"/>
      <point x="179" y="797"/>
      <point x="180" y="794"/>
      <point x="179" y="790" type="curve" smooth="yes"/>
      <point x="169" y="754"/>
      <point x="163" y="712"/>
      <point x="163" y="658" type="curve" smooth="yes"/>
      <point x="163" y="610"/>
      <point x="165" y="564"/>
    </contour>
  </outline>
</glyph>
<glyph name="afii10021" format="2">
  <advance width="240"/>
  <unicode hex="0414"/>
  <anchor x="182" y="858" name="Yerik"/>
  <anchor x="122" y="858" name="Diacritic"/>
  <outline>
    <contour>
      <point x="96" y="793" type="curve" smooth="yes"/>
      <point x="83" y="793"/>
      <point x="77" y="783"/>
      <point x="77" y="773" type="curve" smooth="yes"/>
      <point x="77" y="761"/>
      <point x="81" y="751"/>
      <point x="86" y="741" type="curve" smooth="yes"/>
      <point x="95" y="721"/>
      <point x="99" y="716"/>
      <point x="106" y="696" type="curve" smooth="yes"/>
      <point x="114" y="674"/>
      <point x="121" y="662"/>
      <point x="121" y="639" type="curve" smooth="yes"/>
      <point x="121" y="610"/>
      <point x="119" y="586"/>
      <point x="108" y="561" type="curve" smooth="yes"/>
      <point x="92" y="526"/>
      <point x="78" y="510"/>
      <point x="61" y="485" type="curve" smooth="yes"/>
      <point x="57" y="479"/>
      <point x="49" y="485"/>
      <point x="53" y="491" type="curve" smooth="yes"/>
      <point x="68" y="511"/>
      <point x="82" y="527"/>
      <point x="82" y="566" type="curve" smooth="yes"/>
      <point x="82" y="586"/>
      <point x="77" y="598"/>
      <point x="69" y="616" type="curve" smooth="yes"/>
      <point x="64" y="628"/>
      <point x="50" y="657"/>
      <point x="44" y="673" type="curve" smooth="yes"/>
      <point x="37" y="693"/>
      <point x="36" y="707"/>
      <point x="36" y="730" type="curve" smooth="yes"/>
      <point x="36" y="767"/>
      <point x="63" y="803"/>
      <point x="93" y="803" type="curve" smooth="yes"/>
      <point x="112" y="803"/>
      <point x="126" y="785"/>
      <point x="134" y="765" type="curve" smooth="yes"/>
      <point x="134" y="763"/>
      <point x="135" y="761"/>
      <point x="136" y="759" type="curve"/>
      <point x="136" y="790" type="line"/>
      <point x="121" y="790" type="line"/>
      <point x="121" y="800" type="line"/>
      <point x="231" y="800" type="line"/>
      <point x="231" y="790" type="line"/>
      <point x="201" y="790" type="line"/>
      <point x="201" y="10" type="line"/>
      <point x="231" y="10" type="line"/>
      <point x="232" y="7"/>
      <point x="232" y="4"/>
      <point x="231" y="0" type="curve" smooth="yes"/>
      <point x="227" y="-22"/>
      <point x="219" y="-69"/>
      <point x="219" y="-105" type="curve" smooth="yes"/>
      <point x="219" y="-159"/>
      <point x="222" y="-210"/>
      <point x="239" y="-255" type="curve" smooth="yes"/>
      <point x="240" y="-258"/>
      <point x="233" y="-261"/>
      <point x="232" y="-258" type="curve" smooth="yes"/>
      <point x="230" y="-253"/>
      <point x="223" y="-240"/>
      <point x="219" y="-229" type="curve" smooth="yes"/>
      <point x="200" y="-180"/>
      <point x="191" y="-159"/>
      <point x="179" y="-107" type="curve" smooth="yes"/>
      <point x="170" y="-70"/>
      <point x="165" y="-21"/>
      <point x="165" y="0" type="curve"/>
      <point x="75" y="0" type="line"/>
      <point x="74" y="-21"/>
      <point x="69" y="-70"/>
      <point x="61" y="-107" type="curve" smooth="yes"/>
      <point x="49" y="-159"/>
      <point x="40" y="-180"/>
      <point x="21" y="-229" type="curve" smooth="yes"/>
      <point x="17" y="-240"/>
      <point x="10" y="-253"/>
      <point x="8" y="-258" type="curve" smooth="yes"/>
      <point x="7" y="-261"/>
      <point x="0" y="-258"/>
      <point x="1" y="-255" type="curve" smooth="yes"/>
      <point x="18" y="-209"/>
      <point x="21" y="-159"/>
      <point x="21" y="-105" type="curve" smooth="yes"/>
      <point x="21" y="-69"/>
      <point x="13" y="-22"/>
      <point x="9" y="0" type="curve" smooth="yes"/>
      <point x="8" y="4"/>
      <point x="8" y="7"/>
      <point x="9" y="10" type="curve"/>
      <point x="62" y="10" type="line"/>
      <point x="73" y="29"/>
      <point x="78" y="98"/>
      <point x="78" y="139" type="curve" smooth="yes"/>
      <point x="78" y="187"/>
      <point x="80" y="289"/>
      <point x="82" y="322" type="curve" smooth="yes"/>
      <point x="85" y="365"/>
      <point x="87" y="402"/>
      <point x="96" y="433" type="curve" smooth="yes"/>
      <point x="104" y="462"/>
      <point x="111" y="475"/>
      <point x="119" y="504" type="curve" smooth="yes"/>
      <point x="126" y="531"/>
      <point x="132" y="557"/>
      <point x="136" y="582" type="curve"/>
      <point x="136" y="718" type="line"/>
      <point x="131" y="741"/>
      <point x="120" y="793"/>
    </contour>
    <contour>
      <point x="106" y="431" type="curve" smooth="yes"/>
      <point x="97" y="400"/>
      <point x="95" y="363"/>
      <point x="92" y="322" type="curve" smooth="yes"/>
      <point x="90" y="289"/>
      <point x="88" y="187"/>
      <point x="88" y="139" type="curve" smooth="yes"/>
      <point x="88" y="100"/>
      <point x="82" y="36"/>
      <point x="73" y="10" type="curve"/>
      <point x="136" y="10" type="line"/>
      <point x="136" y="529" type="line"/>
      <point x="128" y="491"/>
      <point x="116" y="466"/>
    </contour>
  </outline>
</glyph>
<glyph name="afii10025" format="2">
  <advance width="245"/>
  <unicode hex="0417"/>
  <anchor x="182" y="858" name="Yerik"/>
  <anchor x="122" y="858" name="Diacritic"/>
  <outline>
    <contour>
      <point x="210" y="727" type="curve" smooth="yes"/>
      <point x="210" y="580" type="line" smooth="yes"/>
      <point x="210" y="544"/>
      <point x="187" y="519"/>
      <point x="155" y="509" type="curve"/>
      <point x="187" y="500"/>
      <point x="210" y="475"/>
      <point x="210" y="439" type="curve" smooth="yes"/>
      <point x="210" y="287" type="line" smooth="yes"/>
      <point x="210" y="250"/>
      <point x="201" y="228"/>
      <point x="188" y="205" type="curve" smooth="yes"/>
      <point x="174" y="178"/>
      <point x="141" y="149"/>
      <point x="118" y="109" type="curve" smooth="yes"/>
      <point x="108" y="91"/>
      <point x="105" y="73"/>
      <point x="103" y="55" type="curve" smooth="yes"/>
      <point x="104" y="46"/>
      <point x="109" y="24"/>
      <point x="123" y="8" type="curve" smooth="yes"/>
      <point x="131" y="2"/>
      <point x="140" y="-2"/>
      <point x="149" y="-2" type="curve" smooth="yes"/>
      <point x="155" y="-2"/>
      <point x="161" y="0"/>
      <point x="167" y="3" type="curve" smooth="yes"/>
      <point x="171" y="9"/>
      <point x="172" y="12"/>
      <point x="172" y="18" type="curve" smooth="yes"/>
      <point x="172" y="34"/>
      <point x="165" y="47"/>
      <point x="157" y="61" type="curve" smooth="yes"/>
      <point x="146" y="79"/>
      <point x="142" y="91"/>
      <point x="142" y="106" type="curve" smooth="yes"/>
      <point x="142" y="121"/>
      <point x="148" y="138"/>
      <point x="167" y="138" type="curve" smooth="yes"/>
      <point x="201" y="138"/>
      <point x="215" y="102"/>
      <point x="215" y="76" type="curve" smooth="yes"/>
      <point x="215" y="39"/>
      <point x="186" y="-12"/>
      <point x="149" y="-12" type="curve" smooth="yes"/>
      <point x="103" y="-12"/>
      <point x="73" y="60"/>
      <point x="57" y="114" type="curve" smooth="yes"/>
      <point x="33" y="196"/>
      <point x="32" y="294"/>
      <point x="31" y="345" type="curve"/>
      <point x="5" y="345" type="line"/>
      <point x="5" y="355" type="line"/>
      <point x="130" y="355" type="line"/>
      <point x="130" y="345" type="line"/>
      <point x="100" y="345" type="line"/>
      <point x="100" y="93" type="line"/>
      <point x="102" y="100"/>
      <point x="105" y="107"/>
      <point x="109" y="115" type="curve" smooth="yes"/>
      <point x="130" y="154"/>
      <point x="145" y="198"/>
      <point x="145" y="260" type="curve" smooth="yes"/>
      <point x="145" y="489" type="line" smooth="yes"/>
      <point x="145" y="499"/>
      <point x="136" y="504"/>
      <point x="126" y="505" type="curve"/>
      <point x="123" y="505" type="line" smooth="yes"/>
      <point x="111" y="505"/>
      <point x="100" y="500"/>
      <point x="100" y="489" type="curve" smooth="yes"/>
      <point x="100" y="422" type="line"/>
      <point x="33" y="422" type="line"/>
      <point x="33" y="439" type="line" smooth="yes"/>
      <point x="33" y="486"/>
      <point x="76" y="514"/>
      <point x="123" y="514" type="curve" smooth="yes"/>
      <point x="126" y="514" type="line"/>
      <point x="136" y="515"/>
      <point x="145" y="520"/>
      <point x="145" y="530" type="curve" smooth="yes"/>
      <point x="145" y="787" type="line" smooth="yes"/>
      <point x="145" y="798"/>
      <point x="134" y="803"/>
      <point x="123" y="803" type="curve" smooth="yes"/>
      <point x="111" y="803"/>
      <point x="100" y="798"/>
      <point x="100" y="787" type="curve" smooth="yes"/>
      <point x="100" y="595" type="line"/>
      <point x="130" y="595" type="line"/>
      <point x="130" y="585" type="line"/>
      <point x="5" y="585" type="line"/>
      <point x="5" y="595" type="line"/>
      <point x="35" y="595" type="line"/>
      <point x="35" y="727" type="line" smooth="yes"/>
      <point x="35" y="774"/>
      <point x="76" y="812"/>
      <point x="123" y="812" type="curve" smooth="yes"/>
      <point x="171" y="812"/>
      <point x="210" y="774"/>
    </contour>
  </outline>
</glyph>
<glyph name="afii10028" format="2">
  <advance width="245"/>
  <unicode hex="041A"/>
  <anchor x="182" y="858" name="Yerik"/>
  <anchor x="122" y="858" name="Diacritic"/>
  <outline>
    <contour>
      <point x="240" y="0" type="line"/>
      <point x="128" y="0" type="line"/>
      <point x="128" y="10" type="line"/>
      <point x="145" y="10" type="line"/>
      <point x="145" y="393" type="line" smooth="yes"/>
      <point x="145" y="405"/>
      <point x="136" y="409"/>
      <point x="126" y="409" type="curve" smooth="yes"/>
      <point x="100" y="409" type="line"/>
      <point x="100" y="10" type="line"/>
      <point x="117" y="10" type="line"/>
      <point x="117" y="0" type="line"/>
      <point x="5" y="0" type="line"/>
      <point x="5" y="10" type="line"/>
      <point x="35" y="10" type="line"/>
      <point x="35" y="790" type="line"/>
      <point x="5" y="790" type="line"/>
      <point x="5" y="800" type="line"/>
      <point x="130" y="800" type="line"/>
      <point x="130" y="790" type="line"/>
      <point x="100" y="790" type="line"/>
      <point x="100" y="419" type="line"/>
      <point x="121" y="419" type="line"/>
      <point x="138" y="420"/>
      <point x="145" y="437"/>
      <point x="145" y="454" type="curve" smooth="yes"/>
      <point x="145" y="741" type="line" smooth="yes"/>
      <point x="145" y="770"/>
      <point x="152" y="806"/>
      <point x="196" y="806" type="curve" smooth="yes"/>
      <point x="216" y="806" type="line"/>
      <point x="216" y="741" type="line"/>
      <point x="183" y="741" type="line" smooth="yes"/>
      <point x="160" y="741"/>
      <point x="155" y="720"/>
      <point x="155" y="701" type="curve" smooth="yes"/>
      <point x="155" y="454" type="line" smooth="yes"/>
      <point x="155" y="440"/>
      <point x="151" y="427"/>
      <point x="143" y="419" type="curve"/>
      <point x="188" y="416"/>
      <point x="210" y="387"/>
      <point x="210" y="339" type="curve" smooth="yes"/>
      <point x="210" y="10" type="line"/>
      <point x="240" y="10" type="line"/>
    </contour>
  </outline>
</glyph>
<glyph name="afii10029" format="2">
  <advance width="245"/>
  <unicode hex="041B"/>
  <anchor x="182" y="858" name="Yerik"/>
  <anchor x="133" y="858" name="Diacritic"/>
  <outline>
    <contour>
      <point x="105" y="793" type="curve" smooth="yes"/>
      <point x="92" y="793"/>
      <point x="86" y="783"/>
      <point x="86" y="773" type="curve" smooth="yes"/>
      <point x="86" y="761"/>
      <point x="90" y="751"/>
      <point x="95" y="741" type="curve" smooth="yes"/>
      <point x="104" y="721"/>
      <point x="110" y="716"/>
      <point x="117" y="696" type="curve" smooth="yes"/>
      <point x="125" y="674"/>
      <point x="130" y="662"/>
      <point x="130" y="639" type="curve" smooth="yes"/>
      <point x="130" y="572"/>
      <point x="93" y="522"/>
      <point x="67" y="485" type="curve" smooth="yes"/>
      <point x="63" y="479"/>
      <point x="55" y="485"/>
      <point x="59" y="491" type="curve" smooth="yes"/>
      <point x="74" y="511"/>
      <point x="88" y="527"/>
      <point x="88" y="566" type="curve" smooth="yes"/>
      <point x="88" y="586"/>
      <point x="86" y="598"/>
      <point x="78" y="616" type="curve" smooth="yes"/>
      <point x="65" y="647"/>
      <point x="45" y="686"/>
      <point x="45" y="730" type="curve" smooth="yes"/>
      <point x="45" y="767"/>
      <point x="72" y="803"/>
      <point x="102" y="803" type="curve" smooth="yes"/>
      <point x="121" y="803"/>
      <point x="135" y="785"/>
      <point x="143" y="765" type="curve" smooth="yes"/>
      <point x="143" y="763"/>
      <point x="144" y="761"/>
      <point x="145" y="759" type="curve"/>
      <point x="145" y="790" type="line"/>
      <point x="130" y="790" type="line"/>
      <point x="130" y="800" type="line"/>
      <point x="240" y="800" type="line"/>
      <point x="240" y="790" type="line"/>
      <point x="210" y="790" type="line"/>
      <point x="210" y="10" type="line"/>
      <point x="240" y="10" type="line"/>
      <point x="240" y="0" type="line"/>
      <point x="128" y="0" type="line"/>
      <point x="128" y="10" type="line"/>
      <point x="145" y="10" type="line"/>
      <point x="145" y="532" type="line"/>
      <point x="137" y="507"/>
      <point x="126" y="488"/>
      <point x="115" y="466" type="curve" smooth="yes"/>
      <point x="105" y="447"/>
      <point x="100" y="399"/>
      <point x="100" y="378" type="curve" smooth="yes"/>
      <point x="100" y="10" type="line"/>
      <point x="117" y="10" type="line"/>
      <point x="117" y="0" type="line"/>
      <point x="5" y="0" type="line"/>
      <point x="5" y="10" type="line"/>
      <point x="35" y="10" type="line"/>
      <point x="35" y="322" type="line" smooth="yes"/>
      <point x="35" y="369"/>
      <point x="62" y="401"/>
      <point x="66" y="407" type="curve" smooth="yes"/>
      <point x="95" y="450"/>
      <point x="134" y="515"/>
      <point x="145" y="578" type="curve"/>
      <point x="145" y="719" type="line"/>
      <point x="140" y="741"/>
      <point x="128" y="793"/>
    </contour>
  </outline>
</glyph>
<glyph name="afii10030" format="2">
  <advance width="355"/>
  <unicode hex="041C"/>
  <anchor x="292" y="858" name="Yerik"/>
  <anchor x="232" y="858" name="Diacritic"/>
  <outline>
    <contour>
      <point x="105" y="793" type="curve" smooth="yes"/>
      <point x="92" y="793"/>
      <point x="86" y="783"/>
      <point x="86" y="773" type="curve" smooth="yes"/>
      <point x="86" y="761"/>
      <point x="90" y="751"/>
      <point x="95" y="741" type="curve" smooth="yes"/>
      <point x="104" y="721"/>
      <point x="110" y="716"/>
      <point x="117" y="696" type="curve" smooth="yes"/>
      <point x="125" y="674"/>
      <point x="130" y="662"/>
      <point x="130" y="639" type="curve" smooth="yes"/>
      <point x="130" y="572"/>
      <point x="93" y="522"/>
      <point x="67" y="485" type="curve" smooth="yes"/>
      <point x="63" y="479"/>
      <point x="55" y="485"/>
      <point x="59" y="491" type="curve" smooth="yes"/>
      <point x="74" y="511"/>
      <point x="88" y="527"/>
      <point x="88" y="566" type="curve" smooth="yes"/>
      <point x="88" y="586"/>
      <point x="86" y="598"/>
      <point x="78" y="616" type="curve" smooth="yes"/>
      <point x="65" y="647"/>
      <point x="45" y="686"/>
      <point x="45" y="730" type="curve" smooth="yes"/>
      <point x="45" y="767"/>
      <point x="72" y="803"/>
      <point x="102" y="803" type="curve" smooth="yes"/>
      <point x="112" y="803"/>
      <point x="120" y="800"/>
      <point x="127" y="792" type="curve"/>
      <point x="127" y="800" type="line"/>
      <point x="227" y="800" type="line"/>
      <point x="227" y="790" type="line"/>
      <point x="210" y="790" type="line"/>
      <point x="210" y="230" type="line"/>
      <point x="255" y="605" type="line"/>
      <point x="255" y="790" type="line"/>
      <point x="238" y="790" type="line"/>
      <point x="238" y="800" type="line"/>
      <point x="350" y="800" type="line"/>
      <point x="350" y="790" type="line"/>
      <point x="320" y="790" type="line"/>
      <point x="320" y="10" type="line"/>
      <point x="350" y="10" type="line"/>
      <point x="350" y="0" type="line"/>
      <point x="238" y="0" type="line"/>
      <point x="238" y="10" type="line"/>
      <point x="255" y="10" type="line"/>
      <point x="255" y="520" type="line"/>
      <point x="210" y="145" type="line"/>
      <point x="210" y="10" type="line"/>
      <point x="227" y="10" type="line"/>
      <point x="227" y="0" type="line"/>
      <point x="128" y="0" type="line"/>
      <point x="128" y="10" type="line"/>
      <point x="145" y="10" type="line"/>
      <point x="145" y="532" type="line"/>
      <point x="137" y="507"/>
      <point x="126" y="488"/>
      <point x="115" y="466" type="curve" smooth="yes"/>
      <point x="105" y="447"/>
      <point x="100" y="399"/>
      <point x="100" y="378" type="curve" smooth="yes"/>
      <point x="100" y="10" type="line"/>
      <point x="117" y="10" type="line"/>
      <point x="117" y="0" type="line"/>
      <point x="5" y="0" type="line"/>
      <point x="5" y="10" type="line"/>
      <point x="35" y="10" type="line"/>
      <point x="35" y="322" type="line" smooth="yes"/>
      <point x="35" y="369"/>
      <point x="62" y="401"/>
      <point x="66" y="407" type="curve" smooth="yes"/>
      <point x="95" y="450"/>
      <point x="134" y="515"/>
      <point x="145" y="578" type="curve"/>
      <point x="145" y="719" type="line"/>
      <point x="140" y="741"/>
      <point x="128" y="793"/>
    </contour>
    <contour>
      <point x="128" y="790" type="line"/>
      <point x="134" y="783"/>
      <point x="139" y="774"/>
      <point x="143" y="765" type="curve" smooth="yes"/>
      <point x="143" y="763"/>
      <point x="144" y="761"/>
      <point x="145" y="759" type="curve" smooth="yes"/>
      <point x="145" y="790" type="line"/>
    </contour>
  </outline>
</glyph>
<glyph name="afii10032" format="2">
  <advance width="245"/>
  <unicode hex="041E"/>
  <anchor x="182" y="858" name="Yerik"/>
  <anchor x="122" y="858" name="Diacritic"/>
  <outline>
    <contour>
      <point x="210" y="727" type="curve" smooth="yes"/>
      <point x="210" y="73" type="line" smooth="yes"/>
      <point x="210" y="26"/>
      <point x="169" y="-12"/>
      <point x="122" y="-12" type="curve" smooth="yes"/>
      <point x="74" y="-12"/>
      <point x="35" y="26"/>
      <point x="35" y="73" type="curve" smooth="yes"/>
      <point x="35" y="727" type="line" smooth="yes"/>
      <point x="35" y="774"/>
      <point x="74" y="812"/>
      <point x="122" y="812" type="curve" smooth="yes"/>
      <point x="169" y="812"/>
      <point x="210" y="774"/>
    </contour>
    <contour>
      <point x="100" y="787" type="curve" smooth="yes"/>
      <point x="100" y="13" type="line" smooth="yes"/>
      <point x="100" y="2"/>
      <point x="111" y="-3"/>
      <point x="122" y="-3" type="curve" smooth="yes"/>
      <point x="134" y="-3"/>
      <point x="145" y="2"/>
      <point x="145" y="13" type="curve" smooth="yes"/>
      <point x="145" y="787" type="line" smooth="yes"/>
      <point x="145" y="798"/>
      <point x="134" y="803"/>
      <point x="122" y="803" type="curve" smooth="yes"/>
      <point x="111" y="803"/>
      <point x="100" y="798"/>
    </contour>
  </outline>
</glyph>
<glyph name="afii10034" format="2">
  <advance width="245"/>
  <unicode hex="0420"/>
  <anchor x="182" y="858" name="Yerik"/>
  <anchor x="122" y="858" name="Diacritic"/>
  <outline>
    <contour>
      <point x="130" y="0" type="line"/>
      <point x="5" y="0" type="line"/>
      <point x="5" y="10" type="line"/>
      <point x="35" y="10" type="line"/>
      <point x="35" y="727" type="line" smooth="yes"/>
      <point x="35" y="774"/>
      <point x="74" y="812"/>
      <point x="122" y="812" type="curve" smooth="yes"/>
      <point x="169" y="812"/>
      <point x="210" y="774"/>
      <point x="210" y="727" type="curve" smooth="yes"/>
      <point x="210" y="472" type="line" smooth="yes"/>
      <point x="210" y="435"/>
      <point x="191" y="388"/>
      <point x="163" y="388" type="curve" smooth="yes"/>
      <point x="148" y="388"/>
      <point x="132" y="395"/>
      <point x="124" y="412" type="curve"/>
      <point x="113" y="380"/>
      <point x="103" y="344"/>
      <point x="100" y="317" type="curve"/>
      <point x="100" y="10" type="line"/>
      <point x="130" y="10" type="line"/>
    </contour>
    <contour>
      <point x="129" y="432" type="line" smooth="yes"/>
      <point x="129" y="425"/>
      <point x="134" y="411"/>
      <point x="140" y="409" type="curve"/>
      <point x="145" y="413"/>
      <point x="145" y="425"/>
      <point x="145" y="435" type="curve" smooth="yes"/>
      <point x="145" y="787" type="line" smooth="yes"/>
      <point x="145" y="798"/>
      <point x="134" y="803"/>
      <point x="122" y="803" type="curve" smooth="yes"/>
      <point x="111" y="803"/>
      <point x="100" y="798"/>
      <point x="100" y="787" type="curve" smooth="yes"/>
      <point x="100" y="370" type="line"/>
      <point x="102" y="379"/>
      <point x="105" y="388"/>
      <point x="109" y="398" type="curve" smooth="yes"/>
      <point x="116" y="418"/>
      <point x="118" y="439"/>
      <point x="119" y="455" type="curve"/>
      <point x="119" y="476" type="line" smooth="yes"/>
      <point x="119" y="484"/>
      <point x="129" y="485"/>
      <point x="129" y="476" type="curve" smooth="yes"/>
    </contour>
  </outline>
</glyph>
<glyph name="afii10036" format="2">
  <advance width="247"/>
  <unicode hex="0422"/>
  <anchor x="182" y="858" name="Yerik"/>
  <anchor x="122" y="858" name="Diacritic"/>
  <outline>
    <contour>
      <point x="230" y="530" type="curve" smooth="yes"/>
      <point x="231" y="527"/>
      <point x="225" y="523"/>
      <point x="223" y="527" type="curve" smooth="yes"/>
      <point x="219" y="534"/>
      <point x="213" y="547"/>
      <point x="210" y="557" type="curve" smooth="yes"/>
      <point x="190" y="615"/>
      <point x="165" y="716"/>
      <point x="165" y="790" type="curve"/>
      <point x="156" y="790" type="line"/>
      <point x="156" y="10" type="line"/>
      <point x="186" y="10" type="line"/>
      <point x="186" y="0" type="line"/>
      <point x="61" y="0" type="line"/>
      <point x="61" y="10" type="line"/>
      <point x="91" y="10" type="line"/>
      <point x="91" y="790" type="line"/>
      <point x="82" y="790" type="line"/>
      <point x="81" y="769"/>
      <point x="77" y="724"/>
      <point x="71" y="685" type="curve" smooth="yes"/>
      <point x="62" y="635"/>
      <point x="51" y="598"/>
      <point x="37" y="557" type="curve" smooth="yes"/>
      <point x="34" y="547"/>
      <point x="28" y="534"/>
      <point x="24" y="527" type="curve" smooth="yes"/>
      <point x="22" y="523"/>
      <point x="16" y="527"/>
      <point x="17" y="530" type="curve" smooth="yes"/>
      <point x="31" y="564"/>
      <point x="33" y="610"/>
      <point x="33" y="658" type="curve" smooth="yes"/>
      <point x="33" y="712"/>
      <point x="27" y="754"/>
      <point x="17" y="790" type="curve" smooth="yes"/>
      <point x="16" y="794"/>
      <point x="17" y="797"/>
      <point x="18" y="800" type="curve"/>
      <point x="229" y="800" type="line"/>
      <point x="230" y="797"/>
      <point x="231" y="794"/>
      <point x="230" y="790" type="curve" smooth="yes"/>
      <point x="220" y="754"/>
      <point x="214" y="712"/>
      <point x="214" y="658" type="curve" smooth="yes"/>
      <point x="214" y="610"/>
      <point x="216" y="564"/>
    </contour>
  </outline>
</glyph>
<glyph name="uni0423" format="2">
  <advance width="236"/>
  <unicode hex="0423"/>
  <anchor x="182" y="858" name="Yerik"/>
  <anchor x="122" y="858" name="Diacritic"/>
  <outline>
    <contour>
      <point x="160" y="0" type="line"/>
      <point x="65" y="0" type="line"/>
      <point x="65" y="10" type="line"/>
      <point x="108" y="10" type="line"/>
      <point x="125" y="332" type="line"/>
      <point x="61" y="332" type="line"/>
      <point x="32" y="790" type="line"/>
      <point x="5" y="790" type="line"/>
      <point x="5" y="800" type="line"/>
      <point x="130" y="800" type="line"/>
      <point x="130" y="790" type="line"/>
      <point x="97" y="790" type="line"/>
      <point x="125" y="346" type="line"/>
      <point x="145" y="715" type="line" smooth="yes"/>
      <point x="147" y="761"/>
      <point x="161" y="806"/>
      <point x="198" y="806" type="curve" smooth="yes"/>
      <point x="224" y="806" type="line"/>
      <point x="224" y="741" type="line"/>
      <point x="194" y="741" type="line" smooth="yes"/>
      <point x="175" y="741"/>
      <point x="156" y="721"/>
      <point x="152" y="644" type="curve" smooth="yes"/>
      <point x="118" y="10" type="line"/>
      <point x="160" y="10" type="line"/>
    </contour>
  </outline>
</glyph>
<glyph name="uni0424" format="2">
  <advance width="355"/>
  <unicode hex="0424"/>
  <anchor x="282" y="858" name="Yerik"/>
  <anchor x="177" y="858" name="Diacritic"/>
  <outline>
    <contour>
      <point x="320" y="175" type="line" smooth="yes"/>
      <point x="320" y="128"/>
      <point x="280" y="90"/>
      <point x="233" y="90" type="curve" smooth="yes"/>
      <point x="210" y="90" type="line"/>
      <point x="210" y="10" type="line"/>
      <point x="240" y="10" type="line"/>
      <point x="240" y="0" type="line"/>
      <point x="115" y="0" type="line"/>
      <point x="115" y="10" type="line"/>
      <point x="145" y="10" type="line"/>
      <point x="145" y="90" type="line"/>
      <point x="122" y="90" type="line" smooth="yes"/>
      <point x="75" y="90"/>
      <point x="35" y="128"/>
      <point x="35" y="175" type="curve" smooth="yes"/>
      <point x="35" y="675" type="line" smooth="yes"/>
      <point x="35" y="722"/>
      <point x="75" y="760"/>
      <point x="122" y="760" type="curve" smooth="yes"/>
      <point x="145" y="760" type="line"/>
      <point x="145" y="790" type="line"/>
      <point x="115" y="790" type="line"/>
      <point x="115" y="800" type="line"/>
      <point x="240" y="800" type="line"/>
      <point x="240" y="790" type="line"/>
      <point x="210" y="790" type="line"/>
      <point x="210" y="760" type="line"/>
      <point x="233" y="760" type="line" smooth="yes"/>
      <point x="280" y="760"/>
      <point x="320" y="722"/>
      <point x="320" y="675" type="curve" smooth="yes"/>
    </contour>
    <contour>
      <point x="233" y="100" type="line" smooth="yes"/>
      <point x="244" y="100"/>
      <point x="255" y="104"/>
      <point x="255" y="115" type="curve" smooth="yes"/>
      <point x="255" y="735" type="line" smooth="yes"/>
      <point x="255" y="746"/>
      <point x="244" y="750"/>
      <point x="233" y="750" type="curve" smooth="yes"/>
      <point x="210" y="750" type="line"/>
      <point x="210" y="100" type="line"/>
    </contour>
    <contour>
      <point x="100" y="735" type="curve" smooth="yes"/>
      <point x="100" y="115" type="line" smooth="yes"/>
      <point x="100" y="104"/>
      <point x="111" y="100"/>
      <point x="122" y="100" type="curve" smooth="yes"/>
      <point x="145" y="100" type="line"/>
      <point x="145" y="750" type="line"/>
      <point x="122" y="750" type="line" smooth="yes"/>
      <point x="111" y="750"/>
      <point x="100" y="746"/>
    </contour>
  </outline>
</glyph>
<glyph name="afii10040" format="2">
  <advance width="255"/>
  <unicode hex="0426"/>
  <anchor x="182" y="858" name="Yerik"/>
  <anchor x="122" y="858" name="Diacritic"/>
  <outline>
    <contour>
      <point x="258" y="-255" type="curve" smooth="yes"/>
      <point x="259" y="-258"/>
      <point x="252" y="-261"/>
      <point x="251" y="-258" type="curve" smooth="yes"/>
      <point x="249" y="-253"/>
      <point x="242" y="-240"/>
      <point x="238" y="-229" type="curve" smooth="yes"/>
      <point x="219" y="-180"/>
      <point x="210" y="-159"/>
      <point x="198" y="-107" type="curve" smooth="yes"/>
      <point x="189" y="-70"/>
      <point x="184" y="-21"/>
      <point x="184" y="0" type="curve"/>
      <point x="5" y="0" type="line"/>
      <point x="5" y="10" type="line"/>
      <point x="35" y="10" type="line"/>
      <point x="35" y="790" type="line"/>
      <point x="5" y="790" type="line"/>
      <point x="5" y="800" type="line"/>
      <point x="117" y="800" type="line"/>
      <point x="117" y="790" type="line"/>
      <point x="100" y="790" type="line"/>
      <point x="100" y="10" type="line"/>
      <point x="145" y="10" type="line"/>
      <point x="145" y="790" type="line"/>
      <point x="128" y="790" type="line"/>
      <point x="128" y="800" type="line"/>
      <point x="240" y="800" type="line"/>
      <point x="240" y="790" type="line"/>
      <point x="210" y="790" type="line"/>
      <point x="210" y="10" type="line"/>
      <point x="250" y="10" type="line"/>
      <point x="251" y="7"/>
      <point x="251" y="4"/>
      <point x="250" y="0" type="curve" smooth="yes"/>
      <point x="246" y="-22"/>
      <point x="238" y="-69"/>
      <point x="238" y="-105" type="curve" smooth="yes"/>
      <point x="238" y="-159"/>
      <point x="241" y="-210"/>
    </contour>
  </outline>
</glyph>
<glyph name="afii10043" format="2">
  <advance width="365"/>
  <unicode hex="0429"/>
  <anchor x="292" y="858" name="Yerik"/>
  <anchor x="180" y="858" name="Diacritic"/>
  <outline>
    <contour>
      <point x="350" y="790" type="line"/>
      <point x="320" y="790" type="line"/>
      <point x="320" y="10" type="line"/>
      <point x="360" y="10" type="line"/>
      <point x="361" y="7"/>
      <point x="361" y="4"/>
      <point x="360" y="0" type="curve" smooth="yes"/>
      <point x="356" y="-22"/>
      <point x="348" y="-69"/>
      <point x="348" y="-105" type="curve" smooth="yes"/>
      <point x="348" y="-159"/>
      <point x="351" y="-210"/>
      <point x="368" y="-255" type="curve" smooth="yes"/>
      <point x="369" y="-258"/>
      <point x="362" y="-261"/>
      <point x="361" y="-258" type="curve" smooth="yes"/>
      <point x="359" y="-253"/>
      <point x="352" y="-240"/>
      <point x="348" y="-229" type="curve" smooth="yes"/>
      <point x="329" y="-180"/>
      <point x="320" y="-159"/>
      <point x="308" y="-107" type="curve" smooth="yes"/>
      <point x="299" y="-70"/>
      <point x="294" y="-21"/>
      <point x="294" y="0" type="curve"/>
      <point x="5" y="0" type="line"/>
      <point x="5" y="10" type="line"/>
      <point x="35" y="10" type="line"/>
      <point x="35" y="790" type="line"/>
      <point x="5" y="790" type="line"/>
      <point x="5" y="800" type="line"/>
      <point x="117" y="800" type="line"/>
      <point x="117" y="790" type="line"/>
      <point x="100" y="790" type="line"/>
      <point x="100" y="10" type="line"/>
      <point x="145" y="10" type="line"/>
      <point x="145" y="790" type="line"/>
      <point x="128" y="790" type="line"/>
      <point x="128" y="800" type="line"/>
      <point x="227" y="800" type="line"/>
      <point x="227" y="790" type="line"/>
      <point x="210" y="790" type="line"/>
      <point x="210" y="10" type="line"/>
      <point x="255" y="10" type="line"/>
      <point x="255" y="790" type="line"/>
      <point x="238" y="790" type="line"/>
      <point x="238" y="800" type="line"/>
      <point x="350" y="800" type="line"/>
    </contour>
  </outline>
</glyph>
<glyph name="afii10045" format="2">
  <advance width="355"/>
  <unicode hex="042B"/>
  <anchor x="285" y="858" name="Yerik"/>
  <anchor x="172" y="858" name="Diacritic"/>
  <outline>
    <contour>
      <point x="5" y="0" type="line"/>
      <point x="5" y="10" type="line"/>
      <point x="35" y="10" type="line"/>
      <point x="35" y="790" type="line"/>
      <point x="5" y="790" type="line"/>
      <point x="5" y="800" type="line"/>
      <point x="130" y="800" type="line"/>
      <point x="130" y="790" type="line"/>
      <point x="100" y="790" type="line"/>
      <point x="100" y="510" type="line"/>
      <point x="102" y="479"/>
      <point x="112" y="457"/>
      <point x="136" y="433" type="curve" smooth="yes"/>
      <point x="158" y="410"/>
      <point x="184" y="399"/>
      <point x="210" y="394" type="curve"/>
      <point x="210" y="10" type="line"/>
      <point x="227" y="10" type="line"/>
      <point x="227" y="0" type="line"/>
    </contour>
    <contour>
      <point x="350" y="0" type="line"/>
      <point x="238" y="0" type="line"/>
      <point x="238" y="10" type="line"/>
      <point x="255" y="10" type="line"/>
      <point x="255" y="790" type="line"/>
      <point x="238" y="790" type="line"/>
      <point x="238" y="800" type="line"/>
      <point x="350" y="800" type="line"/>
      <point x="350" y="790" type="line"/>
      <point x="320" y="790" type="line"/>
      <point x="320" y="10" type="line"/>
      <point x="350" y="10" type="line"/>
    </contour>
    <contour>
      <point x="100" y="464" type="curve"/>
      <point x="100" y="10" type="line"/>
      <point x="145" y="10" type="line"/>
      <point x="145" y="410" type="line"/>
      <point x="127" y="425"/>
      <point x="109" y="444"/>
    </contour>
  </outline>
</glyph>
<glyph name="uni042D" format="2">
  <advance width="245"/>
  <unicode hex="042D"/>
  <anchor x="182" y="858" name="Yerik"/>
  <anchor x="132" y="858" name="Diacritic"/>
  <outline>
    <contour>
      <point x="150" y="491" type="curve"/>
      <point x="158" y="480" type="line"/>
      <point x="158" y="787" type="line" smooth="yes"/>
      <point x="158" y="798"/>
      <point x="147" y="803"/>
      <point x="136" y="803" type="curve" smooth="yes"/>
      <point x="124" y="803"/>
      <point x="112" y="798"/>
      <point x="112" y="787" type="curve" smooth="yes"/>
      <point x="112" y="595" type="line"/>
      <point x="142" y="595" type="line"/>
      <point x="142" y="585" type="line"/>
      <point x="18" y="585" type="line"/>
      <point x="18" y="595" type="line"/>
      <point x="48" y="595" type="line"/>
      <point x="48" y="727" type="line" smooth="yes"/>
      <point x="48" y="774"/>
      <point x="89" y="812"/>
      <point x="136" y="812" type="curve" smooth="yes"/>
      <point x="184" y="812"/>
      <point x="222" y="774"/>
      <point x="222" y="727" type="curve" smooth="yes"/>
      <point x="222" y="287" type="line" smooth="yes"/>
      <point x="222" y="250"/>
      <point x="213" y="228"/>
      <point x="200" y="205" type="curve" smooth="yes"/>
      <point x="186" y="178"/>
      <point x="153" y="149"/>
      <point x="130" y="109" type="curve" smooth="yes"/>
      <point x="120" y="91"/>
      <point x="118" y="73"/>
      <point x="116" y="55" type="curve" smooth="yes"/>
      <point x="117" y="46"/>
      <point x="122" y="24"/>
      <point x="136" y="8" type="curve" smooth="yes"/>
      <point x="144" y="2"/>
      <point x="153" y="-2"/>
      <point x="162" y="-2" type="curve" smooth="yes"/>
      <point x="168" y="-2"/>
      <point x="174" y="0"/>
      <point x="180" y="3" type="curve" smooth="yes"/>
      <point x="184" y="9"/>
      <point x="184" y="12"/>
      <point x="184" y="18" type="curve" smooth="yes"/>
      <point x="184" y="34"/>
      <point x="178" y="47"/>
      <point x="170" y="61" type="curve" smooth="yes"/>
      <point x="159" y="79"/>
      <point x="154" y="91"/>
      <point x="154" y="106" type="curve" smooth="yes"/>
      <point x="154" y="121"/>
      <point x="161" y="138"/>
      <point x="180" y="138" type="curve" smooth="yes"/>
      <point x="214" y="138"/>
      <point x="228" y="102"/>
      <point x="228" y="76" type="curve" smooth="yes"/>
      <point x="228" y="39"/>
      <point x="199" y="-12"/>
      <point x="162" y="-12" type="curve" smooth="yes"/>
      <point x="116" y="-12"/>
      <point x="86" y="60"/>
      <point x="70" y="114" type="curve" smooth="yes"/>
      <point x="47" y="196"/>
      <point x="45" y="294"/>
      <point x="44" y="345" type="curve"/>
      <point x="18" y="345" type="line"/>
      <point x="18" y="355" type="line"/>
      <point x="142" y="355" type="line"/>
      <point x="142" y="345" type="line"/>
      <point x="112" y="345" type="line"/>
      <point x="112" y="93" type="line"/>
      <point x="114" y="100"/>
      <point x="118" y="107"/>
      <point x="122" y="115" type="curve" smooth="yes"/>
      <point x="143" y="154"/>
      <point x="158" y="198"/>
      <point x="158" y="260" type="curve" smooth="yes"/>
      <point x="158" y="460" type="line"/>
      <point x="148" y="476" type="line" smooth="yes"/>
      <point x="143" y="484"/>
      <point x="133" y="494"/>
      <point x="126" y="494" type="curve" smooth="yes"/>
      <point x="115" y="494"/>
      <point x="112" y="485"/>
      <point x="112" y="474" type="curve" smooth="yes"/>
      <point x="112" y="435" type="line"/>
      <point x="46" y="435" type="line"/>
      <point x="46" y="458" type="line" smooth="yes"/>
      <point x="46" y="505"/>
      <point x="77" y="519"/>
      <point x="98" y="519" type="curve" smooth="yes"/>
      <point x="117" y="519"/>
      <point x="135" y="512"/>
    </contour>
  </outline>
</glyph>
<glyph name="afii10067" format="2">
  <advance width="245"/>
  <unicode hex="0432"/>
  <anchor x="182" y="858" name="Yerik"/>
  <anchor x="122" y="858" name="Diacritic"/>
  <outline>
    <contour>
      <point x="5" y="0" type="line"/>
      <point x="5" y="10" type="line"/>
      <point x="35" y="10" type="line"/>
      <point x="35" y="727" type="line" smooth="yes"/>
      <point x="35" y="774"/>
      <point x="74" y="812"/>
      <point x="122" y="812" type="curve" smooth="yes"/>
      <point x="169" y="812"/>
      <point x="210" y="774"/>
      <point x="210" y="727" type="curve" smooth="yes"/>
      <point x="210" y="510" type="line" smooth="yes"/>
      <point x="210" y="472"/>
      <point x="185" y="442"/>
      <point x="164" y="442" type="curve" smooth="yes"/>
      <point x="144" y="442"/>
      <point x="121" y="452"/>
      <point x="115" y="479" type="curve" smooth="yes"/>
      <point x="115" y="480"/>
      <point x="114" y="480"/>
      <point x="114" y="481" type="curve"/>
      <point x="112" y="473"/>
      <point x="108" y="466"/>
      <point x="105" y="459" type="curve"/>
      <point x="114" y="443"/>
      <point x="127" y="427"/>
      <point x="145" y="412" type="curve" smooth="yes"/>
      <point x="160" y="399"/>
      <point x="187" y="389"/>
      <point x="210" y="385" type="curve"/>
      <point x="210" y="10" type="line"/>
      <point x="240" y="10" type="line"/>
      <point x="240" y="0" type="line"/>
    </contour>
    <contour>
      <point x="139" y="403" type="curve" smooth="yes"/>
      <point x="122" y="417"/>
      <point x="109" y="432"/>
      <point x="100" y="447" type="curve"/>
      <point x="100" y="10" type="line"/>
      <point x="145" y="10" type="line"/>
      <point x="145" y="398" type="line"/>
      <point x="142" y="399"/>
      <point x="141" y="401"/>
    </contour>
    <contour>
      <point x="138" y="462" type="curve"/>
      <point x="143" y="465"/>
      <point x="145" y="477"/>
      <point x="145" y="487" type="curve" smooth="yes"/>
      <point x="145" y="787" type="line" smooth="yes"/>
      <point x="145" y="798"/>
      <point x="134" y="803"/>
      <point x="122" y="803" type="curve" smooth="yes"/>
      <point x="111" y="803"/>
      <point x="100" y="798"/>
      <point x="100" y="787" type="curve" smooth="yes"/>
      <point x="100" y="471" type="line"/>
      <point x="105" y="485"/>
      <point x="110" y="500"/>
      <point x="113" y="514" type="curve" smooth="yes"/>
      <point x="114" y="521"/>
      <point x="124" y="519"/>
      <point x="123" y="512" type="curve" smooth="yes"/>
      <point x="123" y="493"/>
      <point x="125" y="466"/>
    </contour>
  </outline>
</glyph>
<glyph name="afii10072" format="2">
  <advance width="355"/>
  <unicode hex="0436"/>
  <anchor x="292" y="858" name="Yerik"/>
  <anchor x="174" y="858" name="Diacritic"/>
  <outline>
    <contour>
      <point x="350" y="0" type="line"/>
      <point x="238" y="0" type="line"/>
      <point x="238" y="10" type="line"/>
      <point x="255" y="10" type="line"/>
      <point x="255" y="393" type="line" smooth="yes"/>
      <point x="255" y="405"/>
      <point x="246" y="409"/>
      <point x="236" y="409" type="curve" smooth="yes"/>
      <point x="210" y="409" type="line"/>
      <point x="210" y="10" type="line"/>
      <point x="227" y="10" type="line"/>
      <point x="227" y="0" type="line"/>
      <point x="128" y="0" type="line"/>
      <point x="128" y="10" type="line"/>
      <point x="145" y="10" type="line"/>
      <point x="145" y="409" type="line"/>
      <point x="119" y="409" type="line" smooth="yes"/>
      <point x="109" y="409"/>
      <point x="100" y="405"/>
      <point x="100" y="393" type="curve" smooth="yes"/>
      <point x="100" y="10" type="line"/>
      <point x="117" y="10" type="line"/>
      <point x="117" y="0" type="line"/>
      <point x="5" y="0" type="line"/>
      <point x="5" y="10" type="line"/>
      <point x="35" y="10" type="line"/>
      <point x="35" y="339" type="line" smooth="yes"/>
      <point x="35" y="387"/>
      <point x="56" y="416"/>
      <point x="102" y="419" type="curve"/>
      <point x="94" y="427"/>
      <point x="90" y="440"/>
      <point x="90" y="454" type="curve" smooth="yes"/>
      <point x="90" y="701" type="line" smooth="yes"/>
      <point x="90" y="720"/>
      <point x="85" y="741"/>
      <point x="62" y="741" type="curve" smooth="yes"/>
      <point x="29" y="741" type="line"/>
      <point x="29" y="806" type="line"/>
      <point x="49" y="806" type="line" smooth="yes"/>
      <point x="93" y="806"/>
      <point x="100" y="770"/>
      <point x="100" y="741" type="curve" smooth="yes"/>
      <point x="100" y="454" type="line" smooth="yes"/>
      <point x="100" y="437"/>
      <point x="107" y="420"/>
      <point x="124" y="419" type="curve"/>
      <point x="145" y="419" type="line"/>
      <point x="145" y="790" type="line"/>
      <point x="115" y="790" type="line"/>
      <point x="115" y="800" type="line"/>
      <point x="240" y="800" type="line"/>
      <point x="240" y="790" type="line"/>
      <point x="210" y="790" type="line"/>
      <point x="210" y="419" type="line"/>
      <point x="228" y="419" type="line" smooth="yes"/>
      <point x="247" y="419"/>
      <point x="255" y="436"/>
      <point x="255" y="454" type="curve" smooth="yes"/>
      <point x="255" y="741" type="line" smooth="yes"/>
      <point x="255" y="770"/>
      <point x="262" y="806"/>
      <point x="306" y="806" type="curve" smooth="yes"/>
      <point x="326" y="806" type="line"/>
      <point x="326" y="741" type="line"/>
      <point x="293" y="741" type="line" smooth="yes"/>
      <point x="270" y="741"/>
      <point x="265" y="720"/>
      <point x="265" y="701" type="curve" smooth="yes"/>
      <point x="265" y="454" type="line" smooth="yes"/>
      <point x="265" y="440"/>
      <point x="261" y="427"/>
      <point x="253" y="419" type="curve"/>
      <point x="298" y="416"/>
      <point x="320" y="387"/>
      <point x="320" y="339" type="curve" smooth="yes"/>
      <point x="320" y="10" type="line"/>
      <point x="350" y="10" type="line"/>
    </contour>
  </outline>
</glyph>
<glyph name="afii10075" format="2">
  <advance width="245"/>
  <unicode hex="0439"/>
  <anchor x="122" y="918" name="Yerik"/>
  <anchor x="122" y="918" name="Diacritic"/>
  <outline>
    <contour>
      <point x="240" y="0" type="line"/>
      <point x="128" y="0" type="line"/>
      <point x="128" y="10" type="line"/>
      <point x="145" y="10" type="line"/>
      <point x="145" y="520" type="line"/>
      <point x="100" y="145" type="line"/>
      <point x="100" y="10" type="line"/>
      <point x="117" y="10" type="line"/>
      <point x="117" y="0" type="line"/>
      <point x="5" y="0" type="line"/>
      <point x="5" y="10" type="line"/>
      <point x="35" y="10" type="line"/>
      <point x="35" y="790" type="line"/>
      <point x="5" y="790" type="line"/>
      <point x="5" y="800" type="line"/>
      <point x="117" y="800" type="line"/>
      <point x="117" y="790" type="line"/>
      <point x="100" y="790" type="line"/>
      <point x="100" y="230" type="line"/>
      <point x="145" y="605" type="line"/>
      <point x="145" y="790" type="line"/>
      <point x="128" y="790" type="line"/>
      <point x="128" y="800" type="line"/>
      <point x="240" y="800" type="line"/>
      <point x="240" y="790" type="line"/>
      <point x="210" y="790" type="line"/>
      <point x="210" y="10" type="line"/>
      <point x="240" y="10" type="line"/>
    </contour>
    <contour>
      <point x="121" y="807" type="curve" smooth="yes"/>
      <point x="88" y="807"/>
      <point x="61" y="838"/>
      <point x="61" y="864" type="curve" smooth="yes"/>
      <point x="61" y="872" type="line"/>
      <point x="104" y="872" type="line"/>
      <point x="104" y="826" type="line" smooth="yes"/>
      <point x="104" y="817"/>
      <point x="113" y="815"/>
      <point x="121" y="815" type="curve" smooth="yes"/>
      <point x="129" y="815"/>
      <point x="138" y="817"/>
      <point x="138" y="826" type="curve" smooth="yes"/>
      <point x="138" y="872" type="line"/>
      <point x="181" y="872" type="line"/>
      <point x="181" y="864" type="line" smooth="yes"/>
      <point x="181" y="838"/>
      <point x="154" y="807"/>
    </contour>
  </outline>
</glyph>
<glyph name="afii10081" format="2">
  <advance width="245"/>
  <unicode hex="043F"/>
  <anchor x="182" y="858" name="Yerik"/>
  <anchor x="122" y="858" name="Diacritic"/>
  <outline>
    <contour>
      <point x="117" y="0" type="line"/>
      <point x="5" y="0" type="line"/>
      <point x="5" y="10" type="line"/>
      <point x="35" y="10" type="line"/>
      <point x="35" y="790" type="line"/>
      <point x="5" y="790" type="line"/>
      <point x="5" y="800" type="line"/>
      <point x="240" y="800" type="line"/>
      <point x="240" y="790" type="line"/>
      <point x="210" y="790" type="line"/>
      <point x="210" y="10" type="line"/>
      <point x="240" y="10" type="line"/>
      <point x="240" y="0" type="line"/>
      <point x="128" y="0" type="line"/>
      <point x="128" y="10" type="line"/>
      <point x="145" y="10" type="line"/>
      <point x="145" y="790" type="line"/>
      <point x="100" y="790" type="line"/>
      <point x="100" y="10" type="line"/>
      <point x="117" y="10" type="line"/>
    </contour>
  </outline>
</glyph>
<glyph name="afii10090" format="2">
  <advance width="355"/>
  <unicode hex="0448"/>
  <anchor x="292" y="858" name="Yerik"/>
  <anchor x="173" y="858" name="Diacritic"/>
  <outline>
    <contour>
      <point x="350" y="790" type="line"/>
      <point x="320" y="790" type="line"/>
      <point x="320" y="10" type="line"/>
      <point x="350" y="10" type="line"/>
      <point x="350" y="0" type="line"/>
      <point x="5" y="0" type="line"/>
      <point x="5" y="10" type="line"/>
      <point x="35" y="10" type="line"/>
      <point x="35" y="790" type="line"/>
      <point x="5" y="790" type="line"/>
      <point x="5" y="800" type="line"/>
      <point x="117" y="800" type="line"/>
      <point x="117" y="790" type="line"/>
      <point x="100" y="790" type="line"/>
      <point x="100" y="10" type="line"/>
      <point x="145" y="10" type="line"/>
      <point x="145" y="790" type="line"/>
      <point x="128" y="790" type="line"/>
      <point x="128" y="800" type="line"/>
      <point x="227" y="800" type="line"/>
      <point x="227" y="790" type="line"/>
      <point x="210" y="790" type="line"/>
      <point x="210" y="10" type="line"/>
      <point x="255" y="10" type="line"/>
      <point x="255" y="790" type="line"/>
      <point x="238" y="790" type="line"/>
      <point x="238" y="800" type="line"/>
      <point x="350" y="800" type="line"/>
    </contour>
  </outline>
</glyph>
<glyph name="afii10092" format="2">
  <advance width="305"/>
  <unicode hex="044A"/>
  <anchor x="232" y="858" name="Yerik"/>
  <anchor x="122" y="858" name="Diacritic"/>
  <outline>
    <contour>
      <point x="300" y="0" type="line"/>
      <point x="65" y="0" type="line"/>
      <point x="65" y="10" type="line"/>
      <point x="95" y="10" type="line"/>
      <point x="95" y="790" type="line"/>
      <point x="85" y="790" type="line"/>
      <point x="84" y="769"/>
      <point x="79" y="719"/>
      <point x="71" y="683" type="curve" smooth="yes"/>
      <point x="59" y="631"/>
      <point x="50" y="610"/>
      <point x="31" y="561" type="curve" smooth="yes"/>
      <point x="27" y="550"/>
      <point x="20" y="537"/>
      <point x="18" y="532" type="curve" smooth="yes"/>
      <point x="17" y="529"/>
      <point x="10" y="532"/>
      <point x="11" y="535" type="curve" smooth="yes"/>
      <point x="28" y="581"/>
      <point x="31" y="631"/>
      <point x="31" y="685" type="curve" smooth="yes"/>
      <point x="31" y="721"/>
      <point x="23" y="768"/>
      <point x="19" y="790" type="curve" smooth="yes"/>
      <point x="18" y="794"/>
      <point x="18" y="797"/>
      <point x="19" y="800" type="curve"/>
      <point x="190" y="800" type="line"/>
      <point x="190" y="790" type="line"/>
      <point x="160" y="790" type="line"/>
      <point x="160" y="507" type="line"/>
      <point x="162" y="477"/>
      <point x="172" y="456"/>
      <point x="196" y="433" type="curve" smooth="yes"/>
      <point x="218" y="410"/>
      <point x="244" y="399"/>
      <point x="270" y="394" type="curve"/>
      <point x="270" y="10" type="line"/>
      <point x="300" y="10" type="line"/>
    </contour>
    <contour>
      <point x="160" y="464" type="curve"/>
      <point x="160" y="10" type="line"/>
      <point x="205" y="10" type="line"/>
      <point x="205" y="410" type="line"/>
      <point x="187" y="425"/>
      <point x="169" y="444"/>
    </contour>
  </outline>
</glyph>
<glyph name="afii10096" format="2">
  <advance width="355"/>
  <unicode hex="044E"/>
  <anchor x="285" y="858" name="Yerik"/>
  <anchor x="173" y="858" name="Diacritic"/>
  <outline>
    <contour>
      <point x="320" y="727" type="curve" smooth="yes"/>
      <point x="320" y="73" type="line" smooth="yes"/>
      <point x="320" y="26"/>
      <point x="279" y="-12"/>
      <point x="232" y="-12" type="curve" smooth="yes"/>
      <point x="184" y="-12"/>
      <point x="145" y="26"/>
      <point x="145" y="73" type="curve" smooth="yes"/>
      <point x="145" y="395" type="line"/>
      <point x="100" y="395" type="line"/>
      <point x="100" y="10" type="line"/>
      <point x="130" y="10" type="line"/>
      <point x="130" y="0" type="line"/>
      <point x="5" y="0" type="line"/>
      <point x="5" y="10" type="line"/>
      <point x="35" y="10" type="line"/>
      <point x="35" y="790" type="line"/>
      <point x="5" y="790" type="line"/>
      <point x="5" y="800" type="line"/>
      <point x="130" y="800" type="line"/>
      <point x="130" y="790" type="line"/>
      <point x="100" y="790" type="line"/>
      <point x="100" y="405" type="line"/>
      <point x="145" y="405" type="line"/>
      <point x="145" y="727" type="line" smooth="yes"/>
      <point x="145" y="774"/>
      <point x="184" y="812"/>
      <point x="232" y="812" type="curve" smooth="yes"/>
      <point x="279" y="812"/>
      <point x="320" y="774"/>
    </contour>
    <contour>
      <point x="210" y="787" type="curve" smooth="yes"/>
      <point x="210" y="13" type="line" smooth="yes"/>
      <point x="210" y="2"/>
      <point x="221" y="-3"/>
      <point x="232" y="-3" type="curve" smooth="yes"/>
      <point x="244" y="-3"/>
      <point x="255" y="2"/>
      <point x="255" y="13" type="curve" smooth="yes"/>
      <point x="255" y="787" type="line" smooth="yes"/>
      <point x="255" y="798"/>
      <point x="244" y="803"/>
      <point x="232" y="803" type="curve" smooth="yes"/>
      <point x="221" y="803"/>
      <point x="210" y="798"/>
    </contour>
  </outline>
</glyph>
<glyph name="afii10102" format="2">
  <advance width="245"/>
  <unicode hex="0455"/>
  <anchor x="182" y="858" name="Yerik"/>
  <anchor x="122" y="858" name="Diacritic"/>
  <outline>
    <contour>
      <point x="199" y="481" type="curve" smooth="yes"/>
      <point x="101" y="401" type="line"/>
      <point x="109" y="404"/>
      <point x="116" y="406"/>
      <point x="123" y="406" type="curve" smooth="yes"/>
      <point x="171" y="406"/>
      <point x="210" y="377"/>
      <point x="210" y="330" type="curve" smooth="yes"/>
      <point x="210" y="73" type="line" smooth="yes"/>
      <point x="210" y="26"/>
      <point x="171" y="-12"/>
      <point x="123" y="-12" type="curve" smooth="yes"/>
      <point x="76" y="-12"/>
      <point x="35" y="26"/>
      <point x="35" y="73" type="curve" smooth="yes"/>
      <point x="35" y="205" type="line"/>
      <point x="5" y="205" type="line"/>
      <point x="5" y="215" type="line"/>
      <point x="130" y="215" type="line"/>
      <point x="130" y="205" type="line"/>
      <point x="100" y="205" type="line"/>
      <point x="100" y="13" type="line" smooth="yes"/>
      <point x="100" y="2"/>
      <point x="111" y="-3"/>
      <point x="123" y="-3" type="curve" smooth="yes"/>
      <point x="134" y="-3"/>
      <point x="145" y="2"/>
      <point x="145" y="13" type="curve" smooth="yes"/>
      <point x="145" y="380" type="line" smooth="yes"/>
      <point x="145" y="391"/>
      <point x="134" y="396"/>
      <point x="123" y="396" type="curve" smooth="yes"/>
      <point x="102" y="396"/>
      <point x="69" y="374"/>
      <point x="52" y="361" type="curve" smooth="yes"/>
      <point x="47" y="357"/>
      <point x="40" y="364"/>
      <point x="46" y="368" type="curve" smooth="yes"/>
      <point x="144" y="449" type="line"/>
      <point x="136" y="446"/>
      <point x="128" y="444"/>
      <point x="122" y="444" type="curve" smooth="yes"/>
      <point x="74" y="444"/>
      <point x="35" y="473"/>
      <point x="35" y="520" type="curve" smooth="yes"/>
      <point x="35" y="727" type="line" smooth="yes"/>
      <point x="35" y="774"/>
      <point x="74" y="812"/>
      <point x="122" y="812" type="curve" smooth="yes"/>
      <point x="169" y="812"/>
      <point x="210" y="774"/>
      <point x="210" y="727" type="curve" smooth="yes"/>
      <point x="210" y="595" type="line"/>
      <point x="240" y="595" type="line"/>
      <point x="240" y="585" type="line"/>
      <point x="115" y="585" type="line"/>
      <point x="115" y="595" type="line"/>
      <point x="145" y="595" type="line"/>
      <point x="145" y="787" type="line" smooth="yes"/>
      <point x="145" y="798"/>
      <point x="134" y="803"/>
      <point x="122" y="803" type="curve" smooth="yes"/>
      <point x="111" y="803"/>
      <point x="100" y="798"/>
      <point x="100" y="787" type="curve" smooth="yes"/>
      <point x="100" y="470" type="line" smooth="yes"/>
      <point x="100" y="459"/>
      <point x="111" y="454"/>
      <point x="122" y="454" type="curve" smooth="yes"/>
      <point x="143" y="454"/>
      <point x="175" y="475"/>
      <point x="193" y="489" type="curve" smooth="yes"/>
      <point x="198" y="493"/>
      <point x="204" y="485"/>
    </contour>
  </outline>
</glyph>
<glyph name="uni0462" format="2">
  <advance width="301"/>
  <unicode hex="0462"/>
  <anchor x="212" y="858" name="Yerik"/>
  <anchor x="128" y="858" name="Diacritic"/>
  <outline>
    <contour>
      <point x="230" y="470" type="curve" smooth="yes"/>
      <point x="231" y="467"/>
      <point x="225" y="463"/>
      <point x="223" y="467" type="curve" smooth="yes"/>
      <point x="219" y="474"/>
      <point x="213" y="487"/>
      <point x="210" y="497" type="curve" smooth="yes"/>
      <point x="190" y="555"/>
      <point x="165" y="656"/>
      <point x="165" y="730" type="curve"/>
      <point x="156" y="730" type="line"/>
      <point x="156" y="657"/>
      <point x="156" y="583"/>
      <point x="156" y="510" type="curve"/>
      <point x="158" y="479"/>
      <point x="168" y="457"/>
      <point x="192" y="433" type="curve" smooth="yes"/>
      <point x="214" y="410"/>
      <point x="240" y="399"/>
      <point x="266" y="394" type="curve"/>
      <point x="266" y="10" type="line"/>
      <point x="296" y="10" type="line"/>
      <point x="296" y="0" type="line"/>
      <point x="61" y="0" type="line"/>
      <point x="61" y="10" type="line"/>
      <point x="91" y="10" type="line"/>
      <point x="91" y="730" type="line"/>
      <point x="82" y="730" type="line"/>
      <point x="81" y="709"/>
      <point x="77" y="664"/>
      <point x="71" y="625" type="curve" smooth="yes"/>
      <point x="62" y="575"/>
      <point x="51" y="538"/>
      <point x="37" y="497" type="curve" smooth="yes"/>
      <point x="34" y="487"/>
      <point x="28" y="474"/>
      <point x="24" y="467" type="curve" smooth="yes"/>
      <point x="22" y="463"/>
      <point x="16" y="467"/>
      <point x="17" y="470" type="curve" smooth="yes"/>
      <point x="31" y="504"/>
      <point x="33" y="550"/>
      <point x="33" y="598" type="curve" smooth="yes"/>
      <point x="33" y="652"/>
      <point x="27" y="694"/>
      <point x="17" y="730" type="curve" smooth="yes"/>
      <point x="16" y="734"/>
      <point x="17" y="737"/>
      <point x="18" y="740" type="curve"/>
      <point x="91" y="740" type="line"/>
      <point x="91" y="790" type="line"/>
      <point x="61" y="790" type="line"/>
      <point x="61" y="800" type="line"/>
      <point x="186" y="800" type="line"/>
      <point x="186" y="790" type="line"/>
      <point x="156" y="790" type="line"/>
      <point x="156" y="740" type="line"/>
      <point x="229" y="740" type="line"/>
      <point x="230" y="737"/>
      <point x="231" y="734"/>
      <point x="230" y="730" type="curve" smooth="yes"/>
      <point x="220" y="694"/>
      <point x="214" y="652"/>
      <point x="214" y="598" type="curve" smooth="yes"/>
      <point x="214" y="550"/>
      <point x="216" y="504"/>
    </contour>
    <contour>
      <point x="156" y="464" type="curve"/>
      <point x="156" y="10" type="line"/>
      <point x="201" y="10" type="line"/>
      <point x="201" y="410" type="line"/>
      <point x="183" y="425"/>
      <point x="165" y="444"/>
    </contour>
  </outline>
</glyph>
<glyph name="uni0466" format="2">
  <advance width="355"/>
  <unicode hex="0466"/>
  <anchor x="272" y="858" name="Yerik"/>
  <anchor x="179" y="858" name="Diacritic"/>
  <outline>
    <contour>
      <point x="350" y="0" type="line"/>
      <point x="238" y="0" type="line"/>
      <point x="238" y="10" type="line"/>
      <point x="255" y="10" type="line"/>
      <point x="255" y="342" type="line" smooth="yes"/>
      <point x="255" y="345"/>
      <point x="254" y="349"/>
      <point x="254" y="352" type="curve"/>
      <point x="210" y="352" type="line"/>
      <point x="210" y="10" type="line"/>
      <point x="227" y="10" type="line"/>
      <point x="227" y="0" type="line"/>
      <point x="128" y="0" type="line"/>
      <point x="128" y="10" type="line"/>
      <point x="145" y="10" type="line"/>
      <point x="145" y="352" type="line"/>
      <point x="100" y="352" type="line"/>
      <point x="100" y="10" type="line"/>
      <point x="117" y="10" type="line"/>
      <point x="117" y="0" type="line"/>
      <point x="5" y="0" type="line"/>
      <point x="5" y="10" type="line"/>
      <point x="35" y="10" type="line"/>
      <point x="35" y="334" type="line" smooth="yes"/>
      <point x="35" y="370"/>
      <point x="57" y="409"/>
      <point x="94" y="438" type="curve" smooth="yes"/>
      <point x="115" y="455"/>
      <point x="127" y="477"/>
      <point x="133" y="491" type="curve" smooth="yes"/>
      <point x="139" y="505"/>
      <point x="143" y="520"/>
      <point x="145" y="543" type="curve"/>
      <point x="145" y="790" type="line"/>
      <point x="115" y="790" type="line"/>
      <point x="115" y="800" type="line"/>
      <point x="240" y="800" type="line"/>
      <point x="240" y="790" type="line"/>
      <point x="210" y="790" type="line"/>
      <point x="210" y="579" type="line" smooth="yes"/>
      <point x="210" y="534"/>
      <point x="217" y="485"/>
      <point x="259" y="451" type="curve" smooth="yes"/>
      <point x="299" y="419"/>
      <point x="320" y="390"/>
      <point x="320" y="315" type="curve" smooth="yes"/>
      <point x="320" y="10" type="line"/>
      <point x="350" y="10" type="line"/>
    </contour>
    <contour>
      <point x="111" y="426" type="curve" smooth="yes"/>
      <point x="102" y="412"/>
      <point x="100" y="399"/>
      <point x="100" y="386" type="curve" smooth="yes"/>
      <point x="100" y="362" type="line"/>
      <point x="251" y="362" type="line"/>
      <point x="242" y="386"/>
      <point x="218" y="405"/>
      <point x="194" y="427" type="curve" smooth="yes"/>
      <point x="168" y="449"/>
      <point x="154" y="475"/>
      <point x="148" y="503" type="curve"/>
      <point x="147" y="496"/>
      <point x="145" y="491"/>
      <point x="143" y="486" type="curve" smooth="yes"/>
      <point x="137" y="470"/>
      <point x="126" y="449"/>
    </contour>
  </outline>
</glyph>
<glyph name="uni046F" format="2">
  <advance width="245"/>
  <unicode hex="046F"/>
  <anchor x="182" y="988" name="Yerik"/>
  <anchor x="131" y="988" name="Diacritic"/>
  <outline>
    <contour>
      <point x="114" y="926" type="line"/>
      <point x="99" y="926" type="line"/>
      <point x="137" y="824" type="line"/>
      <point x="144" y="850" type="line"/>
      <point x="155" y="896"/>
      <point x="165" y="936"/>
      <point x="199" y="936" type="curve" smooth="yes"/>
      <point x="209" y="936" type="line"/>
      <point x="209" y="871" type="line"/>
      <point x="187" y="871" type="line" smooth="yes"/>
      <point x="178" y="871"/>
      <point x="161" y="870"/>
      <point x="154" y="846" type="curve" smooth="yes"/>
      <point x="144" y="809" type="line"/>
      <point x="182" y="800"/>
      <point x="210" y="767"/>
      <point x="210" y="727" type="curve" smooth="yes"/>
      <point x="210" y="580" type="line" smooth="yes"/>
      <point x="210" y="544"/>
      <point x="187" y="519"/>
      <point x="155" y="509" type="curve"/>
      <point x="187" y="500"/>
      <point x="210" y="475"/>
      <point x="210" y="439" type="curve" smooth="yes"/>
      <point x="210" y="287" type="line" smooth="yes"/>
      <point x="210" y="250"/>
      <point x="201" y="228"/>
      <point x="188" y="205" type="curve" smooth="yes"/>
      <point x="174" y="178"/>
      <point x="141" y="149"/>
      <point x="118" y="109" type="curve" smooth="yes"/>
      <point x="108" y="91"/>
      <point x="105" y="73"/>
      <point x="103" y="55" type="curve" smooth="yes"/>
      <point x="104" y="46"/>
      <point x="109" y="24"/>
      <point x="123" y="8" type="curve" smooth="yes"/>
      <point x="131" y="2"/>
      <point x="140" y="-2"/>
      <point x="149" y="-2" type="curve" smooth="yes"/>
      <point x="155" y="-2"/>
      <point x="161" y="0"/>
      <point x="167" y="3" type="curve" smooth="yes"/>
      <point x="171" y="9"/>
      <point x="172" y="12"/>
      <point x="172" y="18" type="curve" smooth="yes"/>
      <point x="172" y="34"/>
      <point x="165" y="47"/>
      <point x="157" y="61" type="curve" smooth="yes"/>
      <point x="146" y="79"/>
      <point x="142" y="91"/>
      <point x="142" y="106" type="curve" smooth="yes"/>
      <point x="142" y="121"/>
      <point x="148" y="138"/>
      <point x="167" y="138" type="curve" smooth="yes"/>
      <point x="201" y="138"/>
      <point x="215" y="102"/>
      <point x="215" y="76" type="curve" smooth="yes"/>
      <point x="215" y="39"/>
      <point x="186" y="-12"/>
      <point x="149" y="-12" type="curve" smooth="yes"/>
      <point x="103" y="-12"/>
      <point x="73" y="60"/>
      <point x="57" y="114" type="curve" smooth="yes"/>
      <point x="33" y="196"/>
      <point x="32" y="294"/>
      <point x="31" y="345" type="curve"/>
      <point x="5" y="345" type="line"/>
      <point x="5" y="355" type="line"/>
      <point x="130" y="355" type="line"/>
      <point x="130" y="345" type="line"/>
      <point x="100" y="345" type="line"/>
      <point x="100" y="93" type="line"/>
      <point x="102" y="100"/>
      <point x="105" y="107"/>
      <point x="109" y="115" type="curve" smooth="yes"/>
      <point x="130" y="154"/>
      <point x="145" y="198"/>
      <point x="145" y="260" type="curve" smooth="yes"/>
      <point x="145" y="489" type="line" smooth="yes"/>
      <point x="145" y="499"/>
      <point x="136" y="504"/>
      <point x="126" y="505" type="curve"/>
      <point x="123" y="505" type="line" smooth="yes"/>
      <point x="111" y="505"/>
      <point x="100" y="500"/>
      <point x="100" y="489" type="curve" smooth="yes"/>
      <point x="100" y="422" type="line"/>
      <point x="33" y="422" type="line"/>
      <point x="33" y="439" type="line" smooth="yes"/>
      <point x="33" y="486"/>
      <point x="76" y="514"/>
      <point x="123" y="514" type="curve" smooth="yes"/>
      <point x="126" y="514" type="line"/>
      <point x="136" y="515"/>
      <point x="145" y="520"/>
      <point x="145" y="530" type="curve" smooth="yes"/>
      <point x="145" y="787" type="line" smooth="yes"/>
      <point x="145" y="798"/>
      <point x="134" y="803"/>
      <point x="123" y="803" type="curve" smooth="yes"/>
      <point x="111" y="803"/>
      <point x="100" y="798"/>
      <point x="100" y="787" type="curve" smooth="yes"/>
      <point x="100" y="595" type="line"/>
      <point x="130" y="595" type="line"/>
      <point x="130" y="585" type="line"/>
      <point x="5" y="585" type="line"/>
      <point x="5" y="595" type="line"/>
      <point x="35" y="595" type="line"/>
      <point x="35" y="727" type="line" smooth="yes"/>
      <point x="35" y="762"/>
      <point x="58" y="793"/>
      <point x="90" y="806" type="curve"/>
      <point x="45" y="926" type="line"/>
      <point x="29" y="926" type="line"/>
      <point x="29" y="936" type="line"/>
      <point x="114" y="936" type="line"/>
    </contour>
  </outline>
</glyph>
<glyph name="uni0470" format="2">
  <advance width="355"/>
  <unicode hex="0470"/>
  <anchor x="288" y="858" name="Yerik"/>
  <anchor x="176" y="858" name="Diacritic"/>
  <outline>
    <contour>
      <point x="43" y="490" type="curve" smooth="yes"/>
      <point x="39" y="484"/>
      <point x="31" y="490"/>
      <point x="35" y="496" type="curve" smooth="yes"/>
      <point x="50" y="516"/>
      <point x="64" y="532"/>
      <point x="64" y="571" type="curve" smooth="yes"/>
      <point x="64" y="591"/>
      <point x="62" y="598"/>
      <point x="54" y="616" type="curve" smooth="yes"/>
      <point x="41" y="647"/>
      <point x="23" y="686"/>
      <point x="23" y="730" type="curve" smooth="yes"/>
      <point x="23" y="767"/>
      <point x="46" y="803"/>
      <point x="76" y="803" type="curve" smooth="yes"/>
      <point x="131" y="803"/>
      <point x="136" y="682"/>
      <point x="136" y="645" type="curve" smooth="yes"/>
      <point x="136" y="603"/>
      <point x="131" y="570"/>
      <point x="113" y="527" type="curve" smooth="yes"/>
      <point x="109" y="517"/>
      <point x="104" y="508"/>
      <point x="100" y="500" type="curve"/>
      <point x="100" y="115" type="line" smooth="yes"/>
      <point x="100" y="104"/>
      <point x="111" y="100"/>
      <point x="122" y="100" type="curve" smooth="yes"/>
      <point x="145" y="100" type="line"/>
      <point x="145" y="790" type="line"/>
      <point x="115" y="790" type="line"/>
      <point x="115" y="800" type="line"/>
      <point x="240" y="800" type="line"/>
      <point x="240" y="790" type="line"/>
      <point x="210" y="790" type="line"/>
      <point x="210" y="100" type="line"/>
      <point x="233" y="100" type="line" smooth="yes"/>
      <point x="244" y="100"/>
      <point x="255" y="104"/>
      <point x="255" y="115" type="curve" smooth="yes"/>
      <point x="255" y="500" type="line"/>
      <point x="251" y="508"/>
      <point x="246" y="517"/>
      <point x="242" y="527" type="curve" smooth="yes"/>
      <point x="224" y="570"/>
      <point x="219" y="603"/>
      <point x="219" y="645" type="curve" smooth="yes"/>
      <point x="219" y="682"/>
      <point x="224" y="803"/>
      <point x="279" y="803" type="curve" smooth="yes"/>
      <point x="309" y="803"/>
      <point x="332" y="767"/>
      <point x="332" y="730" type="curve" smooth="yes"/>
      <point x="332" y="686"/>
      <point x="314" y="647"/>
      <point x="301" y="616" type="curve" smooth="yes"/>
      <point x="293" y="598"/>
      <point x="291" y="591"/>
      <point x="291" y="571" type="curve" smooth="yes"/>
      <point x="291" y="552"/>
      <point x="295" y="531"/>
      <point x="301" y="523" type="curve" smooth="yes"/>
      <point x="303" y="520"/>
      <point x="320" y="496"/>
      <point x="320" y="496" type="curve" smooth="yes"/>
      <point x="324" y="490"/>
      <point x="316" y="484"/>
      <point x="312" y="490" type="curve" smooth="yes"/>
      <point x="295" y="515"/>
      <point x="281" y="531"/>
      <point x="265" y="566" type="curve" smooth="yes"/>
      <point x="254" y="591"/>
      <point x="249" y="610"/>
      <point x="249" y="639" type="curve" smooth="yes"/>
      <point x="249" y="680"/>
      <point x="268" y="711"/>
      <point x="282" y="741" type="curve" smooth="yes"/>
      <point x="287" y="751"/>
      <point x="291" y="761"/>
      <point x="291" y="773" type="curve" smooth="yes"/>
      <point x="291" y="783"/>
      <point x="289" y="793"/>
      <point x="276" y="793" type="curve" smooth="yes"/>
      <point x="264" y="793"/>
      <point x="253" y="777"/>
      <point x="247" y="761" type="curve" smooth="yes"/>
      <point x="230" y="716"/>
      <point x="229" y="676"/>
      <point x="229" y="645" type="curve" smooth="yes"/>
      <point x="229" y="604"/>
      <point x="234" y="572"/>
      <point x="252" y="531" type="curve" smooth="yes"/>
      <point x="269" y="491"/>
      <point x="291" y="463"/>
      <point x="320" y="438" type="curve"/>
      <point x="320" y="175" type="line" smooth="yes"/>
      <point x="320" y="128"/>
      <point x="280" y="90"/>
      <point x="233" y="90" type="curve" smooth="yes"/>
      <point x="210" y="90" type="line"/>
      <point x="210" y="10" type="line"/>
      <point x="240" y="10" type="line"/>
      <point x="240" y="0" type="line"/>
      <point x="115" y="0" type="line"/>
      <point x="115" y="10" type="line"/>
      <point x="145" y="10" type="line"/>
      <point x="145" y="90" type="line"/>
      <point x="122" y="90" type="line" smooth="yes"/>
      <point x="75" y="90"/>
      <point x="35" y="128"/>
      <point x="35" y="175" type="curve" smooth="yes"/>
      <point x="35" y="438" type="line"/>
      <point x="64" y="463"/>
      <point x="86" y="491"/>
      <point x="103" y="531" type="curve" smooth="yes"/>
      <point x="121" y="572"/>
      <point x="126" y="604"/>
      <point x="126" y="645" type="curve" smooth="yes"/>
      <point x="126" y="676"/>
      <point x="125" y="716"/>
      <point x="108" y="761" type="curve" smooth="yes"/>
      <point x="102" y="777"/>
      <point x="91" y="793"/>
      <point x="79" y="793" type="curve" smooth="yes"/>
      <point x="66" y="793"/>
      <point x="64" y="783"/>
      <point x="64" y="773" type="curve" smooth="yes"/>
      <point x="64" y="761"/>
      <point x="68" y="751"/>
      <point x="73" y="741" type="curve" smooth="yes"/>
      <point x="87" y="711"/>
      <point x="106" y="680"/>
      <point x="106" y="639" type="curve" smooth="yes"/>
      <point x="106" y="575"/>
      <point x="68" y="526"/>
    </contour>
  </outline>
</glyph>
<glyph name="uni0472" format="2">
  <advance width="355"/>
  <unicode hex="0472"/>
  <anchor x="232" y="858" name="Yerik"/>
  <anchor x="177" y="858" name="Diacritic"/>
  <outline>
    <contour>
      <point x="346" y="2" type="curve" smooth="yes"/>
      <point x="347" y="-1"/>
      <point x="340" y="-4"/>
      <point x="339" y="-1" type="curve" smooth="yes"/>
      <point x="337" y="4"/>
      <point x="330" y="17"/>
      <point x="326" y="28" type="curve" smooth="yes"/>
      <point x="307" y="77"/>
      <point x="298" y="98"/>
      <point x="286" y="150" type="curve" smooth="yes"/>
      <point x="277" y="186"/>
      <point x="272" y="236"/>
      <point x="272" y="257" type="curve"/>
      <point x="265" y="257" type="line"/>
      <point x="265" y="73" type="line" smooth="yes"/>
      <point x="265" y="26"/>
      <point x="224" y="-12"/>
      <point x="177" y="-12" type="curve" smooth="yes"/>
      <point x="129" y="-12"/>
      <point x="90" y="26"/>
      <point x="90" y="73" type="curve" smooth="yes"/>
      <point x="90" y="257" type="line"/>
      <point x="83" y="257" type="line"/>
      <point x="82" y="236"/>
      <point x="77" y="186"/>
      <point x="69" y="150" type="curve" smooth="yes"/>
      <point x="57" y="98"/>
      <point x="48" y="77"/>
      <point x="29" y="28" type="curve" smooth="yes"/>
      <point x="25" y="17"/>
      <point x="18" y="4"/>
      <point x="16" y="-1" type="curve" smooth="yes"/>
      <point x="15" y="-4"/>
      <point x="8" y="-1"/>
      <point x="9" y="2" type="curve" smooth="yes"/>
      <point x="26" y="48"/>
      <point x="29" y="98"/>
      <point x="29" y="152" type="curve" smooth="yes"/>
      <point x="29" y="188"/>
      <point x="21" y="235"/>
      <point x="17" y="257" type="curve" smooth="yes"/>
      <point x="16" y="261"/>
      <point x="16" y="264"/>
      <point x="17" y="267" type="curve"/>
      <point x="90" y="267" type="line"/>
      <point x="90" y="727" type="line" smooth="yes"/>
      <point x="90" y="774"/>
      <point x="129" y="812"/>
      <point x="177" y="812" type="curve" smooth="yes"/>
      <point x="224" y="812"/>
      <point x="265" y="774"/>
      <point x="265" y="727" type="curve" smooth="yes"/>
      <point x="265" y="267" type="line"/>
      <point x="338" y="267" type="line"/>
      <point x="339" y="264"/>
      <point x="339" y="261"/>
      <point x="338" y="257" type="curve" smooth="yes"/>
      <point x="334" y="235"/>
      <point x="326" y="188"/>
      <point x="326" y="152" type="curve" smooth="yes"/>
      <point x="326" y="98"/>
      <point x="329" y="47"/>
    </contour>
    <contour>
      <point x="155" y="787" type="curve" smooth="yes"/>
      <point x="155" y="267" type="line"/>
      <point x="200" y="267" type="line"/>
      <point x="200" y="787" type="line" smooth="yes"/>
      <point x="200" y="798"/>
      <point x="189" y="803"/>
      <point x="177" y="803" type="curve" smooth="yes"/>
      <point x="166" y="803"/>
      <point x="155" y="798"/>
    </contour>
    <contour>
      <point x="177" y="-3" type="curve" smooth="yes"/>
      <point x="189" y="-3"/>
      <point x="200" y="2"/>
      <point x="200" y="13" type="curve" smooth="yes"/>
      <point x="200" y="257" type="line"/>
      <point x="155" y="257" type="line"/>
      <point x="155" y="13" type="line" smooth="yes"/>
      <point x="155" y="2"/>
      <point x="166" y="-3"/>
    </contour>
  </outline>
</glyph>
<glyph name="uni0475" format="2">
  <advance width="236"/>
  <unicode hex="0475"/>
  <anchor x="182" y="858" name="Yerik"/>
  <anchor x="122" y="858" name="Diacritic"/>
  <outline>
    <contour>
      <point x="29" y="0" type="line"/>
      <point x="29" y="10" type="line"/>
      <point x="60" y="10" type="line"/>
      <point x="32" y="790" type="line"/>
      <point x="5" y="790" type="line"/>
      <point x="5" y="800" type="line"/>
      <point x="130" y="800" type="line"/>
      <point x="130" y="790" type="line"/>
      <point x="97" y="790" type="line"/>
      <point x="119" y="172" type="line"/>
      <point x="145" y="715" type="line" smooth="yes"/>
      <point x="147" y="763"/>
      <point x="161" y="806"/>
      <point x="198" y="806" type="curve" smooth="yes"/>
      <point x="224" y="806" type="line"/>
      <point x="224" y="741" type="line"/>
      <point x="194" y="741" type="line" smooth="yes"/>
      <point x="175" y="741"/>
      <point x="156" y="721"/>
      <point x="152" y="644" type="curve" smooth="yes"/>
      <point x="124" y="51" type="line"/>
      <point x="125" y="10" type="line"/>
      <point x="154" y="10" type="line"/>
      <point x="154" y="0" type="line"/>
    </contour>
  </outline>
</glyph>
<glyph name="uni0479" format="2">
  <advance width="471"/>
  <unicode hex="0479"/>
  <anchor x="422" y="858" name="Yerik"/>
  <anchor x="350" y="858" name="Diacritic"/>
  <outline>
    <contour>
      <point x="210" y="727" type="curve" smooth="yes"/>
      <point x="210" y="73" type="line" smooth="yes"/>
      <point x="210" y="26"/>
      <point x="169" y="-12"/>
      <point x="122" y="-12" type="curve" smooth="yes"/>
      <point x="74" y="-12"/>
      <point x="35" y="26"/>
      <point x="35" y="73" type="curve" smooth="yes"/>
      <point x="35" y="727" type="line" smooth="yes"/>
      <point x="35" y="774"/>
      <point x="74" y="812"/>
      <point x="122" y="812" type="curve" smooth="yes"/>
      <point x="169" y="812"/>
      <point x="210" y="774"/>
    </contour>
    <contour>
      <point x="395" y="0" type="line"/>
      <point x="300" y="0" type="line"/>
      <point x="300" y="10" type="line"/>
      <point x="343" y="10" type="line"/>
      <point x="360" y="332" type="line"/>
      <point x="296" y="332" type="line"/>
      <point x="267" y="790" type="line"/>
      <point x="240" y="790" type="line"/>
      <point x="240" y="800" type="line"/>
      <point x="365" y="800" type="line"/>
      <point x="365" y="790" type="line"/>
      <point x="332" y="790" type="line"/>
      <point x="360" y="346" type="line"/>
      <point x="380" y="715" type="line" smooth="yes"/>
      <point x="382" y="761"/>
      <point x="396" y="806"/>
      <point x="433" y="806" type="curve" smooth="yes"/>
      <point x="459" y="806" type="line"/>
      <point x="459" y="741" type="line"/>
      <point x="429" y="741" type="line" smooth="yes"/>
      <point x="410" y="741"/>
      <point x="391" y="721"/>
      <point x="387" y="644" type="curve" smooth="yes"/>
      <point x="353" y="10" type="line"/>
      <point x="395" y="10" type="line"/>
    </contour>
    <contour>
      <point x="100" y="787" type="curve" smooth="yes"/>
      <point x="100" y="13" type="line" smooth="yes"/>
      <point x="100" y="2"/>
      <point x="111" y="-3"/>
      <point x="122" y="-3" type="curve" smooth="yes"/>
      <point x="134" y="-3"/>
      <point x="145" y="2"/>
      <point x="145" y="13" type="curve" smooth="yes"/>
      <point x="145" y="787" type="line" smooth="yes"/>
      <point x="145" y="798"/>
      <point x="134" y="803"/>
      <point x="122" y="803" type="curve" smooth="yes"/>
      <point x="111" y="803"/>
      <point x="100" y="798"/>
    </contour>
  </outline>
</glyph>
<glyph name="uni047B" format="2">
  <advance width="325"/>
  <unicode hex="047B"/>
  <anchor x="258" y="858" name="Yerik"/>
  <anchor x="160" y="858" name="Diacritic"/>
  <outline>
    <contour>
      <point x="122" y="812" type="curve" smooth="yes"/>
      <point x="129" y="812"/>
      <point x="138" y="810"/>
      <point x="145" y="808" type="curve" smooth="yes"/>
      <point x="150" y="810"/>
      <point x="155" y="812"/>
      <point x="162" y="812" type="curve" smooth="yes"/>
      <point x="168" y="812"/>
      <point x="174" y="810"/>
      <point x="178" y="808" type="curve" smooth="yes"/>
      <point x="186" y="811"/>
      <point x="195" y="812"/>
      <point x="203" y="812" type="curve" smooth="yes"/>
      <point x="251" y="812"/>
      <point x="290" y="774"/>
      <point x="290" y="727" type="curve" smooth="yes"/>
      <point x="290" y="73" type="line" smooth="yes"/>
      <point x="290" y="26"/>
      <point x="251" y="-12"/>
      <point x="203" y="-12" type="curve" smooth="yes"/>
      <point x="195" y="-12"/>
      <point x="186" y="-11"/>
      <point x="178" y="-8" type="curve" smooth="yes"/>
      <point x="174" y="-10"/>
      <point x="168" y="-12"/>
      <point x="162" y="-12" type="curve" smooth="yes"/>
      <point x="156" y="-12"/>
      <point x="150" y="-10"/>
      <point x="146" y="-8" type="curve" smooth="yes"/>
      <point x="138" y="-10"/>
      <point x="130" y="-12"/>
      <point x="122" y="-12" type="curve" smooth="yes"/>
      <point x="74" y="-12"/>
      <point x="35" y="26"/>
      <point x="35" y="73" type="curve" smooth="yes"/>
      <point x="35" y="727" type="line" smooth="yes"/>
      <point x="35" y="774"/>
      <point x="74" y="812"/>
    </contour>
    <contour>
      <point x="162" y="66" type="curve" smooth="yes"/>
      <point x="184" y="66"/>
      <point x="196" y="46"/>
      <point x="196" y="27" type="curve" smooth="yes"/>
      <point x="196" y="17"/>
      <point x="192" y="6"/>
      <point x="186" y="-1" type="curve"/>
      <point x="191" y="-2"/>
      <point x="197" y="-3"/>
      <point x="203" y="-3" type="curve" smooth="yes"/>
      <point x="214" y="-3"/>
      <point x="225" y="2"/>
      <point x="225" y="13" type="curve" smooth="yes"/>
      <point x="225" y="787" type="line" smooth="yes"/>
      <point x="225" y="798"/>
      <point x="214" y="803"/>
      <point x="203" y="803" type="curve" smooth="yes"/>
      <point x="199" y="803"/>
      <point x="193" y="802"/>
      <point x="187" y="800" type="curve"/>
      <point x="193" y="792"/>
      <point x="196" y="782"/>
      <point x="196" y="773" type="curve" smooth="yes"/>
      <point x="196" y="754"/>
      <point x="184" y="734"/>
      <point x="162" y="734" type="curve" smooth="yes"/>
      <point x="140" y="734"/>
      <point x="128" y="754"/>
      <point x="128" y="773" type="curve" smooth="yes"/>
      <point x="128" y="783"/>
      <point x="131" y="794"/>
      <point x="137" y="801" type="curve"/>
      <point x="132" y="802"/>
      <point x="127" y="803"/>
      <point x="122" y="803" type="curve" smooth="yes"/>
      <point x="111" y="803"/>
      <point x="100" y="798"/>
      <point x="100" y="787" type="curve" smooth="yes"/>
      <point x="100" y="13" type="line" smooth="yes"/>
      <point x="100" y="2"/>
      <point x="111" y="-3"/>
      <point x="122" y="-3" type="curve" smooth="yes"/>
      <point x="127" y="-3"/>
      <point x="132" y="-2"/>
      <point x="138" y="-1" type="curve"/>
      <point x="131" y="6"/>
      <point x="128" y="17"/>
      <point x="128" y="27" type="curve" smooth="yes"/>
      <point x="128" y="46"/>
      <point x="139" y="66"/>
    </contour>
  </outline>
</glyph>
<glyph name="uni047C" format="2">
  <advance width="355"/>
  <unicode hex="047C"/>
  <anchor x="177" y="1038" name="Yerik"/>
  <anchor x="175" y="1038" name="Diacritic"/>
  <outline>
    <contour>
      <point x="210" y="82" type="line" smooth="yes"/>
      <point x="210" y="32"/>
      <point x="242" y="-3"/>
      <point x="258" y="-3" type="curve" smooth="yes"/>
      <point x="277" y="-3"/>
      <point x="278" y="16"/>
      <point x="278" y="34" type="curve" smooth="yes"/>
      <point x="278" y="68"/>
      <point x="259" y="121"/>
      <point x="255" y="151" type="curve"/>
      <point x="255" y="767" type="line" smooth="yes"/>
      <point x="255" y="784"/>
      <point x="247" y="788"/>
      <point x="238" y="788" type="curve" smooth="yes"/>
      <point x="228" y="788"/>
      <point x="221" y="780"/>
      <point x="221" y="766" type="curve" smooth="yes"/>
      <point x="221" y="741" type="line" smooth="yes"/>
      <point x="221" y="734"/>
      <point x="211" y="734"/>
      <point x="211" y="741" type="curve" smooth="yes"/>
      <point x="211" y="758" type="line" smooth="yes"/>
      <point x="211" y="785"/>
      <point x="223" y="812"/>
      <point x="262" y="812" type="curve" smooth="yes"/>
      <point x="303" y="812"/>
      <point x="320" y="774"/>
      <point x="320" y="727" type="curve" smooth="yes"/>
      <point x="320" y="73" type="line" smooth="yes"/>
      <point x="320" y="26"/>
      <point x="304" y="-12"/>
      <point x="256" y="-12" type="curve" smooth="yes"/>
      <point x="240" y="-12"/>
      <point x="214" y="4"/>
      <point x="196" y="38" type="curve" smooth="yes"/>
      <point x="190" y="50"/>
      <point x="185" y="64"/>
      <point x="181" y="73" type="curve" smooth="yes"/>
      <point x="180" y="74"/>
      <point x="177" y="75"/>
      <point x="177" y="76" type="curve" smooth="yes"/>
      <point x="174" y="73" type="line"/>
      <point x="170" y="64"/>
      <point x="165" y="50"/>
      <point x="159" y="38" type="curve" smooth="yes"/>
      <point x="141" y="4"/>
      <point x="115" y="-12"/>
      <point x="99" y="-12" type="curve" smooth="yes"/>
      <point x="51" y="-12"/>
      <point x="35" y="26"/>
      <point x="35" y="73" type="curve" smooth="yes"/>
      <point x="35" y="727" type="line" smooth="yes"/>
      <point x="35" y="774"/>
      <point x="52" y="812"/>
      <point x="93" y="812" type="curve" smooth="yes"/>
      <point x="132" y="812"/>
      <point x="144" y="786"/>
      <point x="144" y="758" type="curve" smooth="yes"/>
      <point x="144" y="741" type="line" smooth="yes"/>
      <point x="144" y="734"/>
      <point x="134" y="734"/>
      <point x="134" y="741" type="curve" smooth="yes"/>
      <point x="134" y="766" type="line" smooth="yes"/>
      <point x="134" y="780"/>
      <point x="127" y="788"/>
      <point x="117" y="788" type="curve" smooth="yes"/>
      <point x="108" y="788"/>
      <point x="100" y="784"/>
      <point x="100" y="767" type="curve" smooth="yes"/>
      <point x="100" y="151" type="line"/>
      <point x="96" y="121"/>
      <point x="77" y="68"/>
      <point x="77" y="34" type="curve" smooth="yes"/>
      <point x="77" y="16"/>
      <point x="78" y="-3"/>
      <point x="97" y="-3" type="curve" smooth="yes"/>
      <point x="113" y="-3"/>
      <point x="145" y="33"/>
      <point x="145" y="82" type="curve" smooth="yes"/>
      <point x="145" y="637" type="line"/>
      <point x="125" y="637" type="line"/>
      <point x="125" y="647" type="line"/>
      <point x="230" y="647" type="line"/>
      <point x="230" y="637" type="line"/>
      <point x="210" y="637" type="line"/>
    </contour>
    <contour>
      <point x="63" y="876" type="line"/>
      <point x="61" y="879"/>
      <point x="58" y="884"/>
      <point x="58" y="891" type="curve" smooth="yes"/>
      <point x="58" y="901"/>
      <point x="67" y="919"/>
      <point x="75" y="929" type="curve" smooth="yes"/>
      <point x="79" y="936"/>
      <point x="84" y="942"/>
      <point x="91" y="946" type="curve" smooth="yes"/>
      <point x="129" y="965"/>
      <point x="175" y="981"/>
      <point x="210" y="985" type="curve" smooth="yes"/>
      <point x="215" y="986"/>
      <point x="222" y="986"/>
      <point x="225" y="983" type="curve" smooth="yes"/>
      <point x="265" y="952"/>
      <point x="324" y="891"/>
      <point x="348" y="874" type="curve" smooth="yes"/>
      <point x="350" y="869"/>
      <point x="350" y="865"/>
      <point x="349" y="860" type="curve"/>
      <point x="296" y="860" type="line"/>
      <point x="265" y="879"/>
      <point x="235" y="929"/>
      <point x="198" y="953" type="curve" smooth="yes"/>
      <point x="193" y="955"/>
      <point x="183" y="955"/>
      <point x="173" y="955" type="curve" smooth="yes"/>
      <point x="165" y="955"/>
      <point x="157" y="955"/>
      <point x="151" y="954" type="curve" smooth="yes"/>
      <point x="141" y="952"/>
      <point x="123" y="942"/>
      <point x="115" y="936" type="curve"/>
      <point x="111" y="928"/>
      <point x="108" y="921"/>
      <point x="107" y="915" type="curve" smooth="yes"/>
      <point x="106" y="904"/>
      <point x="109" y="890"/>
      <point x="110" y="884" type="curve"/>
      <point x="110" y="880" type="line"/>
    </contour>
    <contour>
      <point x="198" y="859" type="line"/>
      <point x="202" y="867"/>
      <point x="204" y="872"/>
      <point x="204" y="881" type="curve" smooth="yes"/>
      <point x="204" y="894"/>
      <point x="192" y="909"/>
      <point x="177" y="909" type="curve" smooth="yes"/>
      <point x="160" y="909"/>
      <point x="151" y="897"/>
      <point x="151" y="885" type="curve" smooth="yes"/>
      <point x="151" y="873"/>
      <point x="156" y="863"/>
      <point x="158" y="859" type="curve"/>
      <point x="149" y="856" type="line"/>
      <point x="140" y="863"/>
      <point x="129" y="879"/>
      <point x="129" y="896" type="curve" smooth="yes"/>
      <point x="129" y="918"/>
      <point x="147" y="939"/>
      <point x="174" y="939" type="curve" smooth="yes"/>
      <point x="201" y="939"/>
      <point x="225" y="915"/>
      <point x="225" y="894" type="curve" smooth="yes"/>
      <point x="225" y="879"/>
      <point x="213" y="861"/>
      <point x="207" y="856" type="curve"/>
    </contour>
  </outline>
</glyph>
<glyph name="uni047E" format="2">
  <advance width="355"/>
  <unicode hex="047E"/>
  <anchor x="280" y="968" name="Yerik"/>
  <anchor x="175" y="968" name="Diacritic"/>
  <outline>
    <contour>
      <point x="320" y="73" type="line" smooth="yes"/>
      <point x="320" y="26"/>
      <point x="304" y="-12"/>
      <point x="256" y="-12" type="curve" smooth="yes"/>
      <point x="240" y="-12"/>
      <point x="214" y="4"/>
      <point x="196" y="38" type="curve" smooth="yes"/>
      <point x="190" y="50"/>
      <point x="185" y="64"/>
      <point x="181" y="73" type="curve" smooth="yes"/>
      <point x="180" y="74"/>
      <point x="177" y="75"/>
      <point x="177" y="76" type="curve" smooth="yes"/>
      <point x="174" y="73" type="line"/>
      <point x="170" y="64"/>
      <point x="165" y="50"/>
      <point x="159" y="38" type="curve" smooth="yes"/>
      <point x="141" y="4"/>
      <point x="115" y="-12"/>
      <point x="99" y="-12" type="curve" smooth="yes"/>
      <point x="51" y="-12"/>
      <point x="35" y="26"/>
      <point x="35" y="73" type="curve" smooth="yes"/>
      <point x="35" y="727" type="line" smooth="yes"/>
      <point x="35" y="774"/>
      <point x="52" y="812"/>
      <point x="93" y="812" type="curve" smooth="yes"/>
      <point x="132" y="812"/>
      <point x="144" y="786"/>
      <point x="144" y="758" type="curve" smooth="yes"/>
      <point x="144" y="741" type="line" smooth="yes"/>
      <point x="144" y="734"/>
      <point x="134" y="734"/>
      <point x="134" y="741" type="curve" smooth="yes"/>
      <point x="134" y="766" type="line" smooth="yes"/>
      <point x="134" y="780"/>
      <point x="127" y="788"/>
      <point x="117" y="788" type="curve" smooth="yes"/>
      <point x="108" y="788"/>
      <point x="100" y="784"/>
      <point x="100" y="767" type="curve" smooth="yes"/>
      <point x="100" y="151" type="line"/>
      <point x="96" y="121"/>
      <point x="77" y="68"/>
      <point x="77" y="34" type="curve" smooth="yes"/>
      <point x="77" y="16"/>
      <point x="78" y="-3"/>
      <point x="97" y="-3" type="curve" smooth="yes"/>
      <point x="113" y="-3"/>
      <point x="145" y="33"/>
      <point x="145" y="82" type="curve" smooth="yes"/>
      <point x="145" y="637" type="line"/>
      <point x="125" y="637" type="line"/>
      <point x="125" y="647" type="line"/>
      <point x="230" y="647" type="line"/>
      <point x="230" y="637" type="line"/>
      <point x="210" y="637" type="line"/>
      <point x="210" y="82" type="line" smooth="yes"/>
      <point x="210" y="32"/>
      <point x="242" y="-3"/>
      <point x="258" y="-3" type="curve" smooth="yes"/>
      <point x="277" y="-3"/>
      <point x="278" y="16"/>
      <point x="278" y="34" type="curve" smooth="yes"/>
      <point x="278" y="68"/>
      <point x="259" y="121"/>
      <point x="255" y="151" type="curve"/>
      <point x="255" y="767" type="line" smooth="yes"/>
      <point x="255" y="784"/>
      <point x="247" y="788"/>
      <point x="238" y="788" type="curve" smooth="yes"/>
      <point x="228" y="788"/>
      <point x="221" y="780"/>
      <point x="221" y="766" type="curve" smooth="yes"/>
      <point x="221" y="741" type="line" smooth="yes"/>
      <point x="221" y="734"/>
      <point x="211" y="734"/>
      <point x="211" y="741" type="curve" smooth="yes"/>
      <point x="211" y="758" type="line" smooth="yes"/>
      <point x="211" y="785"/>
      <point x="223" y="812"/>
      <point x="262" y="812" type="curve" smooth="yes"/>
      <point x="303" y="812"/>
      <point x="320" y="774"/>
      <point x="320" y="727" type="curve" smooth="yes"/>
    </contour>
    <contour>
      <point x="320" y="910" type="line"/>
      <point x="316" y="905"/>
      <point x="311" y="879"/>
      <point x="311" y="870" type="curve" smooth="yes"/>
      <point x="311" y="859"/>
      <point x="313" y="846"/>
      <point x="316" y="839" type="curve"/>
      <point x="312" y="836" type="line"/>
      <point x="288" y="840"/>
      <point x="258" y="881"/>
      <point x="256" y="905" type="curve"/>
      <point x="210" y="905" type="line"/>
      <point x="210" y="843" type="line"/>
      <point x="145" y="843" type="line"/>
      <point x="145" y="905" type="line"/>
      <point x="99" y="905" type="line"/>
      <point x="96" y="881"/>
      <point x="67" y="840"/>
      <point x="43" y="836" type="curve"/>
      <point x="39" y="839" type="line"/>
      <point x="42" y="846"/>
      <point x="44" y="859"/>
      <point x="44" y="870" type="curve" smooth="yes"/>
      <point x="44" y="879"/>
      <point x="39" y="905"/>
      <point x="35" y="910" type="curve"/>
      <point x="35" y="915" type="line"/>
      <point x="320" y="915" type="line"/>
    </contour>
  </outline>
</glyph>
<glyph name="uni0483" format="2">
  <advance width="1"/>
  <unicode hex="0483"/>
  <anchor x="-139" y="991" name="Stack"/>
  <anchor x="-139" y="847" name="_Stack"/>
  <anchor x="-139" y="847" name="_Diacritic"/>
  <outline>
    <contour>
      <point x="-29" y="878" type="line"/>
      <point x="-31" y="868" type="line"/>
      <point x="-175" y="899" type="line"/>
      <point x="-175" y="849" type="line"/>
      <point x="-240" y="849" type="line"/>
      <point x="-240" y="913" type="line"/>
      <point x="-261" y="918" type="line"/>
      <point x="-259" y="928" type="line"/>
      <point x="-114" y="896" type="line"/>
      <point x="-114" y="946" type="line"/>
      <point x="-49" y="946" type="line"/>
      <point x="-49" y="882" type="line"/>
    </contour>
  </outline>
</glyph>
<glyph name="emdash" format="2">
  <advance width="455"/>
  <unicode hex="2014"/>
  <outline>
    <contour>
      <point x="430" y="380" type="line"/>
      <point x="25" y="380" type="line"/>
      <point x="25" y="420" type="line"/>
      <point x="430" y="420" type="line"/>
    </contour>
  </outline>
</glyph>
<glyph name="quoteleft" format="2">
  <advance width="132"/>
  <unicode hex="2018"/>
  <outline>
    <contour>
      <point x="113" y="793" type="line"/>
      <point x="63" y="576" type="line"/>
      <point x="21" y="576" type="line"/>
      <point x="21" y="583" type="line"/>
      <point x="87" y="800" type="line"/>
      <point x="113" y="800" type="line"/>
    </contour>
  </outline>
</glyph>
<glyph name="quotedblleft" format="2">
  <advance width="202"/>
  <unicode hex="201C"/>
  <outline>
    <contour>
      <point x="113" y="793" type="line"/>
      <point x="63" y="576" type="line"/>
      <point x="21" y="576" type="line"/>
      <point x="21" y="583" type="line"/>
      <point x="87" y="800" type="line"/>
      <point x="113" y="800" type="line"/>
    </contour>
    <contour>
      <point x="183" y="793" type="line"/>
      <point x="133" y="576" type="line"/>
      <point x="91" y="576" type="line"/>
      <point x="91" y="583" type="line"/>
      <point x="157" y="800" type="line"/>
      <point x="183" y="800" type="line"/>
    </contour>
  </outline>
</glyph>
<glyph name="quotedblbase" format="2">
  <advance width="202"/>
  <unicode hex="201E"/>
  <outline>
    <contour>
      <point x="182" y="217" type="line"/>
      <point x="116" y="0" type="line"/>
      <point x="90" y="0" type="line"/>
      <point x="90" y="7" type="line"/>
      <point x="140" y="224" type="line"/>
      <point x="182" y="224" type="line"/>
    </contour>
    <contour>
      <point x="112" y="217" type="line"/>
      <point x="46" y="0" type="line"/>
      <point x="20" y="0" type="line"/>
      <point x="20" y="7" type="line"/>
      <point x="70" y="224" type="line"/>
      <point x="112" y="224" type="line"/>
    </contour>
  </outline>
</glyph>
<glyph name="uni2DE1" format="2">
  <advance width="1"/>
  <unicode hex="2DE1"/>
  <anchor x="-130" y="992" name="Stack"/>
  <anchor x="-130" y="838" name="_Stack"/>
  <anchor x="-129" y="838" name="_Diacritic"/>
  <outline>
    <contour>
      <point x="-74" y="840" type="curve" smooth="yes"/>
      <point x="-176" y="840" type="line" smooth="yes"/>
      <point x="-182" y="840"/>
      <point x="-182" y="852"/>
      <point x="-176" y="852" type="curve" smooth="yes"/>
      <point x="-172" y="852" type="line"/>
      <point x="-167" y="866"/>
      <point x="-167" y="903"/>
      <point x="-167" y="921" type="curve"/>
      <point x="-174" y="921" type="line" smooth="yes"/>
      <point x="-180" y="921"/>
      <point x="-181" y="933"/>
      <point x="-174" y="933" type="curve" smooth="yes"/>
      <point x="-89" y="933" type="line" smooth="yes"/>
      <point x="-83" y="933"/>
      <point x="-83" y="921"/>
      <point x="-89" y="921" type="curve" smooth="yes"/>
      <point x="-95" y="921" type="line"/>
      <point x="-95" y="913"/>
      <point x="-95" y="897"/>
      <point x="-92" y="882" type="curve" smooth="yes"/>
      <point x="-91" y="870"/>
      <point x="-87" y="858"/>
      <point x="-86" y="852" type="curve"/>
      <point x="-74" y="852" type="line" smooth="yes"/>
      <point x="-70" y="852"/>
      <point x="-69" y="840"/>
    </contour>
    <contour>
      <point x="-121" y="852" type="line"/>
      <point x="-122" y="858"/>
      <point x="-124" y="869"/>
      <point x="-124" y="878" type="curve" smooth="yes"/>
      <point x="-124" y="894"/>
      <point x="-125" y="913"/>
      <point x="-125" y="921" type="curve"/>
      <point x="-136" y="921" type="line"/>
      <point x="-136" y="913"/>
      <point x="-136" y="896"/>
      <point x="-137" y="882" type="curve" smooth="yes"/>
      <point x="-137" y="873"/>
      <point x="-137" y="857"/>
      <point x="-137" y="852" type="curve"/>
    </contour>
  </outline>
</glyph>
<glyph name="uni2DE2" format="2">
  <advance width="1"/>
  <unicode hex="2DE2"/>
  <anchor x="-138" y="989" name="Stack"/>
  <anchor x="-138" y="838" name="_Stack"/>
  <anchor x="-138" y="838" name="_Diacritic"/>
  <outline>
    <contour>
      <point x="-89" y="920" type="line"/>
      <point x="-98" y="905" type="line"/>
      <point x="-107" y="905" type="line"/>
      <point x="-120" y="920" type="line"/>
      <point x="-137" y="920" type="line"/>
      <point x="-137" y="840" type="line"/>
      <point x="-170" y="840" type="line"/>
      <point x="-170" y="932" type="line"/>
      <point x="-89" y="932" type="line"/>
    </contour>
  </outline>
</glyph>
<glyph name="uni2DE3" format="2">
  <advance width="1"/>
  <unicode hex="2DE3"/>
  <anchor x="-142" y="1104" name="Stack"/>
  <anchor x="-142" y="822" name="_Stack"/>
  <anchor x="-145" y="822" name="_Diacritic"/>
  <outline>
    <contour>
      <point x="21" y="868" type="line"/>
      <point x="-27" y="822" type="line"/>
      <point x="-31" y="822" type="line"/>
      <point x="-31" y="868" type="line"/>
      <point x="-237" y="868" type="line"/>
      <point x="-237" y="822" type="line"/>
      <point x="-241" y="822" type="line"/>
      <point x="-289" y="868" type="line"/>
      <point x="-289" y="878" type="line"/>
      <point x="-194" y="878" type="line"/>
      <point x="-147" y="962" type="line"/>
      <point x="-176" y="1028" type="line"/>
      <point x="-189" y="1029" type="line"/>
      <point x="-219" y="976" type="line"/>
      <point x="-260" y="984" type="line"/>
      <point x="-228" y="1041" type="line"/>
      <point x="-130" y="1033" type="line"/>
      <point x="-61" y="878" type="line"/>
      <point x="21" y="878" type="line"/>
    </contour>
    <contour>
      <point x="-182" y="878" type="line"/>
      <point x="-110" y="878" type="line"/>
      <point x="-142" y="950" type="line"/>
    </contour>
  </outline>
</glyph>
<glyph name="uni2DE4" format="2">
  <advance width="1"/>
  <unicode hex="2DE4"/>
  <anchor x="-157" y="1076" name="Stack"/>
  <anchor x="-157" y="848" name="_Stack"/>
  <anchor x="-154" y="847" name="_Diacritic"/>
  <outline>
    <contour>
      <point x="-157" y="887" type="curve"/>
      <point x="-174" y="874"/>
      <point x="-197" y="863"/>
      <point x="-214" y="856" type="curve" smooth="yes"/>
      <point x="-218" y="854"/>
      <point x="-222" y="853"/>
      <point x="-225" y="853" type="curve" smooth="yes"/>
      <point x="-231" y="853"/>
      <point x="-235" y="857"/>
      <point x="-235" y="860" type="curve" smooth="yes"/>
      <point x="-235" y="862"/>
      <point x="-233" y="864"/>
      <point x="-230" y="866" type="curve" smooth="yes"/>
      <point x="-207" y="876"/>
      <point x="-190" y="889"/>
      <point x="-176" y="905" type="curve"/>
      <point x="-198" y="921"/>
      <point x="-221" y="952"/>
      <point x="-258" y="957" type="curve"/>
      <point x="-241" y="965"/>
      <point x="-232" y="981"/>
      <point x="-216" y="996" type="curve"/>
      <point x="-191" y="995"/>
      <point x="-183" y="979"/>
      <point x="-161" y="977" type="curve" smooth="yes"/>
      <point x="-139" y="977"/>
      <point x="-121" y="983"/>
      <point x="-100" y="997" type="curve" smooth="yes"/>
      <point x="-98" y="999"/>
      <point x="-94" y="997"/>
      <point x="-94" y="995" type="curve" smooth="yes"/>
      <point x="-92" y="984"/>
      <point x="-93" y="977"/>
      <point x="-84" y="969" type="curve"/>
      <point x="-68" y="978"/>
      <point x="-40" y="989"/>
      <point x="-13" y="989" type="curve" smooth="yes"/>
      <point x="-4" y="989"/>
      <point x="5" y="988"/>
      <point x="14" y="985" type="curve" smooth="yes"/>
      <point x="29" y="979"/>
      <point x="36" y="967"/>
      <point x="36" y="954" type="curve" smooth="yes"/>
      <point x="36" y="945"/>
      <point x="15" y="931"/>
      <point x="-3" y="931" type="curve" smooth="yes"/>
      <point x="-10" y="931"/>
      <point x="-17" y="934"/>
      <point x="-22" y="939" type="curve" smooth="yes"/>
      <point x="-30" y="949"/>
      <point x="-40" y="953"/>
      <point x="-51" y="953" type="curve" smooth="yes"/>
      <point x="-74" y="953"/>
      <point x="-102" y="936"/>
      <point x="-118" y="921" type="curve"/>
      <point x="-109" y="887"/>
      <point x="-86" y="871"/>
      <point x="-67" y="857" type="curve" smooth="yes"/>
      <point x="-62" y="854"/>
      <point x="-61" y="851"/>
      <point x="-61" y="849" type="curve" smooth="yes"/>
      <point x="-61" y="845"/>
      <point x="-67" y="844"/>
      <point x="-73" y="844" type="curve" smooth="yes"/>
      <point x="-76" y="844"/>
      <point x="-78" y="844"/>
      <point x="-81" y="845" type="curve" smooth="yes"/>
      <point x="-110" y="853"/>
      <point x="-134" y="869"/>
    </contour>
  </outline>
</glyph>
<glyph name="uni2DE5" format="2">
  <advance width="1"/>
  <unicode hex="2DE5"/>
  <anchor x="-142" y="1046" name="Stack"/>
  <anchor x="-142" y="858" name="_Stack"/>
  <anchor x="-142" y="858" name="_Diacritic"/>
  <outline>
    <contour>
      <point x="-276" y="903" type="curve" smooth="yes"/>
      <point x="-276" y="894"/>
      <point x="-259" y="895"/>
      <point x="-254" y="895" type="curve" smooth="yes"/>
      <point x="-248" y="895"/>
      <point x="-244" y="882"/>
      <point x="-255" y="882" type="curve" smooth="yes"/>
      <point x="-271" y="882"/>
      <point x="-297" y="883"/>
      <point x="-297" y="900" type="curve" smooth="yes"/>
      <point x="-295" y="911"/>
      <point x="-282" y="931"/>
      <point x="-263" y="946" type="curve"/>
      <point x="-265" y="949"/>
      <point x="-266" y="952"/>
      <point x="-266" y="955" type="curve" smooth="yes"/>
      <point x="-266" y="965"/>
      <point x="-259" y="976"/>
      <point x="-250" y="981" type="curve" smooth="yes"/>
      <point x="-245" y="983"/>
      <point x="-240" y="984"/>
      <point x="-235" y="984" type="curve" smooth="yes"/>
      <point x="-227" y="984"/>
      <point x="-221" y="982"/>
      <point x="-215" y="978" type="curve"/>
      <point x="-194" y="990"/>
      <point x="-168" y="999"/>
      <point x="-141" y="999" type="curve" smooth="yes"/>
      <point x="-127" y="999"/>
      <point x="-103" y="992"/>
      <point x="-99" y="983" type="curve" smooth="yes"/>
      <point x="-95" y="969"/>
      <point x="-89" y="940"/>
      <point x="-65" y="940" type="curve" smooth="yes"/>
      <point x="-59" y="940"/>
      <point x="-52" y="941"/>
      <point x="-45" y="941" type="curve" smooth="yes"/>
      <point x="-17" y="941"/>
      <point x="13" y="936"/>
      <point x="13" y="909" type="curve" smooth="yes"/>
      <point x="13" y="906"/>
      <point x="13" y="902"/>
      <point x="12" y="898" type="curve" smooth="yes"/>
      <point x="6" y="878"/>
      <point x="-15" y="858"/>
      <point x="-59" y="857" type="curve" smooth="yes"/>
      <point x="-61" y="857"/>
      <point x="-63" y="857"/>
      <point x="-65" y="857" type="curve" smooth="yes"/>
      <point x="-86" y="857"/>
      <point x="-102" y="862"/>
      <point x="-115" y="870" type="curve" smooth="yes"/>
      <point x="-119" y="873"/>
      <point x="-120" y="876"/>
      <point x="-120" y="878" type="curve" smooth="yes"/>
      <point x="-120" y="881"/>
      <point x="-117" y="884"/>
      <point x="-112" y="884" type="curve" smooth="yes"/>
      <point x="-109" y="884"/>
      <point x="-105" y="883"/>
      <point x="-101" y="881" type="curve" smooth="yes"/>
      <point x="-95" y="878"/>
      <point x="-88" y="870"/>
      <point x="-79" y="870" type="curve" smooth="yes"/>
      <point x="-76" y="870"/>
      <point x="-72" y="870"/>
      <point x="-69" y="870" type="curve" smooth="yes"/>
      <point x="-37" y="870"/>
      <point x="-15" y="879"/>
      <point x="-15" y="900" type="curve" smooth="yes"/>
      <point x="-15" y="912"/>
      <point x="-35" y="912"/>
      <point x="-63" y="912" type="curve" smooth="yes"/>
      <point x="-78" y="912"/>
      <point x="-94" y="911"/>
      <point x="-106" y="911" type="curve" smooth="yes"/>
      <point x="-110" y="911"/>
      <point x="-113" y="914"/>
      <point x="-115" y="915" type="curve" smooth="yes"/>
      <point x="-130" y="932"/>
      <point x="-140" y="954"/>
      <point x="-144" y="979" type="curve" smooth="yes"/>
      <point x="-146" y="981"/>
      <point x="-149" y="982"/>
      <point x="-151" y="982" type="curve" smooth="yes"/>
      <point x="-169" y="982"/>
      <point x="-187" y="974"/>
      <point x="-205" y="966" type="curve"/>
      <point x="-205" y="965"/>
      <point x="-205" y="963"/>
      <point x="-205" y="962" type="curve" smooth="yes"/>
      <point x="-205" y="953"/>
      <point x="-210" y="940"/>
      <point x="-221" y="934" type="curve" smooth="yes"/>
      <point x="-227" y="931"/>
      <point x="-232" y="930"/>
      <point x="-237" y="930" type="curve" smooth="yes"/>
      <point x="-243" y="930"/>
      <point x="-249" y="932"/>
      <point x="-254" y="934" type="curve"/>
      <point x="-269" y="921"/>
      <point x="-277" y="912"/>
      <point x="-277" y="906" type="curve" smooth="yes"/>
      <point x="-277" y="905"/>
      <point x="-276" y="904"/>
    </contour>
  </outline>
</glyph>
<glyph name="uni2DE9" format="2">
  <advance width="1"/>
  <unicode hex="2DE9"/>
  <anchor x="-130" y="979" name="Stack"/>
  <anchor x="-130" y="841" name="_Stack"/>
  <anchor x="-130" y="838" name="_Diacritic"/>
  <outline>
    <contour>
      <point x="-177" y="926" type="line"/>
      <point x="-142" y="926" type="line"/>
      <point x="-142" y="893" type="line"/>
      <point x="-117" y="893" type="line"/>
      <point x="-117" y="927" type="line"/>
      <point x="-85" y="927" type="line"/>
      <point x="-85" y="840" type="line"/>
      <point x="-117" y="840" type="line"/>
      <point x="-117" y="878" type="line"/>
      <point x="-142" y="878" type="line"/>
      <point x="-142" y="840" type="line"/>
      <point x="-177" y="840" type="line"/>
    </contour>
  </outline>
</glyph>
<glyph name="uni2DEA" format="2">
  <advance width="1"/>
  <unicode hex="2DEA"/>
  <anchor x="-131" y="987" name="Stack"/>
  <anchor x="-135" y="838" name="_Stack"/>
  <anchor x="-134" y="837" name="_Diacritic"/>
  <outline>
    <contour>
      <point x="-133" y="852" type="curve" smooth="yes"/>
      <point x="-124" y="852"/>
      <point x="-115" y="861"/>
      <point x="-115" y="876" type="curve" smooth="yes"/>
      <point x="-115" y="897" type="line" smooth="yes"/>
      <point x="-115" y="909"/>
      <point x="-124" y="921"/>
      <point x="-133" y="921" type="curve" smooth="yes"/>
      <point x="-145" y="921"/>
      <point x="-151" y="909"/>
      <point x="-151" y="897" type="curve" smooth="yes"/>
      <point x="-151" y="876" type="line" smooth="yes"/>
      <point x="-151" y="861"/>
      <point x="-145" y="852"/>
    </contour>
    <contour>
      <point x="-133" y="933" type="curve" smooth="yes"/>
      <point x="-106" y="933"/>
      <point x="-82" y="915"/>
      <point x="-82" y="885" type="curve" smooth="yes"/>
      <point x="-82" y="855"/>
      <point x="-103" y="840"/>
      <point x="-133" y="840" type="curve" smooth="yes"/>
      <point x="-164" y="840"/>
      <point x="-187" y="855"/>
      <point x="-187" y="885" type="curve" smooth="yes"/>
      <point x="-187" y="915"/>
      <point x="-163" y="933"/>
    </contour>
  </outline>
</glyph>
<glyph name="uni2DEC" format="2">
  <advance width="1"/>
  <unicode hex="2DEC"/>
  <anchor x="-179" y="998" name="Stack"/>
  <anchor x="-179" y="840" name="_Stack"/>
  <anchor x="-179" y="839" name="_Diacritic"/>
  <outline>
    <contour>
      <point x="-231" y="838" type="curve"/>
      <point x="-229" y="843"/>
      <point x="-228" y="847"/>
      <point x="-228" y="857" type="curve" smooth="yes"/>
      <point x="-228" y="872"/>
      <point x="-228" y="888"/>
      <point x="-228" y="899" type="curve" smooth="yes"/>
      <point x="-228" y="914"/>
      <point x="-202" y="933"/>
      <point x="-177" y="933" type="curve" smooth="yes"/>
      <point x="-153" y="933"/>
      <point x="-127" y="917"/>
      <point x="-127" y="900" type="curve" smooth="yes"/>
      <point x="-127" y="884"/>
      <point x="-141" y="875"/>
      <point x="-168" y="875" type="curve" smooth="yes"/>
      <point x="-174" y="875"/>
      <point x="-190" y="877"/>
      <point x="-195" y="882" type="curve"/>
      <point x="-195" y="852" type="line" smooth="yes"/>
      <point x="-195" y="843"/>
      <point x="-231" y="838"/>
    </contour>
    <contour>
      <point x="-193" y="903" type="curve" smooth="yes"/>
      <point x="-193" y="897"/>
      <point x="-187" y="887"/>
      <point x="-177" y="887" type="curve" smooth="yes"/>
      <point x="-168" y="887"/>
      <point x="-159" y="894"/>
      <point x="-159" y="904" type="curve" smooth="yes"/>
      <point x="-159" y="911"/>
      <point x="-166" y="920"/>
      <point x="-177" y="920" type="curve" smooth="yes"/>
      <point x="-189" y="920"/>
      <point x="-193" y="912"/>
    </contour>
  </outline>
</glyph>
<glyph name="uni2DED" format="2">
  <advance width="1"/>
  <unicode hex="2DED"/>
  <anchor x="-140" y="991" name="Stack"/>
  <anchor x="-140" y="833" name="_Stack"/>
  <anchor x="-138" y="832" name="_Diacritic"/>
  <outline>
    <contour>
      <point x="-164" y="837" type="curve" smooth="yes"/>
      <point x="-167" y="837"/>
      <point x="-167" y="839"/>
      <point x="-167" y="842" type="curve" smooth="yes"/>
      <point x="-167" y="846"/>
      <point x="-167" y="852"/>
      <point x="-167" y="857" type="curve" smooth="yes"/>
      <point x="-167" y="871"/>
      <point x="-171" y="882"/>
      <point x="-171" y="896" type="curve" smooth="yes"/>
      <point x="-171" y="919"/>
      <point x="-145" y="929"/>
      <point x="-128" y="930" type="curve" smooth="yes"/>
      <point x="-123" y="931"/>
      <point x="-112" y="929"/>
      <point x="-111" y="929" type="curve"/>
      <point x="-111" y="926"/>
      <point x="-111" y="917"/>
      <point x="-111" y="912" type="curve"/>
      <point x="-113" y="912"/>
      <point x="-116" y="913"/>
      <point x="-118" y="913" type="curve" smooth="yes"/>
      <point x="-134" y="913"/>
      <point x="-139" y="903"/>
      <point x="-139" y="888" type="curve" smooth="yes"/>
      <point x="-139" y="876"/>
      <point x="-137" y="866"/>
      <point x="-137" y="857" type="curve"/>
      <point x="-127" y="856"/>
      <point x="-122" y="858"/>
      <point x="-114" y="864" type="curve" smooth="yes"/>
      <point x="-111" y="865"/>
      <point x="-108" y="854"/>
      <point x="-109" y="854" type="curve" smooth="yes"/>
      <point x="-117" y="838"/>
      <point x="-141" y="837"/>
    </contour>
  </outline>
</glyph>
<glyph name="uni2DEE" format="2">
  <advance width="0"/>
  <unicode hex="2DEE"/>
  <anchor x="-148" y="801" name="_Diacritic"/>
  <outline>
    <contour>
      <point x="-4" y="868" type="line"/>
      <point x="-8" y="863"/>
      <point x="-13" y="837"/>
      <point x="-13" y="828" type="curve" smooth="yes"/>
      <point x="-13" y="817"/>
      <point x="-11" y="804"/>
      <point x="-8" y="797" type="curve"/>
      <point x="-12" y="794" type="line"/>
      <point x="-36" y="798"/>
      <point x="-66" y="839"/>
      <point x="-68" y="863" type="curve"/>
      <point x="-114" y="863" type="line"/>
      <point x="-114" y="801" type="line"/>
      <point x="-179" y="801" type="line"/>
      <point x="-179" y="863" type="line"/>
      <point x="-225" y="863" type="line"/>
      <point x="-228" y="839"/>
      <point x="-257" y="798"/>
      <point x="-281" y="794" type="curve"/>
      <point x="-285" y="797" type="line"/>
      <point x="-282" y="804"/>
      <point x="-280" y="817"/>
      <point x="-280" y="828" type="curve" smooth="yes"/>
      <point x="-280" y="837"/>
      <point x="-285" y="863"/>
      <point x="-289" y="868" type="curve"/>
      <point x="-289" y="873" type="line"/>
      <point x="-4" y="873" type="line"/>
    </contour>
  </outline>
</glyph>
<glyph name="uni2DEF" format="2">
  <advance width="1"/>
  <unicode hex="2DEF"/>
  <anchor x="-158" y="1050" name="Stack"/>
  <anchor x="-158" y="852" name="_Stack"/>
  <anchor x="-156" y="851" name="_Diacritic"/>
  <outline>
    <contour>
      <point x="-117" y="863" type="curve" smooth="yes"/>
      <point x="-130" y="877"/>
      <point x="-141" y="889"/>
      <point x="-157" y="901" type="curve"/>
      <point x="-180" y="884"/>
      <point x="-203" y="865"/>
      <point x="-218" y="853" type="curve"/>
      <point x="-243" y="853" type="line"/>
      <point x="-245" y="854"/>
      <point x="-245" y="858"/>
      <point x="-244" y="858" type="curve" smooth="yes"/>
      <point x="-220" y="876"/>
      <point x="-198" y="892"/>
      <point x="-171" y="911" type="curve"/>
      <point x="-190" y="927"/>
      <point x="-214" y="947"/>
      <point x="-232" y="958" type="curve"/>
      <point x="-240" y="958"/>
      <point x="-259" y="961"/>
      <point x="-266" y="962" type="curve" smooth="yes"/>
      <point x="-268" y="962"/>
      <point x="-270" y="961"/>
      <point x="-270" y="959" type="curve" smooth="yes"/>
      <point x="-270" y="956"/>
      <point x="-270" y="953"/>
      <point x="-270" y="950" type="curve" smooth="yes"/>
      <point x="-270" y="935"/>
      <point x="-273" y="917"/>
      <point x="-278" y="909" type="curve"/>
      <point x="-289" y="906"/>
      <point x="-305" y="904"/>
      <point x="-316" y="904" type="curve" smooth="yes"/>
      <point x="-317" y="904"/>
      <point x="-317" y="906"/>
      <point x="-317" y="907" type="curve" smooth="yes"/>
      <point x="-309" y="927"/>
      <point x="-302" y="954"/>
      <point x="-294" y="974" type="curve" smooth="yes"/>
      <point x="-293" y="976"/>
      <point x="-289" y="978"/>
      <point x="-285" y="978" type="curve" smooth="yes"/>
      <point x="-275" y="977"/>
      <point x="-265" y="977"/>
      <point x="-254" y="977" type="curve" smooth="yes"/>
      <point x="-230" y="977"/>
      <point x="-205" y="978"/>
      <point x="-182" y="979" type="curve" smooth="yes"/>
      <point x="-180" y="979"/>
      <point x="-177" y="978"/>
      <point x="-176" y="978" type="curve" smooth="yes"/>
      <point x="-160" y="964"/>
      <point x="-147" y="953"/>
      <point x="-132" y="939" type="curve"/>
      <point x="-116" y="952"/>
      <point x="-100" y="964"/>
      <point x="-86" y="974" type="curve" smooth="yes"/>
      <point x="-69" y="985"/>
      <point x="-46" y="990"/>
      <point x="-18" y="992" type="curve" smooth="yes"/>
      <point x="-5" y="992"/>
      <point x="25" y="988"/>
      <point x="25" y="983" type="curve" smooth="yes"/>
      <point x="24" y="982" type="line" smooth="yes"/>
      <point x="16" y="975"/>
      <point x="6" y="970"/>
      <point x="1" y="961" type="curve" smooth="yes"/>
      <point x="-5" y="951"/>
      <point x="-7" y="941"/>
      <point x="-8" y="930" type="curve" smooth="yes"/>
      <point x="-8" y="929"/>
      <point x="-12" y="927"/>
      <point x="-13" y="929" type="curve" smooth="yes"/>
      <point x="-25" y="937"/>
      <point x="-47" y="949"/>
      <point x="-61" y="953" type="curve" smooth="yes"/>
      <point x="-62" y="954"/>
      <point x="-68" y="954"/>
      <point x="-70" y="953" type="curve" smooth="yes"/>
      <point x="-83" y="948"/>
      <point x="-100" y="937"/>
      <point x="-119" y="926" type="curve"/>
      <point x="-94" y="903"/>
      <point x="-66" y="879"/>
      <point x="-39" y="856" type="curve" smooth="yes"/>
      <point x="-37" y="855"/>
      <point x="-37" y="853"/>
      <point x="-40" y="853" type="curve" smooth="yes"/>
      <point x="-97" y="853" type="line"/>
      <point x="-106" y="854"/>
      <point x="-112" y="858"/>
    </contour>
  </outline>
</glyph>
<glyph name="uni2DF1" format="2">
  <advance width="1"/>
  <unicode hex="2DF1"/>
  <anchor x="-139" y="986" name="Stack"/>
  <anchor x="-139" y="838" name="_Stack"/>
  <anchor x="-136" y="838" name="_Diacritic"/>
  <outline>
    <contour>
      <point x="-185" y="926" type="curve"/>
      <point x="-149" y="926" type="line"/>
      <point x="-151" y="917"/>
      <point x="-149" y="903"/>
      <point x="-143" y="897" type="curve" smooth="yes"/>
      <point x="-136" y="891"/>
      <point x="-125" y="893"/>
      <point x="-125" y="893" type="curve"/>
      <point x="-125" y="927" type="line"/>
      <point x="-92" y="927" type="line"/>
      <point x="-92" y="840" type="line"/>
      <point x="-125" y="840" type="line"/>
      <point x="-125" y="876" type="line"/>
      <point x="-125" y="876"/>
      <point x="-136" y="875"/>
      <point x="-154" y="882" type="curve" smooth="yes"/>
      <point x="-170" y="888"/>
      <point x="-185" y="899"/>
    </contour>
  </outline>
</glyph>
<glyph name="uni2E2F" format="2">
  <advance width="130"/>
  <unicode hex="2E2F"/>
  <outline>
    <contour>
      <point x="96" y="878" type="line"/>
      <point x="30" y="843" type="line"/>
      <point x="24" y="854" type="line"/>
      <point x="56" y="870" type="line"/>
      <point x="36" y="938" type="line"/>
      <point x="100" y="971" type="line"/>
      <point x="106" y="960" type="line"/>
      <point x="78" y="944" type="line"/>
    </contour>
  </outline>
</glyph>
<glyph name="uniA64A" format="2">
  <advance width="236"/>
  <unicode hex="A64A"/>
  <anchor x="182" y="858" name="Yerik"/>
  <anchor x="122" y="858" name="Diacritic"/>
  <outline>
    <contour>
      <point x="44" y="158" type="line" smooth="yes"/>
      <point x="44" y="222"/>
      <point x="72" y="288"/>
      <point x="123" y="288" type="curve" smooth="yes"/>
      <point x="124" y="288" type="line"/>
      <point x="126" y="332" type="line"/>
      <point x="61" y="332" type="line"/>
      <point x="32" y="790" type="line"/>
      <point x="5" y="790" type="line"/>
      <point x="5" y="800" type="line"/>
      <point x="130" y="800" type="line"/>
      <point x="130" y="790" type="line"/>
      <point x="97" y="790" type="line"/>
      <point x="126" y="342" type="line"/>
      <point x="127" y="342" type="line"/>
      <point x="145" y="715" type="line" smooth="yes"/>
      <point x="147" y="763"/>
      <point x="161" y="806"/>
      <point x="198" y="806" type="curve" smooth="yes"/>
      <point x="224" y="806" type="line"/>
      <point x="224" y="741" type="line"/>
      <point x="194" y="741" type="line" smooth="yes"/>
      <point x="175" y="741"/>
      <point x="156" y="721"/>
      <point x="152" y="644" type="curve" smooth="yes"/>
      <point x="134" y="287" type="line"/>
      <point x="178" y="278"/>
      <point x="203" y="217"/>
      <point x="203" y="158" type="curve" smooth="yes"/>
      <point x="203" y="118" type="line" smooth="yes"/>
      <point x="203" y="54"/>
      <point x="174" y="-12"/>
      <point x="123" y="-12" type="curve" smooth="yes"/>
      <point x="72" y="-12"/>
      <point x="44" y="54"/>
      <point x="44" y="118" type="curve" smooth="yes"/>
    </contour>
    <contour>
      <point x="149" y="252" type="line" smooth="yes"/>
      <point x="149" y="265"/>
      <point x="141" y="273"/>
      <point x="134" y="276" type="curve"/>
      <point x="122" y="30" type="line" smooth="yes"/>
      <point x="122" y="23"/>
      <point x="112" y="23"/>
      <point x="112" y="30" type="curve" smooth="yes"/>
      <point x="124" y="279" type="line"/>
      <point x="123" y="279" type="line" smooth="yes"/>
      <point x="113" y="279"/>
      <point x="98" y="272"/>
      <point x="98" y="252" type="curve" smooth="yes"/>
      <point x="98" y="24" type="line" smooth="yes"/>
      <point x="98" y="4"/>
      <point x="113" y="-3"/>
      <point x="123" y="-3" type="curve" smooth="yes"/>
      <point x="133" y="-3"/>
      <point x="149" y="4"/>
      <point x="149" y="24" type="curve" smooth="yes"/>
    </contour>
  </outline>
</glyph>
<glyph name="uniA64C" format="2">
  <advance width="355"/>
  <unicode hex="A64C"/>
  <anchor x="282" y="858" name="Yerik"/>
  <anchor x="176" y="858" name="Diacritic"/>
  <outline>
    <contour>
      <point x="210" y="82" type="line" smooth="yes"/>
      <point x="210" y="32"/>
      <point x="242" y="-3"/>
      <point x="258" y="-3" type="curve" smooth="yes"/>
      <point x="277" y="-3"/>
      <point x="278" y="16"/>
      <point x="278" y="34" type="curve" smooth="yes"/>
      <point x="278" y="68"/>
      <point x="259" y="121"/>
      <point x="255" y="151" type="curve"/>
      <point x="255" y="767" type="line" smooth="yes"/>
      <point x="255" y="784"/>
      <point x="247" y="788"/>
      <point x="238" y="788" type="curve" smooth="yes"/>
      <point x="228" y="788"/>
      <point x="221" y="780"/>
      <point x="221" y="766" type="curve" smooth="yes"/>
      <point x="221" y="741" type="line" smooth="yes"/>
      <point x="221" y="734"/>
      <point x="211" y="734"/>
      <point x="211" y="741" type="curve" smooth="yes"/>
      <point x="211" y="758" type="line" smooth="yes"/>
      <point x="211" y="785"/>
      <point x="223" y="812"/>
      <point x="262" y="812" type="curve" smooth="yes"/>
      <point x="303" y="812"/>
      <point x="320" y="774"/>
      <point x="320" y="727" type="curve" smooth="yes"/>
      <point x="320" y="73" type="line" smooth="yes"/>
      <point x="320" y="26"/>
      <point x="304" y="-12"/>
      <point x="256" y="-12" type="curve" smooth="yes"/>
      <point x="240" y="-12"/>
      <point x="214" y="4"/>
      <point x="196" y="38" type="curve" smooth="yes"/>
      <point x="190" y="50"/>
      <point x="185" y="64"/>
      <point x="181" y="73" type="curve" smooth="yes"/>
      <point x="180" y="74"/>
      <point x="177" y="75"/>
      <point x="177" y="76" type="curve" smooth="yes"/>
      <point x="174" y="73" type="line"/>
      <point x="170" y="64"/>
      <point x="165" y="50"/>
      <point x="159" y="38" type="curve" smooth="yes"/>
      <point x="141" y="4"/>
      <point x="115" y="-12"/>
      <point x="99" y="-12" type="curve" smooth="yes"/>
      <point x="51" y="-12"/>
      <point x="35" y="26"/>
      <point x="35" y="73" type="curve" smooth="yes"/>
      <point x="35" y="727" type="line" smooth="yes"/>
      <point x="35" y="774"/>
      <point x="52" y="812"/>
      <point x="93" y="812" type="curve" smooth="yes"/>
      <point x="132" y="812"/>
      <point x="144" y="786"/>
      <point x="144" y="758" type="curve" smooth="yes"/>
      <point x="144" y="741" type="line" smooth="yes"/>
      <point x="144" y="734"/>
      <point x="134" y="734"/>
      <point x="134" y="741" type="curve" smooth="yes"/>
      <point x="134" y="766" type="line" smooth="yes"/>
      <point x="134" y="780"/>
      <point x="127" y="788"/>
      <point x="117" y="788" type="curve" smooth="yes"/>
      <point x="108" y="788"/>
      <point x="100" y="784"/>
      <point x="100" y="767" type="curve" smooth="yes"/>
      <point x="100" y="151" type="line"/>
      <point x="96" y="121"/>
      <point x="77" y="68"/>
      <point x="77" y="34" type="curve" smooth="yes"/>
      <point x="77" y="16"/>
      <point x="78" y="-3"/>
      <point x="97" y="-3" type="curve" smooth="yes"/>
      <point x="113" y="-3"/>
      <point x="145" y="33"/>
      <point x="145" y="82" type="curve" smooth="yes"/>
      <point x="145" y="637" type="line"/>
      <point x="125" y="637" type="line"/>
      <point x="125" y="647" type="line"/>
      <point x="230" y="647" type="line"/>
      <point x="230" y="637" type="line"/>
      <point x="210" y="637" type="line"/>
    </contour>
  </outline>
</glyph>
<glyph name="uniA656" format="2">
  <advance width="355"/>
  <unicode hex="A656"/>
  <anchor x="290" y="858" name="Yerik"/>
  <anchor x="176" y="858" name="Diacritic"/>
  <outline>
    <contour>
      <point x="214" y="793" type="curve" smooth="yes"/>
      <point x="201" y="793"/>
      <point x="194" y="783"/>
      <point x="194" y="773" type="curve" smooth="yes"/>
      <point x="194" y="761"/>
      <point x="198" y="751"/>
      <point x="203" y="741" type="curve" smooth="yes"/>
      <point x="217" y="711"/>
      <point x="236" y="680"/>
      <point x="236" y="639" type="curve" smooth="yes"/>
      <point x="236" y="575"/>
      <point x="198" y="526"/>
      <point x="173" y="490" type="curve" smooth="yes"/>
      <point x="169" y="484"/>
      <point x="161" y="490"/>
      <point x="165" y="496" type="curve" smooth="yes"/>
      <point x="180" y="516"/>
      <point x="194" y="532"/>
      <point x="194" y="571" type="curve" smooth="yes"/>
      <point x="194" y="591"/>
      <point x="192" y="598"/>
      <point x="184" y="616" type="curve" smooth="yes"/>
      <point x="179" y="626"/>
      <point x="171" y="648"/>
      <point x="165" y="665" type="curve"/>
      <point x="100" y="665" type="line"/>
      <point x="100" y="10" type="line"/>
      <point x="117" y="10" type="line"/>
      <point x="117" y="0" type="line"/>
      <point x="5" y="0" type="line"/>
      <point x="5" y="10" type="line"/>
      <point x="35" y="10" type="line"/>
      <point x="35" y="790" type="line"/>
      <point x="5" y="790" type="line"/>
      <point x="5" y="800" type="line"/>
      <point x="117" y="800" type="line"/>
      <point x="117" y="790" type="line"/>
      <point x="100" y="790" type="line"/>
      <point x="100" y="675" type="line"/>
      <point x="161" y="675" type="line"/>
      <point x="155" y="694"/>
      <point x="153" y="708"/>
      <point x="153" y="730" type="curve" smooth="yes"/>
      <point x="153" y="767"/>
      <point x="181" y="803"/>
      <point x="211" y="803" type="curve" smooth="yes"/>
      <point x="232" y="803"/>
      <point x="245" y="785"/>
      <point x="253" y="765" type="curve" smooth="yes"/>
      <point x="253" y="763"/>
      <point x="254" y="761"/>
      <point x="255" y="759" type="curve"/>
      <point x="255" y="790" type="line"/>
      <point x="240" y="790" type="line"/>
      <point x="240" y="800" type="line"/>
      <point x="350" y="800" type="line"/>
      <point x="350" y="790" type="line"/>
      <point x="320" y="790" type="line"/>
      <point x="320" y="10" type="line"/>
      <point x="350" y="10" type="line"/>
      <point x="350" y="0" type="line"/>
      <point x="238" y="0" type="line"/>
      <point x="238" y="10" type="line"/>
      <point x="255" y="10" type="line"/>
      <point x="255" y="375" type="line"/>
      <point x="244" y="362"/>
      <point x="231" y="347"/>
      <point x="224" y="338" type="curve" smooth="yes"/>
      <point x="211" y="323"/>
      <point x="210" y="303"/>
      <point x="210" y="283" type="curve" smooth="yes"/>
      <point x="210" y="278"/>
      <point x="210" y="273"/>
      <point x="210" y="268" type="curve" smooth="yes"/>
      <point x="210" y="10" type="line"/>
      <point x="227" y="10" type="line"/>
      <point x="227" y="0" type="line"/>
      <point x="128" y="0" type="line"/>
      <point x="128" y="10" type="line"/>
      <point x="145" y="10" type="line"/>
      <point x="145" y="212" type="line" smooth="yes"/>
      <point x="145" y="265"/>
      <point x="181" y="306"/>
      <point x="214" y="342" type="curve"/>
      <point x="201" y="342" type="line" smooth="yes"/>
      <point x="169" y="342"/>
      <point x="157" y="363"/>
      <point x="156" y="383" type="curve" smooth="yes"/>
      <point x="156" y="385"/>
      <point x="156" y="387"/>
      <point x="156" y="389" type="curve" smooth="yes"/>
      <point x="156" y="420"/>
      <point x="163" y="435"/>
      <point x="181" y="459" type="curve" smooth="yes"/>
      <point x="199" y="484"/>
      <point x="210" y="496"/>
      <point x="227" y="525" type="curve" smooth="yes"/>
      <point x="240" y="547"/>
      <point x="249" y="572"/>
      <point x="255" y="595" type="curve"/>
      <point x="255" y="719" type="line"/>
      <point x="250" y="741"/>
      <point x="238" y="793"/>
    </contour>
    <contour>
      <point x="235" y="519" type="curve" smooth="yes"/>
      <point x="218" y="490"/>
      <point x="210" y="466"/>
      <point x="210" y="433" type="curve" smooth="yes"/>
      <point x="210" y="368" type="line" smooth="yes"/>
      <point x="210" y="360"/>
      <point x="212" y="352"/>
      <point x="219" y="352" type="curve" smooth="yes"/>
      <point x="223" y="352" type="line"/>
      <point x="235" y="365"/>
      <point x="246" y="379"/>
      <point x="255" y="390" type="curve"/>
      <point x="255" y="559" type="line"/>
      <point x="250" y="545"/>
      <point x="243" y="532"/>
    </contour>
  </outline>
</glyph>
<glyph name="uniA67C" format="2">
  <advance width="0"/>
  <unicode hex="A67C"/>
  <anchor x="-120" y="876" name="Stack"/>
  <anchor x="-120" y="708" name="_Stack"/>
  <anchor x="-119" y="702" name="_Diacritic"/>
  <outline>
    <contour>
      <point x="-119" y="705" type="curve" smooth="yes"/>
      <point x="-177" y="705"/>
      <point x="-216" y="727"/>
      <point x="-216" y="775" type="curve" smooth="yes"/>
      <point x="-216" y="800" type="line"/>
      <point x="-151" y="800" type="line"/>
      <point x="-151" y="775" type="line" smooth="yes"/>
      <point x="-151" y="747"/>
      <point x="-146" y="725"/>
      <point x="-119" y="725" type="curve" smooth="yes"/>
      <point x="-91" y="725"/>
      <point x="-86" y="747"/>
      <point x="-86" y="775" type="curve" smooth="yes"/>
      <point x="-86" y="800" type="line"/>
      <point x="-22" y="800" type="line"/>
      <point x="-22" y="775" type="line" smooth="yes"/>
      <point x="-22" y="727"/>
      <point x="-61" y="705"/>
    </contour>
  </outline>
</glyph>
<glyph name="uniE000" format="2">
  <advance width="1"/>
  <unicode hex="E000"/>
  <anchor x="-137" y="976" name="Stack"/>
  <anchor x="-134" y="838" name="_Stack"/>
  <anchor x="-134" y="838" name="_Diacritic"/>
  <outline>
    <contour>
      <point x="-116" y="852" type="line"/>
      <point x="-108" y="859"/>
      <point x="-103" y="869"/>
      <point x="-103" y="880" type="curve" smooth="yes"/>
      <point x="-103" y="902"/>
      <point x="-113" y="913"/>
      <point x="-132" y="913" type="curve" smooth="yes"/>
      <point x="-153" y="913"/>
      <point x="-162" y="900"/>
      <point x="-162" y="880" type="curve" smooth="yes"/>
      <point x="-162" y="867"/>
      <point x="-153" y="855"/>
      <point x="-152" y="850" type="curve"/>
      <point x="-159" y="844" type="line"/>
      <point x="-174" y="853"/>
      <point x="-186" y="871"/>
      <point x="-186" y="894" type="curve" smooth="yes"/>
      <point x="-186" y="918"/>
      <point x="-167" y="944"/>
      <point x="-135" y="944" type="curve" smooth="yes"/>
      <point x="-97" y="944"/>
      <point x="-81" y="919"/>
      <point x="-81" y="892" type="curve" smooth="yes"/>
      <point x="-81" y="870"/>
      <point x="-93" y="856"/>
      <point x="-107" y="846" type="curve"/>
    </contour>
  </outline>
</glyph>
<glyph name="uniE002" format="2">
  <advance width="1"/>
  <unicode hex="E002"/>
  <anchor x="-136" y="1025" name="Stack"/>
  <anchor x="-136" y="837" name="_Stack"/>
  <anchor x="-134" y="838" name="_Diacritic"/>
  <outline>
    <contour>
      <point x="-143" y="847" type="line"/>
      <point x="-136" y="854"/>
      <point x="-135" y="868"/>
      <point x="-135" y="880" type="curve" smooth="yes"/>
      <point x="-135" y="893"/>
      <point x="-143" y="911"/>
      <point x="-161" y="911" type="curve" smooth="yes"/>
      <point x="-178" y="911"/>
      <point x="-186" y="893"/>
      <point x="-186" y="879" type="curve" smooth="yes"/>
      <point x="-186" y="866"/>
      <point x="-179" y="851"/>
      <point x="-176" y="845" type="curve"/>
      <point x="-186" y="841" type="line"/>
      <point x="-197" y="849"/>
      <point x="-209" y="870"/>
      <point x="-209" y="890" type="curve" smooth="yes"/>
      <point x="-209" y="915"/>
      <point x="-192" y="944"/>
      <point x="-163" y="944" type="curve" smooth="yes"/>
      <point x="-127" y="944"/>
      <point x="-113" y="916"/>
      <point x="-113" y="890" type="curve" smooth="yes"/>
      <point x="-113" y="868"/>
      <point x="-123" y="853"/>
      <point x="-134" y="841" type="curve"/>
    </contour>
    <contour>
      <point x="-80" y="841" type="line"/>
      <point x="-100" y="841" type="line"/>
      <point x="-100" y="846" type="line"/>
      <point x="-79" y="960" type="line"/>
      <point x="-58" y="960" type="line"/>
      <point x="-58" y="954" type="line"/>
    </contour>
  </outline>
</glyph>
<glyph name="uniE004" format="2">
  <advance width="1"/>
  <unicode hex="E004"/>
  <anchor x="-118" y="1022" name="Stack"/>
  <anchor x="-118" y="840" name="_Stack"/>
  <anchor x="-121" y="839" name="_Diacritic"/>
  <outline>
    <contour>
      <point x="-48" y="841" type="line"/>
      <point x="-68" y="841" type="line"/>
      <point x="-105" y="954" type="line"/>
      <point x="-105" y="960" type="line"/>
      <point x="-84" y="960" type="line"/>
      <point x="-48" y="846" type="line"/>
    </contour>
    <contour>
      <point x="-113" y="890" type="curve" smooth="yes"/>
      <point x="-113" y="868"/>
      <point x="-123" y="853"/>
      <point x="-134" y="841" type="curve"/>
      <point x="-143" y="847" type="line"/>
      <point x="-136" y="854"/>
      <point x="-135" y="868"/>
      <point x="-135" y="880" type="curve" smooth="yes"/>
      <point x="-135" y="893"/>
      <point x="-143" y="911"/>
      <point x="-161" y="911" type="curve" smooth="yes"/>
      <point x="-178" y="911"/>
      <point x="-186" y="893"/>
      <point x="-186" y="879" type="curve" smooth="yes"/>
      <point x="-186" y="866"/>
      <point x="-179" y="851"/>
      <point x="-176" y="845" type="curve"/>
      <point x="-186" y="841" type="line"/>
      <point x="-197" y="849"/>
      <point x="-209" y="870"/>
      <point x="-209" y="890" type="curve" smooth="yes"/>
      <point x="-209" y="915"/>
      <point x="-192" y="944"/>
      <point x="-163" y="944" type="curve" smooth="yes"/>
      <point x="-127" y="944"/>
      <point x="-113" y="916"/>
    </contour>
  </outline>
</glyph>
<glyph name="uniE005" format="2">
  <advance width="0"/>
  <unicode hex="E005"/>
  <anchor x="-178" y="1003" name="Stack"/>
  <anchor x="-178" y="825" name="_Stack"/>
  <anchor x="-175" y="824" name="_Diacritic"/>
  <outline>
    <contour>
      <point x="-289" y="846" type="line"/>
      <point x="-291" y="849"/>
      <point x="-294" y="854"/>
      <point x="-294" y="861" type="curve" smooth="yes"/>
      <point x="-294" y="871"/>
      <point x="-285" y="889"/>
      <point x="-277" y="899" type="curve" smooth="yes"/>
      <point x="-273" y="906"/>
      <point x="-268" y="912"/>
      <point x="-261" y="916" type="curve" smooth="yes"/>
      <point x="-223" y="935"/>
      <point x="-177" y="951"/>
      <point x="-142" y="955" type="curve" smooth="yes"/>
      <point x="-137" y="956"/>
      <point x="-130" y="956"/>
      <point x="-127" y="953" type="curve" smooth="yes"/>
      <point x="-87" y="922"/>
      <point x="-28" y="861"/>
      <point x="-4" y="844" type="curve" smooth="yes"/>
      <point x="-2" y="839"/>
      <point x="-2" y="835"/>
      <point x="-3" y="830" type="curve"/>
      <point x="-56" y="830" type="line"/>
      <point x="-87" y="849"/>
      <point x="-117" y="899"/>
      <point x="-154" y="923" type="curve" smooth="yes"/>
      <point x="-159" y="925"/>
      <point x="-169" y="925"/>
      <point x="-179" y="925" type="curve" smooth="yes"/>
      <point x="-187" y="925"/>
      <point x="-195" y="925"/>
      <point x="-201" y="924" type="curve" smooth="yes"/>
      <point x="-211" y="922"/>
      <point x="-229" y="912"/>
      <point x="-237" y="906" type="curve"/>
      <point x="-241" y="898"/>
      <point x="-244" y="891"/>
      <point x="-245" y="885" type="curve" smooth="yes"/>
      <point x="-246" y="874"/>
      <point x="-243" y="860"/>
      <point x="-242" y="854" type="curve"/>
      <point x="-242" y="850" type="line"/>
    </contour>
    <contour>
      <point x="-154" y="829" type="line"/>
      <point x="-150" y="837"/>
      <point x="-148" y="842"/>
      <point x="-148" y="851" type="curve" smooth="yes"/>
      <point x="-148" y="864"/>
      <point x="-160" y="879"/>
      <point x="-175" y="879" type="curve" smooth="yes"/>
      <point x="-192" y="879"/>
      <point x="-201" y="867"/>
      <point x="-201" y="855" type="curve" smooth="yes"/>
      <point x="-201" y="843"/>
      <point x="-196" y="833"/>
      <point x="-194" y="829" type="curve"/>
      <point x="-203" y="826" type="line"/>
      <point x="-212" y="833"/>
      <point x="-223" y="849"/>
      <point x="-223" y="866" type="curve" smooth="yes"/>
      <point x="-223" y="888"/>
      <point x="-205" y="909"/>
      <point x="-178" y="909" type="curve" smooth="yes"/>
      <point x="-151" y="909"/>
      <point x="-127" y="885"/>
      <point x="-127" y="864" type="curve" smooth="yes"/>
      <point x="-127" y="849"/>
      <point x="-139" y="831"/>
      <point x="-145" y="826" type="curve"/>
    </contour>
  </outline>
</glyph>
<glyph name="uni2DE10487" format="2">
  <advance width="1"/>
  <unicode hex="F4E1"/>
  <anchor x="-131" y="838" name="_Stack"/>
  <anchor x="-131" y="1016" name="Stack"/>
  <anchor x="-130" y="838" name="_Diacritic"/>
  <outline>
    <contour>
      <point x="-74" y="840" type="curve" smooth="yes"/>
      <point x="-176" y="840" type="line" smooth="yes"/>
      <point x="-182" y="840"/>
      <point x="-182" y="852"/>
      <point x="-176" y="852" type="curve" smooth="yes"/>
      <point x="-172" y="852" type="line"/>
      <point x="-167" y="866"/>
      <point x="-167" y="903"/>
      <point x="-167" y="921" type="curve"/>
      <point x="-174" y="921" type="line" smooth="yes"/>
      <point x="-180" y="921"/>
      <point x="-181" y="933"/>
      <point x="-174" y="933" type="curve" smooth="yes"/>
      <point x="-89" y="933" type="line" smooth="yes"/>
      <point x="-83" y="933"/>
      <point x="-83" y="921"/>
      <point x="-89" y="921" type="curve" smooth="yes"/>
      <point x="-95" y="921" type="line"/>
      <point x="-95" y="913"/>
      <point x="-95" y="897"/>
      <point x="-92" y="882" type="curve" smooth="yes"/>
      <point x="-91" y="870"/>
      <point x="-87" y="858"/>
      <point x="-86" y="852" type="curve"/>
      <point x="-74" y="852" type="line" smooth="yes"/>
      <point x="-70" y="852"/>
      <point x="-69" y="840"/>
    </contour>
    <contour>
      <point x="-121" y="852" type="line"/>
      <point x="-122" y="858"/>
      <point x="-124" y="869"/>
      <point x="-124" y="878" type="curve" smooth="yes"/>
      <point x="-124" y="894"/>
      <point x="-125" y="913"/>
      <point x="-125" y="921" type="curve"/>
      <point x="-136" y="921" type="line"/>
      <point x="-136" y="913"/>
      <point x="-136" y="896"/>
      <point x="-137" y="882" type="curve" smooth="yes"/>
      <point x="-137" y="873"/>
      <point x="-137" y="857"/>
      <point x="-137" y="852" type="curve"/>
    </contour>
    <contour>
      <point x="-229" y="884" type="line"/>
      <point x="-230" y="887"/>
      <point x="-233" y="894"/>
      <point x="-233" y="901" type="curve" smooth="yes"/>
      <point x="-233" y="922"/>
      <point x="-220" y="946"/>
      <point x="-205" y="955" type="curve" smooth="yes"/>
      <point x="-166" y="975"/>
      <point x="-137" y="984"/>
      <point x="-102" y="990" type="curve" smooth="yes"/>
      <point x="-97" y="991"/>
      <point x="-90" y="991"/>
      <point x="-86" y="988" type="curve" smooth="yes"/>
      <point x="-47" y="957"/>
      <point x="34" y="899"/>
      <point x="59" y="885" type="curve"/>
      <point x="61" y="879"/>
      <point x="61" y="876"/>
      <point x="60" y="870" type="curve"/>
      <point x="7" y="870" type="line"/>
      <point x="-25" y="888"/>
      <point x="-77" y="932"/>
      <point x="-113" y="956" type="curve" smooth="yes"/>
      <point x="-122" y="959"/>
      <point x="-134" y="960"/>
      <point x="-147" y="960" type="curve" smooth="yes"/>
      <point x="-160" y="960"/>
      <point x="-176" y="953"/>
      <point x="-183" y="945" type="curve" smooth="yes"/>
      <point x="-186" y="938"/>
      <point x="-186" y="933"/>
      <point x="-186" y="924" type="curve" smooth="yes"/>
      <point x="-186" y="912"/>
      <point x="-182" y="902"/>
      <point x="-182" y="894" type="curve" smooth="yes"/>
      <point x="-182" y="891" type="line"/>
    </contour>
  </outline>
</glyph>
<glyph name="uni2DE20487" format="2">
  <advance width="1"/>
  <unicode hex="F4E2"/>
  <anchor x="-138" y="835" name="_Stack"/>
  <anchor x="-138" y="1013" name="Stack"/>
  <anchor x="-138" y="835" name="_Diacritic"/>
  <outline>
    <contour>
      <point x="-89" y="920" type="line"/>
      <point x="-98" y="905" type="line"/>
      <point x="-107" y="905" type="line"/>
      <point x="-120" y="920" type="line"/>
      <point x="-137" y="920" type="line"/>
      <point x="-137" y="840" type="line"/>
      <point x="-170" y="840" type="line"/>
      <point x="-170" y="932" type="line"/>
      <point x="-89" y="932" type="line"/>
    </contour>
    <contour>
      <point x="-228" y="884" type="line"/>
      <point x="-230" y="887"/>
      <point x="-233" y="894"/>
      <point x="-233" y="901" type="curve" smooth="yes"/>
      <point x="-233" y="911"/>
      <point x="-227" y="929"/>
      <point x="-221" y="940" type="curve" smooth="yes"/>
      <point x="-215" y="947"/>
      <point x="-212" y="951"/>
      <point x="-204" y="955" type="curve" smooth="yes"/>
      <point x="-165" y="974"/>
      <point x="-137" y="983"/>
      <point x="-101" y="990" type="curve" smooth="yes"/>
      <point x="-96" y="991"/>
      <point x="-89" y="991"/>
      <point x="-86" y="988" type="curve" smooth="yes"/>
      <point x="-47" y="957"/>
      <point x="34" y="899"/>
      <point x="59" y="884" type="curve" smooth="yes"/>
      <point x="61" y="879"/>
      <point x="61" y="875"/>
      <point x="61" y="870" type="curve"/>
      <point x="7" y="870" type="line"/>
      <point x="-24" y="888"/>
      <point x="-77" y="932"/>
      <point x="-113" y="956" type="curve" smooth="yes"/>
      <point x="-122" y="959"/>
      <point x="-134" y="960"/>
      <point x="-146" y="960" type="curve" smooth="yes"/>
      <point x="-159" y="960"/>
      <point x="-176" y="953"/>
      <point x="-182" y="945" type="curve" smooth="yes"/>
      <point x="-185" y="938"/>
      <point x="-185" y="932"/>
      <point x="-185" y="924" type="curve" smooth="yes"/>
      <point x="-185" y="912"/>
      <point x="-182" y="902"/>
      <point x="-182" y="894" type="curve" smooth="yes"/>
      <point x="-182" y="890" type="line"/>
    </contour>
  </outline>
</glyph>
<glyph name="uni2DE90487" format="2">
  <advance width="1"/>
  <unicode hex="F4E9"/>
  <anchor x="-129" y="841" name="_Stack"/>
  <anchor x="-129" y="1019" name="Stack"/>
  <anchor x="-130" y="839" name="_Diacritic"/>
  <outline>
    <contour>
      <point x="-177" y="926" type="line"/>
      <point x="-142" y="926" type="line"/>
      <point x="-142" y="893" type="line"/>
      <point x="-117" y="893" type="line"/>
      <point x="-117" y="927" type="line"/>
      <point x="-85" y="927" type="line"/>
      <point x="-85" y="840" type="line"/>
      <point x="-117" y="840" type="line"/>
      <point x="-117" y="878" type="line"/>
      <point x="-142" y="878" type="line"/>
      <point x="-142" y="840" type="line"/>
      <point x="-177" y="840" type="line"/>
    </contour>
    <contour>
      <point x="-232" y="884" type="line"/>
      <point x="-234" y="887"/>
      <point x="-237" y="894"/>
      <point x="-237" y="900" type="curve" smooth="yes"/>
      <point x="-237" y="920"/>
      <point x="-224" y="948"/>
      <point x="-208" y="954" type="curve" smooth="yes"/>
      <point x="-169" y="974"/>
      <point x="-141" y="983"/>
      <point x="-105" y="990" type="curve" smooth="yes"/>
      <point x="-100" y="990"/>
      <point x="-93" y="990"/>
      <point x="-90" y="987" type="curve" smooth="yes"/>
      <point x="-51" y="957"/>
      <point x="30" y="899"/>
      <point x="55" y="884" type="curve" smooth="yes"/>
      <point x="57" y="879"/>
      <point x="57" y="875"/>
      <point x="57" y="870" type="curve"/>
      <point x="3" y="870" type="line"/>
      <point x="-28" y="888"/>
      <point x="-81" y="932"/>
      <point x="-117" y="956" type="curve" smooth="yes"/>
      <point x="-126" y="959"/>
      <point x="-138" y="960"/>
      <point x="-150" y="960" type="curve" smooth="yes"/>
      <point x="-163" y="960"/>
      <point x="-180" y="953"/>
      <point x="-186" y="945" type="curve" smooth="yes"/>
      <point x="-189" y="938"/>
      <point x="-189" y="932"/>
      <point x="-189" y="924" type="curve" smooth="yes"/>
      <point x="-189" y="912"/>
      <point x="-186" y="902"/>
      <point x="-186" y="894" type="curve" smooth="yes"/>
      <point x="-186" y="890" type="line"/>
    </contour>
  </outline>
</glyph>
<glyph name="uni2DEA0487" format="2">
  <advance width="1"/>
  <unicode hex="F4EA"/>
  <anchor x="-134" y="838" name="_Stack"/>
  <anchor x="-134" y="1016" name="Stack"/>
  <anchor x="-134" y="838" name="_Diacritic"/>
  <outline>
    <contour>
      <point x="-133" y="852" type="curve" smooth="yes"/>
      <point x="-124" y="852"/>
      <point x="-115" y="861"/>
      <point x="-115" y="876" type="curve" smooth="yes"/>
      <point x="-115" y="897" type="line" smooth="yes"/>
      <point x="-115" y="909"/>
      <point x="-124" y="921"/>
      <point x="-133" y="921" type="curve" smooth="yes"/>
      <point x="-145" y="921"/>
      <point x="-151" y="909"/>
      <point x="-151" y="897" type="curve" smooth="yes"/>
      <point x="-151" y="876" type="line" smooth="yes"/>
      <point x="-151" y="861"/>
      <point x="-145" y="852"/>
    </contour>
    <contour>
      <point x="-133" y="933" type="curve" smooth="yes"/>
      <point x="-106" y="933"/>
      <point x="-82" y="915"/>
      <point x="-82" y="885" type="curve" smooth="yes"/>
      <point x="-82" y="855"/>
      <point x="-103" y="840"/>
      <point x="-133" y="840" type="curve" smooth="yes"/>
      <point x="-164" y="840"/>
      <point x="-187" y="855"/>
      <point x="-187" y="885" type="curve" smooth="yes"/>
      <point x="-187" y="915"/>
      <point x="-163" y="933"/>
    </contour>
    <contour>
      <point x="-245" y="885" type="line"/>
      <point x="-247" y="888"/>
      <point x="-250" y="894"/>
      <point x="-250" y="901" type="curve" smooth="yes"/>
      <point x="-250" y="923"/>
      <point x="-237" y="947"/>
      <point x="-221" y="955" type="curve" smooth="yes"/>
      <point x="-182" y="975"/>
      <point x="-154" y="984"/>
      <point x="-118" y="990" type="curve" smooth="yes"/>
      <point x="-113" y="991"/>
      <point x="-106" y="991"/>
      <point x="-103" y="988" type="curve" smooth="yes"/>
      <point x="-64" y="957"/>
      <point x="17" y="900"/>
      <point x="42" y="885" type="curve"/>
      <point x="44" y="879"/>
      <point x="44" y="876"/>
      <point x="44" y="870" type="curve"/>
      <point x="-10" y="870" type="line"/>
      <point x="-41" y="888"/>
      <point x="-94" y="933"/>
      <point x="-130" y="957" type="curve" smooth="yes"/>
      <point x="-139" y="960"/>
      <point x="-151" y="960"/>
      <point x="-163" y="960" type="curve" smooth="yes"/>
      <point x="-176" y="960"/>
      <point x="-193" y="954"/>
      <point x="-199" y="945" type="curve" smooth="yes"/>
      <point x="-202" y="939"/>
      <point x="-202" y="933"/>
      <point x="-202" y="924" type="curve" smooth="yes"/>
      <point x="-202" y="912"/>
      <point x="-199" y="903"/>
      <point x="-199" y="894" type="curve" smooth="yes"/>
      <point x="-199" y="891" type="line"/>
    </contour>
  </outline>
</glyph>
<glyph name="uni2DEC0487" format="2">
  <advance width="1"/>
  <unicode hex="F4EC"/>
  <anchor x="-180" y="835" name="_Stack"/>
  <anchor x="-180" y="1013" name="Stack"/>
  <anchor x="-181" y="837" name="_Diacritic"/>
  <outline>
    <contour>
      <point x="-231" y="838" type="curve"/>
      <point x="-229" y="843"/>
      <point x="-228" y="847"/>
      <point x="-228" y="857" type="curve" smooth="yes"/>
      <point x="-228" y="872"/>
      <point x="-228" y="888"/>
      <point x="-228" y="899" type="curve" smooth="yes"/>
      <point x="-228" y="914"/>
      <point x="-202" y="933"/>
      <point x="-177" y="933" type="curve" smooth="yes"/>
      <point x="-153" y="933"/>
      <point x="-127" y="917"/>
      <point x="-127" y="900" type="curve" smooth="yes"/>
      <point x="-127" y="884"/>
      <point x="-141" y="875"/>
      <point x="-168" y="875" type="curve" smooth="yes"/>
      <point x="-174" y="875"/>
      <point x="-190" y="877"/>
      <point x="-195" y="882" type="curve"/>
      <point x="-195" y="852" type="line" smooth="yes"/>
      <point x="-195" y="843"/>
      <point x="-231" y="838"/>
    </contour>
    <contour>
      <point x="-193" y="903" type="curve" smooth="yes"/>
      <point x="-193" y="897"/>
      <point x="-187" y="887"/>
      <point x="-177" y="887" type="curve" smooth="yes"/>
      <point x="-168" y="887"/>
      <point x="-159" y="894"/>
      <point x="-159" y="904" type="curve" smooth="yes"/>
      <point x="-159" y="911"/>
      <point x="-166" y="920"/>
      <point x="-177" y="920" type="curve" smooth="yes"/>
      <point x="-189" y="920"/>
      <point x="-193" y="912"/>
    </contour>
    <contour>
      <point x="-288" y="884" type="line"/>
      <point x="-289" y="887"/>
      <point x="-292" y="894"/>
      <point x="-292" y="901" type="curve" smooth="yes"/>
      <point x="-292" y="921"/>
      <point x="-279" y="946"/>
      <point x="-264" y="955" type="curve" smooth="yes"/>
      <point x="-225" y="975"/>
      <point x="-195" y="984"/>
      <point x="-162" y="990" type="curve" smooth="yes"/>
      <point x="-156" y="991"/>
      <point x="-150" y="991"/>
      <point x="-145" y="988" type="curve" smooth="yes"/>
      <point x="-105" y="957"/>
      <point x="-24" y="899"/>
      <point x="0" y="885" type="curve"/>
      <point x="2" y="879"/>
      <point x="2" y="876"/>
      <point x="0" y="870" type="curve"/>
      <point x="-52" y="870" type="line"/>
      <point x="-84" y="888"/>
      <point x="-135" y="932"/>
      <point x="-172" y="956" type="curve" smooth="yes"/>
      <point x="-181" y="959"/>
      <point x="-193" y="960"/>
      <point x="-207" y="960" type="curve" smooth="yes"/>
      <point x="-219" y="960"/>
      <point x="-235" y="953"/>
      <point x="-243" y="945" type="curve" smooth="yes"/>
      <point x="-246" y="938"/>
      <point x="-246" y="933"/>
      <point x="-246" y="924" type="curve" smooth="yes"/>
      <point x="-246" y="912"/>
      <point x="-240" y="902"/>
      <point x="-240" y="894" type="curve" smooth="yes"/>
      <point x="-240" y="891" type="line"/>
    </contour>
  </outline>
</glyph>
<glyph name="uni2DED0487" format="2">
  <advance width="1"/>
  <unicode hex="F4ED"/>
  <anchor x="-141" y="833" name="_Stack"/>
  <anchor x="-141" y="1011" name="Stack"/>
  <anchor x="-138" y="831" name="_Diacritic"/>
  <outline>
    <contour>
      <point x="-164" y="837" type="curve" smooth="yes"/>
      <point x="-167" y="837"/>
      <point x="-167" y="839"/>
      <point x="-167" y="842" type="curve" smooth="yes"/>
      <point x="-167" y="846"/>
      <point x="-167" y="852"/>
      <point x="-167" y="857" type="curve" smooth="yes"/>
      <point x="-167" y="871"/>
      <point x="-171" y="882"/>
      <point x="-171" y="896" type="curve" smooth="yes"/>
      <point x="-171" y="919"/>
      <point x="-145" y="929"/>
      <point x="-128" y="930" type="curve" smooth="yes"/>
      <point x="-123" y="931"/>
      <point x="-112" y="929"/>
      <point x="-111" y="929" type="curve"/>
      <point x="-111" y="926"/>
      <point x="-111" y="917"/>
      <point x="-111" y="912" type="curve"/>
      <point x="-113" y="912"/>
      <point x="-116" y="913"/>
      <point x="-118" y="913" type="curve" smooth="yes"/>
      <point x="-134" y="913"/>
      <point x="-139" y="903"/>
      <point x="-139" y="888" type="curve" smooth="yes"/>
      <point x="-139" y="876"/>
      <point x="-137" y="866"/>
      <point x="-137" y="857" type="curve"/>
      <point x="-127" y="856"/>
      <point x="-122" y="858"/>
      <point x="-114" y="864" type="curve" smooth="yes"/>
      <point x="-111" y="865"/>
      <point x="-108" y="854"/>
      <point x="-109" y="854" type="curve" smooth="yes"/>
      <point x="-117" y="838"/>
      <point x="-141" y="837"/>
    </contour>
    <contour>
      <point x="-241" y="883" type="line"/>
      <point x="-243" y="886"/>
      <point x="-245" y="892"/>
      <point x="-245" y="899" type="curve" smooth="yes"/>
      <point x="-245" y="919"/>
      <point x="-232" y="945"/>
      <point x="-217" y="954" type="curve" smooth="yes"/>
      <point x="-177" y="973"/>
      <point x="-148" y="983"/>
      <point x="-112" y="990" type="curve" smooth="yes"/>
      <point x="-107" y="990"/>
      <point x="-100" y="990"/>
      <point x="-96" y="987" type="curve" smooth="yes"/>
      <point x="-56" y="956"/>
      <point x="26" y="898"/>
      <point x="50" y="882" type="curve" smooth="yes"/>
      <point x="53" y="877"/>
      <point x="53" y="873"/>
      <point x="52" y="869" type="curve"/>
      <point x="-2" y="869" type="line"/>
      <point x="-35" y="887"/>
      <point x="-87" y="931"/>
      <point x="-124" y="956" type="curve" smooth="yes"/>
      <point x="-133" y="959"/>
      <point x="-145" y="960"/>
      <point x="-158" y="960" type="curve" smooth="yes"/>
      <point x="-171" y="960"/>
      <point x="-187" y="952"/>
      <point x="-194" y="945" type="curve" smooth="yes"/>
      <point x="-198" y="937"/>
      <point x="-198" y="930"/>
      <point x="-198" y="923" type="curve" smooth="yes"/>
      <point x="-198" y="910"/>
      <point x="-193" y="901"/>
      <point x="-193" y="892" type="curve" smooth="yes"/>
      <point x="-193" y="888" type="line"/>
    </contour>
  </outline>
</glyph>
<glyph name="uni2DF10487" format="2">
  <advance width="1"/>
  <unicode hex="F4F1"/>
  <anchor x="-138" y="843" name="_Stack"/>
  <anchor x="-138" y="1021" name="Stack"/>
  <anchor x="-137" y="842" name="_Diacritic"/>
  <outline>
    <contour>
      <point x="-185" y="926" type="curve"/>
      <point x="-149" y="926" type="line"/>
      <point x="-151" y="917"/>
      <point x="-149" y="903"/>
      <point x="-143" y="897" type="curve" smooth="yes"/>
      <point x="-136" y="891"/>
      <point x="-125" y="893"/>
      <point x="-125" y="893" type="curve"/>
      <point x="-125" y="927" type="line"/>
      <point x="-92" y="927" type="line"/>
      <point x="-92" y="840" type="line"/>
      <point x="-125" y="840" type="line"/>
      <point x="-125" y="876" type="line"/>
      <point x="-125" y="876"/>
      <point x="-136" y="875"/>
      <point x="-154" y="882" type="curve" smooth="yes"/>
      <point x="-170" y="888"/>
      <point x="-185" y="899"/>
    </contour>
    <contour>
      <point x="-239" y="884" type="line"/>
      <point x="-241" y="887"/>
      <point x="-244" y="894"/>
      <point x="-244" y="900" type="curve" smooth="yes"/>
      <point x="-244" y="920"/>
      <point x="-231" y="948"/>
      <point x="-215" y="954" type="curve" smooth="yes"/>
      <point x="-176" y="974"/>
      <point x="-148" y="983"/>
      <point x="-113" y="990" type="curve" smooth="yes"/>
      <point x="-107" y="990"/>
      <point x="-101" y="990"/>
      <point x="-97" y="987" type="curve" smooth="yes"/>
      <point x="-58" y="957"/>
      <point x="23" y="899"/>
      <point x="48" y="884" type="curve" smooth="yes"/>
      <point x="50" y="879"/>
      <point x="50" y="875"/>
      <point x="49" y="870" type="curve"/>
      <point x="-4" y="870" type="line"/>
      <point x="-35" y="888"/>
      <point x="-88" y="932"/>
      <point x="-124" y="956" type="curve" smooth="yes"/>
      <point x="-133" y="959"/>
      <point x="-145" y="960"/>
      <point x="-158" y="960" type="curve" smooth="yes"/>
      <point x="-170" y="960"/>
      <point x="-187" y="953"/>
      <point x="-194" y="945" type="curve" smooth="yes"/>
      <point x="-197" y="938"/>
      <point x="-197" y="932"/>
      <point x="-197" y="924" type="curve" smooth="yes"/>
      <point x="-197" y="912"/>
      <point x="-193" y="902"/>
      <point x="-193" y="894" type="curve" smooth="yes"/>
      <point x="-193" y="890" type="line"/>
    </contour>
  </outline>
</glyph>
